<?xml version="1.0" encoding="UTF-8" standalone="no"?>
<!DOCTYPE svg PUBLIC "-//W3C//DTD SVG 1.1//EN" "http://www.w3.org/Graphics/SVG/1.1/DTD/svg11.dtd">
<svg width="100%" height="100%" viewBox="0 0 1846 380" version="1.1" xmlns="http://www.w3.org/2000/svg" xmlns:xlink="http://www.w3.org/1999/xlink" xml:space="preserve" xmlns:serif="http://www.serif.com/" style="fill-rule:evenodd;clip-rule:evenodd;stroke-miterlimit:1.41421;">
    <g transform="matrix(4.16667,0,0,4.16667,0,0)">
        <rect x="108.266" y="1.359" width="2.476" height="16.169" style="fill:rgb(245,130,31);fill-rule:nonzero;"/>
        <path d="M121.119,17.528L121.119,10.51C121.119,9.618 120.896,8.966 120.449,8.558C120.002,8.149 119.454,7.945 118.803,7.945C118.152,7.945 117.592,8.153 117.123,8.569C116.653,8.986 116.418,9.632 116.418,10.51L116.418,17.528L114.102,17.528L114.102,6.014L116.373,6.014L116.373,7.172C116.767,6.734 117.232,6.408 117.77,6.196C118.307,5.984 118.863,5.878 119.439,5.878C120.029,5.878 120.563,5.969 121.04,6.151C121.517,6.333 121.929,6.589 122.277,6.922C122.716,7.362 123.019,7.85 123.186,8.387C123.352,8.925 123.436,9.519 123.436,10.17L123.436,17.528L121.119,17.528Z" style="fill:rgb(65,64,66);fill-rule:nonzero;"/>
        <path d="M134.949,14.008C134.949,14.614 134.828,15.143 134.586,15.597C134.343,16.051 134.01,16.434 133.586,16.745C133.163,17.055 132.656,17.286 132.065,17.437C131.475,17.588 130.839,17.665 130.158,17.665C129.218,17.665 128.348,17.554 127.546,17.334C126.743,17.116 126.002,16.672 125.32,16.006L126.842,14.485C127.311,14.969 127.837,15.291 128.42,15.45C129.003,15.609 129.582,15.688 130.158,15.688C130.869,15.688 131.467,15.56 131.952,15.302C132.436,15.045 132.678,14.644 132.678,14.099C132.678,13.706 132.561,13.391 132.326,13.157C132.091,12.921 131.694,12.782 131.134,12.736L129.294,12.578C128.205,12.487 127.364,12.188 126.774,11.68C126.184,11.173 125.888,10.413 125.888,9.398C125.888,8.838 126.002,8.338 126.229,7.899C126.456,7.46 126.766,7.093 127.16,6.797C127.553,6.502 128.011,6.275 128.534,6.117C129.056,5.958 129.619,5.878 130.226,5.878C131.088,5.878 131.883,5.977 132.61,6.173C133.337,6.37 133.965,6.704 134.495,7.172L133.042,8.649C132.678,8.346 132.25,8.13 131.758,8.001C131.267,7.873 130.748,7.808 130.203,7.808C129.506,7.808 128.983,7.945 128.636,8.217C128.287,8.49 128.114,8.845 128.114,9.285C128.114,9.632 128.223,9.924 128.442,10.159C128.662,10.394 129.082,10.542 129.703,10.601L131.52,10.76C132.61,10.851 133.454,11.158 134.052,11.68C134.65,12.203 134.949,12.979 134.949,14.008Z" style="fill:rgb(65,64,66);fill-rule:nonzero;"/>
        <path d="M140.399,17.528C139.854,17.528 139.385,17.437 138.991,17.255C138.598,17.074 138.272,16.835 138.015,16.54C137.757,16.245 137.564,15.904 137.436,15.518C137.307,15.132 137.243,14.735 137.243,14.326L137.243,7.99L135.926,7.99L135.926,6.218L137.243,6.218L137.243,2.721L139.559,2.721L139.559,6.218L141.785,6.218L141.785,7.99L139.559,7.99L139.559,14.212C139.559,14.636 139.661,14.965 139.866,15.2C140.07,15.435 140.392,15.552 140.831,15.552L141.785,15.552L141.785,17.528L140.399,17.528Z" style="fill:rgb(65,64,66);fill-rule:nonzero;"/>
        <path d="M144.169,17.528L144.169,6.014L146.485,6.014L146.485,17.528L144.169,17.528ZM144.101,3.744L144.101,1.291L146.554,1.291L146.554,3.744L144.101,3.744Z" style="fill:rgb(65,64,66);fill-rule:nonzero;"/>
        <path d="M153.025,17.528C152.48,17.528 152.011,17.437 151.617,17.255C151.224,17.074 150.898,16.835 150.641,16.54C150.383,16.245 150.19,15.904 150.062,15.518C149.933,15.132 149.869,14.735 149.869,14.326L149.869,7.99L148.552,7.99L148.552,6.218L149.869,6.218L149.869,2.721L152.185,2.721L152.185,6.218L154.411,6.218L154.411,7.99L152.185,7.99L152.185,14.212C152.185,14.636 152.287,14.965 152.492,15.2C152.696,15.435 153.018,15.552 153.457,15.552L154.411,15.552L154.411,17.528L153.025,17.528Z" style="fill:rgb(65,64,66);fill-rule:nonzero;"/>
        <path d="M163.744,17.528L163.744,16.37C163.35,16.809 162.885,17.134 162.348,17.346C161.81,17.558 161.253,17.665 160.678,17.665C160.088,17.665 159.554,17.574 159.077,17.391C158.601,17.209 158.188,16.953 157.84,16.62C157.4,16.18 157.098,15.692 156.931,15.155C156.765,14.618 156.682,14.023 156.682,13.372L156.682,6.014L158.998,6.014L158.998,13.032C158.998,13.925 159.221,14.576 159.668,14.985C160.114,15.393 160.663,15.597 161.314,15.597C161.632,15.597 161.938,15.548 162.234,15.45C162.529,15.352 162.782,15.197 162.995,14.985C163.207,14.773 163.377,14.504 163.506,14.178C163.634,13.853 163.699,13.47 163.699,13.032L163.699,6.014L166.015,6.014L166.015,17.528L163.744,17.528Z" style="fill:rgb(65,64,66);fill-rule:nonzero;"/>
        <path d="M172.555,17.528C172.01,17.528 171.541,17.437 171.147,17.255C170.753,17.074 170.428,16.835 170.171,16.54C169.913,16.245 169.72,15.904 169.592,15.518C169.463,15.132 169.398,14.735 169.398,14.326L169.398,7.99L168.082,7.99L168.082,6.218L169.398,6.218L169.398,2.721L171.715,2.721L171.715,6.218L173.94,6.218L173.94,7.99L171.715,7.99L171.715,14.212C171.715,14.636 171.817,14.965 172.021,15.2C172.226,15.435 172.547,15.552 172.987,15.552L173.94,15.552L173.94,17.528L172.555,17.528Z" style="fill:rgb(65,64,66);fill-rule:nonzero;"/>
        <path d="M183.161,10.829C183.146,10.481 183.119,10.197 183.081,9.977C183.043,9.757 182.964,9.519 182.843,9.261C182.661,8.823 182.373,8.471 181.979,8.206C181.586,7.941 181.117,7.808 180.572,7.808C180.027,7.808 179.553,7.941 179.152,8.206C178.751,8.471 178.46,8.823 178.278,9.261C178.157,9.519 178.081,9.757 178.051,9.977C178.021,10.197 177.998,10.481 177.983,10.829L183.161,10.829ZM177.983,12.441C177.983,13.447 178.232,14.241 178.732,14.82C179.232,15.399 179.958,15.688 180.912,15.688C181.563,15.688 182.089,15.594 182.491,15.405C182.892,15.215 183.297,14.916 183.706,14.507L185.182,15.89C184.878,16.19 184.58,16.448 184.285,16.666C183.989,16.882 183.671,17.066 183.331,17.215C182.99,17.365 182.619,17.477 182.218,17.552C181.817,17.626 181.367,17.665 180.867,17.665C180.14,17.665 179.462,17.562 178.833,17.358C178.205,17.153 177.658,16.82 177.191,16.358C176.725,15.897 176.354,15.288 176.079,14.53C175.804,13.773 175.667,12.85 175.667,11.759C175.667,9.882 176.113,8.433 177.006,7.411C177.899,6.389 179.088,5.878 180.572,5.878C181.344,5.878 182.033,6.014 182.638,6.287C183.244,6.559 183.754,6.938 184.171,7.422C184.587,7.907 184.905,8.49 185.125,9.17C185.344,9.852 185.454,10.601 185.454,11.419L185.454,12.441L177.983,12.441Z" style="fill:rgb(65,64,66);fill-rule:nonzero;"/>
        <path d="M199.556,11.759C199.556,11.124 199.511,10.526 199.42,9.965C199.329,9.406 199.109,8.952 198.761,8.603C198.322,8.165 197.754,7.945 197.058,7.945C196.377,7.945 195.817,8.165 195.378,8.603C195.029,8.952 194.81,9.406 194.719,9.965C194.628,10.526 194.583,11.124 194.583,11.759C194.583,12.396 194.628,12.994 194.719,13.553C194.81,14.114 195.029,14.568 195.378,14.916C195.832,15.371 196.392,15.597 197.058,15.597C197.74,15.597 198.307,15.371 198.761,14.916C199.109,14.568 199.329,14.114 199.42,13.553C199.511,12.994 199.556,12.396 199.556,11.759ZM201.873,11.759C201.873,12.744 201.782,13.603 201.6,14.337C201.418,15.072 201.055,15.726 200.51,16.301C200.131,16.696 199.659,17.021 199.091,17.278C198.523,17.536 197.845,17.665 197.058,17.665C196.271,17.665 195.597,17.536 195.037,17.278C194.477,17.021 194.007,16.696 193.629,16.301C193.084,15.726 192.721,15.072 192.539,14.337C192.357,13.603 192.267,12.744 192.267,11.759C192.267,10.791 192.357,9.939 192.539,9.205C192.721,8.471 193.084,7.816 193.629,7.241C194.007,6.847 194.477,6.522 195.037,6.264C195.597,6.006 196.271,5.878 197.058,5.878C197.845,5.878 198.523,6.006 199.091,6.264C199.659,6.522 200.131,6.847 200.51,7.241C201.055,7.816 201.418,8.471 201.6,9.205C201.782,9.939 201.873,10.791 201.873,11.759Z" style="fill:rgb(65,64,66);fill-rule:nonzero;"/>
        <path d="M207.118,7.99L207.118,17.528L204.802,17.528L204.802,7.99L203.485,7.99L203.485,6.218L204.802,6.218L204.802,4.448C204.802,4.039 204.866,3.641 204.995,3.255C205.124,2.869 205.316,2.529 205.574,2.233C205.831,1.938 206.157,1.7 206.551,1.518C206.944,1.336 207.413,1.246 207.958,1.246L209.411,1.246L209.411,3.221L208.39,3.221C207.95,3.221 207.63,3.338 207.425,3.573C207.221,3.808 207.118,4.137 207.118,4.561L207.118,6.218L209.411,6.218L209.411,7.99L207.118,7.99Z" style="fill:rgb(65,64,66);fill-rule:nonzero;"/>
        <path d="M117.123,28.6C117.123,27.734 116.862,27.065 116.342,26.594C115.822,26.123 115.131,25.887 114.272,25.887L110.742,25.887L110.742,31.291L114.272,31.291C115.131,31.291 115.822,31.06 116.342,30.596C116.862,30.132 117.123,29.467 117.123,28.6ZM119.598,28.589C119.598,29.301 119.477,29.956 119.235,30.553C118.993,31.152 118.645,31.666 118.19,32.098C117.736,32.529 117.191,32.87 116.555,33.12C115.919,33.37 115.208,33.495 114.42,33.495L110.742,33.495L110.742,39.853L108.266,39.853L108.266,23.684L114.41,23.684C115.199,23.684 115.912,23.809 116.549,24.059C117.186,24.308 117.732,24.649 118.188,25.081C118.642,25.512 118.991,26.031 119.234,26.636C119.477,27.242 119.598,27.893 119.598,28.589Z" style="fill:rgb(245,130,31);fill-rule:nonzero;"/>
        <path d="M128.047,31.041C127.79,30.783 127.536,30.59 127.287,30.461C127.037,30.332 126.715,30.268 126.321,30.268C125.685,30.268 125.144,30.499 124.697,30.96C124.25,31.423 124.027,32.055 124.027,32.857L124.027,39.853L121.71,39.853L121.71,28.337L123.981,28.337L123.981,29.586C124.284,29.178 124.708,28.845 125.253,28.587C125.799,28.33 126.396,28.202 127.048,28.202C127.608,28.202 128.106,28.285 128.547,28.451C128.985,28.618 129.401,28.898 129.796,29.291L128.047,31.041Z" style="fill:rgb(65,64,66);fill-rule:nonzero;"/>
        <path d="M137.154,34.083C137.154,33.448 137.108,32.85 137.018,32.29C136.927,31.73 136.707,31.275 136.359,30.927C135.919,30.488 135.352,30.268 134.655,30.268C133.974,30.268 133.414,30.488 132.975,30.927C132.626,31.275 132.407,31.73 132.316,32.29C132.225,32.85 132.18,33.448 132.18,34.083C132.18,34.72 132.225,35.318 132.316,35.878C132.407,36.439 132.626,36.893 132.975,37.241C133.429,37.695 133.989,37.922 134.655,37.922C135.337,37.922 135.905,37.695 136.359,37.241C136.707,36.893 136.927,36.439 137.018,35.878C137.108,35.318 137.154,34.72 137.154,34.083ZM139.471,34.083C139.471,35.069 139.38,35.927 139.198,36.662C139.016,37.396 138.653,38.051 138.108,38.626C137.729,39.02 137.256,39.346 136.688,39.603C136.121,39.861 135.442,39.99 134.655,39.99C133.868,39.99 133.194,39.861 132.634,39.603C132.074,39.346 131.604,39.02 131.226,38.626C130.681,38.051 130.317,37.396 130.136,36.662C129.953,35.927 129.863,35.069 129.863,34.083C129.863,33.115 129.953,32.263 130.136,31.529C130.317,30.794 130.681,30.14 131.226,29.564C131.604,29.17 132.074,28.845 132.634,28.587C133.194,28.33 133.868,28.202 134.655,28.202C135.442,28.202 136.121,28.33 136.688,28.587C137.256,28.845 137.729,29.17 138.108,29.564C138.653,30.14 139.016,30.794 139.198,31.529C139.38,32.263 139.471,33.115 139.471,34.083Z" style="fill:rgb(65,64,66);fill-rule:nonzero;"/>
        <path d="M144.715,30.314L144.715,39.853L142.398,39.853L142.398,30.314L141.081,30.314L141.081,28.541L142.398,28.541L142.398,26.77C142.398,26.362 142.463,25.964 142.591,25.578C142.72,25.192 142.913,24.851 143.171,24.556C143.428,24.26 143.753,24.022 144.147,23.84C144.541,23.659 145.01,23.568 145.556,23.568L147.009,23.568L147.009,25.543L145.987,25.543C145.548,25.543 145.226,25.662 145.022,25.896C144.817,26.13 144.715,26.46 144.715,26.884L144.715,28.541L147.009,28.541L147.009,30.314L144.715,30.314Z" style="fill:rgb(65,64,66);fill-rule:nonzero;"/>
        <path d="M155.458,33.153C155.442,32.804 155.416,32.521 155.378,32.301C155.34,32.082 155.26,31.843 155.14,31.585C154.958,31.147 154.67,30.794 154.276,30.53C153.882,30.264 153.413,30.132 152.868,30.132C152.323,30.132 151.85,30.264 151.449,30.53C151.047,30.794 150.756,31.147 150.574,31.585C150.453,31.843 150.377,32.082 150.347,32.301C150.316,32.521 150.294,32.804 150.279,33.153L155.458,33.153ZM150.279,34.765C150.279,35.772 150.529,36.565 151.028,37.144C151.528,37.724 152.255,38.013 153.209,38.013C153.86,38.013 154.386,37.918 154.788,37.729C155.188,37.541 155.594,37.241 156.002,36.832L157.479,38.215C157.176,38.515 156.877,38.773 156.582,38.991C156.287,39.207 155.968,39.39 155.628,39.541C155.287,39.69 154.916,39.802 154.515,39.877C154.113,39.952 153.663,39.99 153.164,39.99C152.437,39.99 151.759,39.887 151.13,39.683C150.501,39.478 149.954,39.145 149.487,38.683C149.021,38.221 148.65,37.612 148.375,36.855C148.1,36.098 147.962,35.174 147.962,34.083C147.962,32.207 148.409,30.756 149.302,29.735C150.195,28.712 151.384,28.202 152.868,28.202C153.64,28.202 154.329,28.337 154.935,28.61C155.541,28.882 156.051,29.261 156.468,29.746C156.884,30.231 157.203,30.813 157.422,31.495C157.642,32.176 157.751,32.925 157.751,33.744L157.751,34.765L150.279,34.765Z" style="fill:rgb(65,64,66);fill-rule:nonzero;"/>
        <path d="M168.742,36.332C168.742,36.938 168.621,37.468 168.378,37.922C168.136,38.376 167.803,38.759 167.379,39.07C166.955,39.38 166.448,39.611 165.857,39.762C165.267,39.914 164.631,39.99 163.949,39.99C163.01,39.99 162.14,39.879 161.337,39.66C160.535,39.441 159.793,38.998 159.112,38.332L160.633,36.809C161.103,37.294 161.629,37.616 162.212,37.775C162.794,37.934 163.374,38.013 163.949,38.013C164.661,38.013 165.259,37.885 165.744,37.627C166.228,37.37 166.471,36.968 166.471,36.423C166.471,36.03 166.353,35.715 166.119,35.481C165.884,35.247 165.486,35.106 164.926,35.061L163.086,34.902C161.996,34.811 161.156,34.512 160.565,34.004C159.975,33.498 159.679,32.737 159.679,31.722C159.679,31.162 159.793,30.662 160.02,30.223C160.247,29.784 160.558,29.416 160.951,29.122C161.345,28.826 161.803,28.599 162.326,28.44C162.848,28.281 163.412,28.202 164.018,28.202C164.881,28.202 165.676,28.3 166.402,28.497C167.129,28.694 167.757,29.027 168.288,29.496L166.834,30.972C166.471,30.669 166.042,30.454 165.551,30.325C165.059,30.197 164.54,30.132 163.995,30.132C163.298,30.132 162.776,30.268 162.428,30.541C162.079,30.813 161.905,31.169 161.905,31.608C161.905,31.957 162.015,32.249 162.235,32.483C162.454,32.717 162.874,32.865 163.495,32.925L165.312,33.084C166.402,33.175 167.247,33.482 167.845,34.004C168.443,34.527 168.742,35.303 168.742,36.332Z" style="fill:rgb(65,64,66);fill-rule:nonzero;"/>
        <path d="M179.37,36.332C179.37,36.938 179.249,37.468 179.006,37.922C178.764,38.376 178.431,38.759 178.007,39.07C177.583,39.38 177.076,39.611 176.485,39.762C175.895,39.914 175.259,39.99 174.577,39.99C173.638,39.99 172.768,39.879 171.965,39.66C171.163,39.441 170.421,38.998 169.74,38.332L171.261,36.809C171.73,37.294 172.257,37.616 172.84,37.775C173.422,37.934 174.002,38.013 174.577,38.013C175.289,38.013 175.887,37.885 176.372,37.627C176.856,37.37 177.099,36.968 177.099,36.423C177.099,36.03 176.981,35.715 176.747,35.481C176.512,35.247 176.114,35.106 175.554,35.061L173.714,34.902C172.624,34.811 171.784,34.512 171.193,34.004C170.603,33.498 170.307,32.737 170.307,31.722C170.307,31.162 170.421,30.662 170.648,30.223C170.875,29.784 171.186,29.416 171.579,29.122C171.973,28.826 172.431,28.599 172.954,28.44C173.476,28.281 174.04,28.202 174.646,28.202C175.509,28.202 176.304,28.3 177.03,28.497C177.757,28.694 178.385,29.027 178.916,29.496L177.462,30.972C177.099,30.669 176.67,30.454 176.179,30.325C175.687,30.197 175.168,30.132 174.623,30.132C173.926,30.132 173.404,30.268 173.056,30.541C172.707,30.813 172.533,31.169 172.533,31.608C172.533,31.957 172.643,32.249 172.863,32.483C173.082,32.717 173.502,32.865 174.123,32.925L175.94,33.084C177.03,33.175 177.875,33.482 178.473,34.004C179.071,34.527 179.37,35.303 179.37,36.332Z" style="fill:rgb(65,64,66);fill-rule:nonzero;"/>
        <path d="M181.617,39.853L181.617,28.337L183.933,28.337L183.933,39.853L181.617,39.853ZM181.548,26.066L181.548,23.613L184.001,23.613L184.001,26.066L181.548,26.066Z" style="fill:rgb(65,64,66);fill-rule:nonzero;"/>
        <path d="M193.79,34.083C193.79,33.448 193.744,32.85 193.653,32.29C193.563,31.73 193.343,31.275 192.995,30.927C192.555,30.488 191.987,30.268 191.291,30.268C190.61,30.268 190.049,30.488 189.61,30.927C189.262,31.275 189.042,31.73 188.952,32.29C188.861,32.85 188.815,33.448 188.815,34.083C188.815,34.72 188.861,35.318 188.952,35.878C189.042,36.439 189.262,36.893 189.61,37.241C190.064,37.695 190.625,37.922 191.291,37.922C191.973,37.922 192.541,37.695 192.995,37.241C193.343,36.893 193.563,36.439 193.653,35.878C193.744,35.318 193.79,34.72 193.79,34.083ZM196.106,34.083C196.106,35.069 196.016,35.927 195.834,36.662C195.652,37.396 195.289,38.051 194.744,38.626C194.365,39.02 193.892,39.346 193.324,39.603C192.756,39.861 192.078,39.99 191.291,39.99C190.504,39.99 189.83,39.861 189.27,39.603C188.709,39.346 188.24,39.02 187.861,38.626C187.316,38.051 186.953,37.396 186.771,36.662C186.589,35.927 186.499,35.069 186.499,34.083C186.499,33.115 186.589,32.263 186.771,31.529C186.953,30.794 187.316,30.14 187.861,29.564C188.24,29.17 188.709,28.845 189.27,28.587C189.83,28.33 190.504,28.202 191.291,28.202C192.078,28.202 192.756,28.33 193.324,28.587C193.892,28.845 194.365,29.17 194.744,29.564C195.289,30.14 195.652,30.794 195.834,31.529C196.016,32.263 196.106,33.115 196.106,34.083Z" style="fill:rgb(65,64,66);fill-rule:nonzero;"/>
        <path d="M205.689,39.853L205.689,32.834C205.689,31.942 205.465,31.291 205.019,30.881C204.572,30.472 204.023,30.268 203.373,30.268C202.721,30.268 202.161,30.476 201.691,30.893C201.222,31.309 200.987,31.957 200.987,32.834L200.987,39.853L198.671,39.853L198.671,28.337L200.942,28.337L200.942,29.496C201.335,29.057 201.801,28.732 202.339,28.519C202.876,28.307 203.433,28.202 204.008,28.202C204.599,28.202 205.133,28.292 205.61,28.474C206.086,28.656 206.499,28.914 206.848,29.246C207.286,29.685 207.589,30.173 207.756,30.711C207.923,31.249 208.006,31.843 208.006,32.494L208.006,39.853L205.689,39.853Z" style="fill:rgb(65,64,66);fill-rule:nonzero;"/>
        <path d="M217.157,34.765L214.454,34.765C213.772,34.765 213.258,34.91 212.91,35.197C212.562,35.485 212.388,35.893 212.388,36.423C212.388,36.954 212.558,37.359 212.898,37.638C213.239,37.918 213.772,38.059 214.5,38.059C214.938,38.059 215.332,38.025 215.681,37.957C216.029,37.888 216.354,37.703 216.657,37.4C216.99,37.067 217.157,36.499 217.157,35.697L217.157,34.765ZM217.202,39.853L217.202,38.808C216.778,39.232 216.34,39.535 215.885,39.716C215.431,39.899 214.848,39.99 214.137,39.99C213.409,39.99 212.8,39.902 212.308,39.728C211.815,39.554 211.396,39.293 211.047,38.945C210.441,38.308 210.139,37.484 210.139,36.469C210.139,35.499 210.468,34.705 211.127,34.083C211.785,33.463 212.781,33.153 214.113,33.153L217.157,33.153L217.157,32.335C217.157,31.608 216.964,31.067 216.578,30.711C216.191,30.355 215.545,30.177 214.636,30.177C214,30.177 213.5,30.26 213.137,30.427C212.773,30.594 212.433,30.881 212.115,31.291L210.593,29.859C211.138,29.223 211.725,28.789 212.354,28.553C212.981,28.319 213.772,28.202 214.727,28.202C217.892,28.202 219.474,29.519 219.474,32.153L219.474,39.853L217.202,39.853Z" style="fill:rgb(65,64,66);fill-rule:nonzero;"/>
        <path d="M225.559,39.853C225.014,39.853 224.54,39.766 224.139,39.592C223.737,39.417 223.408,39.187 223.151,38.899C222.894,38.612 222.704,38.275 222.583,37.888C222.462,37.502 222.401,37.097 222.401,36.673L222.401,23.681L224.718,23.681L224.718,36.537C224.718,36.976 224.809,37.309 224.991,37.537C225.173,37.763 225.498,37.877 225.968,37.877L226.989,37.877L226.989,39.853L225.559,39.853Z" style="fill:rgb(65,64,66);fill-rule:nonzero;"/>
        <path d="M121.463,62.178L119.328,62.178L116.035,50.844L112.764,62.178L110.629,62.178L106.404,46.006L108.994,46.006L111.81,57.568L115.058,46.006L117.034,46.006L120.282,57.568L123.098,46.006L125.688,46.006L121.463,62.178Z" style="fill:rgb(245,130,31);fill-rule:nonzero;"/>
        <path d="M127.209,62.178L127.209,50.663L129.524,50.663L129.524,62.178L127.209,62.178ZM127.141,48.391L127.141,45.938L129.593,45.938L129.593,48.391L127.141,48.391Z" style="fill:rgb(65,64,66);fill-rule:nonzero;"/>
        <path d="M135.726,62.178C135.181,62.178 134.708,62.091 134.307,61.917C133.905,61.743 133.576,61.512 133.318,61.224C133.061,60.937 132.872,60.6 132.75,60.213C132.629,59.828 132.569,59.422 132.569,58.999L132.569,46.006L134.886,46.006L134.886,58.862C134.886,59.301 134.977,59.634 135.158,59.862C135.34,60.088 135.666,60.203 136.135,60.203L137.157,60.203L137.157,62.178L135.726,62.178Z" style="fill:rgb(65,64,66);fill-rule:nonzero;"/>
        <path d="M142.222,62.178C141.677,62.178 141.203,62.091 140.802,61.917C140.401,61.743 140.071,61.512 139.814,61.224C139.557,60.937 139.367,60.6 139.246,60.213C139.125,59.828 139.064,59.422 139.064,58.999L139.064,46.006L141.381,46.006L141.381,58.862C141.381,59.301 141.472,59.634 141.654,59.862C141.835,60.088 142.161,60.203 142.63,60.203L143.653,60.203L143.653,62.178L142.222,62.178Z" style="fill:rgb(65,64,66);fill-rule:nonzero;"/>
        <path d="M156.44,62.178L154.464,62.178L151.762,54.138L149.082,62.178L147.083,62.178L143.517,50.663L145.97,50.663L148.195,58.771L150.875,50.663L152.67,50.663L155.328,58.771L157.553,50.663L160.029,50.663L156.44,62.178Z" style="fill:rgb(65,64,66);fill-rule:nonzero;"/>
        <path d="M167.819,53.366C167.562,53.108 167.308,52.916 167.059,52.787C166.809,52.658 166.487,52.593 166.093,52.593C165.457,52.593 164.916,52.825 164.469,53.286C164.022,53.749 163.799,54.38 163.799,55.182L163.799,62.178L161.482,62.178L161.482,50.663L163.753,50.663L163.753,51.912C164.056,51.503 164.48,51.17 165.025,50.913C165.571,50.655 166.168,50.527 166.82,50.527C167.38,50.527 167.879,50.61 168.319,50.776C168.758,50.943 169.174,51.223 169.568,51.617L167.819,53.366Z" style="fill:rgb(65,64,66);fill-rule:nonzero;"/>
        <path d="M170.886,62.178L170.886,50.663L173.202,50.663L173.202,62.178L170.886,62.178ZM170.817,48.391L170.817,45.938L173.271,45.938L173.271,48.391L170.817,48.391Z" style="fill:rgb(65,64,66);fill-rule:nonzero;"/>
        <path d="M179.744,62.178C179.198,62.178 178.729,62.087 178.335,61.906C177.941,61.724 177.616,61.486 177.359,61.19C177.101,60.895 176.908,60.554 176.779,60.168C176.651,59.782 176.586,59.384 176.586,58.976L176.586,52.639L175.269,52.639L175.269,50.867L176.586,50.867L176.586,47.37L178.903,47.37L178.903,50.867L181.129,50.867L181.129,52.639L178.903,52.639L178.903,58.862C178.903,59.287 179.005,59.616 179.21,59.85C179.414,60.085 179.736,60.203 180.175,60.203L181.129,60.203L181.129,62.178L179.744,62.178Z" style="fill:rgb(65,64,66);fill-rule:nonzero;"/>
        <path d="M190.351,55.478C190.335,55.129 190.309,54.846 190.271,54.626C190.233,54.407 190.153,54.168 190.033,53.911C189.851,53.472 189.563,53.12 189.169,52.855C188.775,52.589 188.306,52.457 187.761,52.457C187.216,52.457 186.743,52.589 186.342,52.855C185.94,53.12 185.649,53.472 185.467,53.911C185.346,54.168 185.27,54.407 185.24,54.626C185.209,54.846 185.187,55.129 185.172,55.478L190.351,55.478ZM185.172,57.09C185.172,58.097 185.422,58.89 185.921,59.469C186.421,60.049 187.148,60.338 188.102,60.338C188.753,60.338 189.279,60.244 189.681,60.054C190.082,59.866 190.487,59.566 190.896,59.158L192.372,60.541C192.069,60.84 191.77,61.098 191.475,61.316C191.18,61.533 190.861,61.715 190.521,61.866C190.18,62.015 189.809,62.127 189.408,62.203C189.006,62.277 188.556,62.315 188.057,62.315C187.33,62.315 186.652,62.212 186.023,62.008C185.394,61.803 184.847,61.47 184.38,61.008C183.914,60.546 183.543,59.937 183.268,59.18C182.993,58.423 182.855,57.499 182.855,56.409C182.855,54.532 183.302,53.082 184.195,52.06C185.088,51.038 186.277,50.527 187.761,50.527C188.533,50.527 189.222,50.663 189.828,50.935C190.434,51.207 190.944,51.586 191.361,52.071C191.777,52.556 192.096,53.138 192.315,53.82C192.535,54.501 192.645,55.25 192.645,56.069L192.645,57.09L185.172,57.09Z" style="fill:rgb(65,64,66);fill-rule:nonzero;"/>
        <path d="M201.457,53.366C201.199,53.108 200.946,52.916 200.696,52.787C200.446,52.658 200.125,52.593 199.731,52.593C199.095,52.593 198.553,52.825 198.107,53.286C197.66,53.749 197.437,54.38 197.437,55.182L197.437,62.178L195.12,62.178L195.12,50.663L197.391,50.663L197.391,51.912C197.694,51.503 198.118,51.17 198.663,50.913C199.208,50.655 199.806,50.527 200.458,50.527C201.018,50.527 201.517,50.61 201.957,50.776C202.396,50.943 202.812,51.223 203.206,51.617L201.457,53.366Z" style="fill:rgb(65,64,66);fill-rule:nonzero;"/>
        <path d="M212.813,58.658C212.813,59.263 212.691,59.793 212.45,60.248C212.207,60.702 211.874,61.084 211.45,61.395C211.026,61.706 210.52,61.936 209.929,62.087C209.338,62.239 208.702,62.315 208.021,62.315C207.081,62.315 206.211,62.205 205.409,61.985C204.606,61.766 203.864,61.323 203.183,60.657L204.705,59.134C205.174,59.62 205.7,59.941 206.283,60.1C206.866,60.259 207.445,60.338 208.021,60.338C208.732,60.338 209.33,60.21 209.815,59.953C210.3,59.695 210.542,59.293 210.542,58.749C210.542,58.355 210.425,58.041 210.189,57.806C209.955,57.572 209.558,57.431 208.997,57.386L207.157,57.227C206.067,57.136 205.227,56.837 204.637,56.33C204.046,55.823 203.75,55.062 203.75,54.047C203.75,53.487 203.864,52.987 204.091,52.548C204.318,52.109 204.629,51.742 205.022,51.447C205.416,51.151 205.875,50.924 206.397,50.765C206.919,50.606 207.483,50.527 208.089,50.527C208.952,50.527 209.747,50.625 210.474,50.822C211.2,51.019 211.829,51.352 212.359,51.821L210.905,53.297C210.542,52.995 210.114,52.779 209.622,52.65C209.13,52.522 208.611,52.457 208.066,52.457C207.37,52.457 206.847,52.593 206.499,52.866C206.15,53.138 205.977,53.495 205.977,53.933C205.977,54.282 206.086,54.574 206.306,54.808C206.525,55.042 206.945,55.19 207.566,55.25L209.384,55.41C210.474,55.5 211.317,55.807 211.916,56.33C212.514,56.852 212.813,57.628 212.813,58.658Z" style="fill:rgb(65,64,66);fill-rule:nonzero;"/>
        <path d="M70.382,78.998C71.544,78.998 72.481,79.934 72.481,81.096C72.481,82.258 71.544,83.195 70.382,83.195C69.221,83.195 68.284,82.258 68.284,81.096C68.284,79.934 69.221,78.998 70.382,78.998Z" style="fill:rgb(245,130,31);fill-rule:nonzero;"/>
        <path d="M82.715,76.899L83.889,76.899L86.948,83.942L90.006,76.899L91.121,76.899L91.121,85.293L90.338,85.293L90.338,77.895L90.315,77.895L87.114,85.293L86.77,85.293L83.521,77.895L83.498,77.895L83.498,85.293L82.715,85.293L82.715,76.899Z" style="fill:rgb(88,89,91);fill-rule:nonzero;"/>
        <path d="M95.948,76.899L101.083,76.899L101.083,77.611L96.731,77.611L96.731,80.598L100.81,80.598L100.81,81.31L96.731,81.31L96.731,84.582L101.272,84.582L101.272,85.293L95.948,85.293L95.948,76.899Z" style="fill:rgb(88,89,91);fill-rule:nonzero;"/>
        <path d="M105.506,76.899L106.68,76.899L109.739,83.942L112.798,76.899L113.913,76.899L113.913,85.293L113.13,85.293L113.13,77.895L113.106,77.895L109.905,85.293L109.562,85.293L106.313,77.895L106.289,77.895L106.289,85.293L105.506,85.293L105.506,76.899Z" style="fill:rgb(88,89,91);fill-rule:nonzero;"/>
        <path d="M119.522,84.582L121.313,84.582C123.15,84.582 123.447,83.562 123.447,82.969C123.447,81.725 122.427,81.239 121.431,81.239L119.522,81.239L119.522,84.582ZM119.522,80.527L121.146,80.527C122.771,80.527 123.079,79.638 123.079,79.117C123.079,77.943 122.25,77.611 121.253,77.611L119.522,77.611L119.522,80.527ZM118.74,76.899L121.159,76.899C122.439,76.899 123.862,77.219 123.862,79.117C123.862,79.97 123.352,80.658 122.356,80.859L122.356,80.883C123.458,80.966 124.229,81.772 124.229,82.946C124.229,84.878 122.558,85.293 121.419,85.293L118.74,85.293L118.74,76.899Z" style="fill:rgb(88,89,91);fill-rule:nonzero;"/>
        <path d="M128.819,76.899L133.953,76.899L133.953,77.611L129.602,77.611L129.602,80.598L133.68,80.598L133.68,81.31L129.602,81.31L129.602,84.582L134.143,84.582L134.143,85.293L128.819,85.293L128.819,76.899Z" style="fill:rgb(88,89,91);fill-rule:nonzero;"/>
        <path d="M139.242,80.598L140.902,80.598C142.55,80.598 142.87,79.685 142.87,79.105C142.87,78.524 142.55,77.611 140.902,77.611L139.242,77.611L139.242,80.598ZM138.459,76.899L140.665,76.899C141.329,76.899 143.652,76.899 143.652,79.105C143.652,80.706 142.432,81.144 141.507,81.262L143.949,85.293L143.06,85.293L140.7,81.31L139.242,81.31L139.242,85.293L138.459,85.293L138.459,76.899Z" style="fill:rgb(88,89,91);fill-rule:nonzero;"/>
        <path d="M155.605,78.998C156.768,78.998 157.704,79.934 157.704,81.096C157.704,82.258 156.768,83.195 155.605,83.195C154.444,83.195 153.507,82.258 153.507,81.096C153.507,79.934 154.444,78.998 155.605,78.998Z" style="fill:rgb(245,130,31);fill-rule:nonzero;"/>
        <path d="M95.004,32.353C95.004,48.755 73.759,62.053 47.553,62.053C21.347,62.053 0.103,48.755 0.103,32.353C0.103,15.954 21.347,2.653 47.553,2.653C73.759,2.653 95.004,15.954 95.004,32.353Z" style="fill:rgb(245,130,31);fill-rule:nonzero;"/>
        <path d="M75.998,13.41C73.849,18.201 71.74,23.062 69.341,27.734C68.292,29.774 66.918,31.532 65.261,33.109C63.422,34.863 60.166,31.176 58.622,29.829C53.396,25.265 48.465,18.347 44.464,12.672C42.647,16.676 40.854,20.687 39.064,24.683C39.147,25.074 40.34,26.47 40.505,26.669C46.397,33.823 51,41.923 57.59,48.506C59.241,50.153 61.086,51.563 63.015,52.861C65.103,54.265 66.732,51.333 67.939,49.696C71.108,45.4 72.998,39.622 75.204,34.811C78.516,27.578 81.754,20.23 85.074,12.896C83.012,11.298 80.71,9.825 78.189,8.506C77.459,10.147 76.73,11.781 75.998,13.41Z" style="fill:white;fill-rule:nonzero;"/>
        <path d="M0.534,28.481C6.426,35.633 11.028,43.735 17.621,50.318C19.27,51.963 21.118,53.376 23.046,54.673C25.133,56.076 26.762,53.146 27.97,51.507C31.137,47.213 33.03,41.432 35.234,36.627C40.553,25.013 45.675,13.105 51.262,1.445C49.649,1.346 48.016,1.293 46.362,1.293C44.955,1.293 43.566,1.338 42.189,1.41C40.124,6.036 38.082,10.651 36.028,15.223C33.879,20.013 31.771,24.876 29.373,29.543C28.323,31.585 26.949,33.342 25.292,34.92C23.45,36.673 20.196,32.989 18.652,31.641C13.248,26.922 9.312,20.84 5.164,14.987C3.234,16.77 1.603,18.69 0.29,20.71C0.051,23.385 -0.322,27.443 0.534,28.481Z" style="fill:white;fill-rule:nonzero;"/>
        <path d="M0.218,71.104L228.83,71.104" style="fill:none;stroke:rgb(245,130,31);stroke-width:0.5px;"/>
        <path d="M0.218,90.75L228.83,90.75" style="fill:none;stroke:rgb(245,130,31);stroke-width:0.5px;"/>
        <g transform="matrix(1,0,0,1,0.69101,-0.709)">
            <path d="M281.83,63.131L279.512,69.722L284.083,69.722L281.83,63.131ZM285.732,74.628L284.71,71.643L278.844,71.643L277.825,74.628L275.42,74.628L280.87,59.768L282.684,59.768L288.133,74.628L285.732,74.628Z" style="fill:rgb(35,31,32);fill-rule:nonzero;"/>
        </g>
        <g transform="matrix(1,0,0,1,0.69101,-0.709)">
            <path d="M295.024,61.79L291.767,61.79L291.767,66.74L295.024,66.74C296.586,66.74 297.65,65.838 297.65,64.279C297.65,62.713 296.586,61.79 295.024,61.79ZM295.147,68.783L291.767,68.783L291.767,74.628L289.512,74.628L289.512,59.768L295.147,59.768C298.048,59.768 299.908,61.688 299.908,64.279C299.908,66.865 298.048,68.783 295.147,68.783Z" style="fill:rgb(35,31,32);fill-rule:nonzero;"/>
        </g>
        <g transform="matrix(1,0,0,1,0.69101,-0.709)">
            <path d="M307.419,61.79L304.166,61.79L304.166,66.74L307.419,66.74C308.987,66.74 310.049,65.838 310.049,64.279C310.049,62.713 308.987,61.79 307.419,61.79ZM307.546,68.783L304.166,68.783L304.166,74.628L301.909,74.628L301.909,59.768L307.546,59.768C310.447,59.768 312.305,61.688 312.305,64.279C312.305,66.865 310.447,68.783 307.546,68.783Z" style="fill:rgb(35,31,32);fill-rule:nonzero;"/>
        </g>
        <g transform="matrix(1,0,0,1,0.69101,-0.709)">
            <path d="M319.903,61.79L316.563,61.79L316.563,66.447L319.903,66.447C321.403,66.447 322.43,65.593 322.43,64.131C322.43,62.671 321.403,61.79 319.903,61.79ZM322.513,74.628L319.381,68.367L316.563,68.367L316.563,74.628L314.308,74.628L314.308,59.768L320.07,59.768C322.888,59.768 324.683,61.584 324.683,64.11C324.683,66.238 323.387,67.594 321.719,68.056L325.141,74.628L322.513,74.628Z" style="fill:rgb(35,31,32);fill-rule:nonzero;"/>
        </g>
        <g transform="matrix(1,0,0,1,0.69101,-0.709)">
            <path d="M334.264,62.586C333.741,62.021 332.929,61.671 332.05,61.671C331.174,61.671 330.359,62.021 329.839,62.586C329.108,63.379 328.962,64.216 328.962,67.201C328.962,70.183 329.108,71.018 329.839,71.809C330.359,72.377 331.174,72.729 332.05,72.729C332.929,72.729 333.741,72.377 334.264,71.809C334.993,71.018 335.141,70.183 335.141,67.201C335.141,64.216 334.993,63.379 334.264,62.586ZM335.976,73.169C334.956,74.191 333.639,74.753 332.05,74.753C330.466,74.753 329.17,74.191 328.146,73.169C326.686,71.707 326.707,70.056 326.707,67.201C326.707,64.339 326.686,62.692 328.146,61.23C329.17,60.206 330.466,59.643 332.05,59.643C333.639,59.643 334.956,60.206 335.976,61.23C337.434,62.692 337.394,64.339 337.394,67.201C337.394,70.056 337.434,71.707 335.976,73.169Z" style="fill:rgb(35,31,32);fill-rule:nonzero;"/>
        </g>
        <g transform="matrix(1,0,0,1,0.69101,-0.709)">
            <path d="M344.595,74.628L342.84,74.628L337.958,59.768L340.293,59.768L343.716,70.582L347.14,59.768L349.52,59.768L344.595,74.628Z" style="fill:rgb(35,31,32);fill-rule:nonzero;"/>
        </g>
        <g transform="matrix(1,0,0,1,0.69101,-0.709)">
            <path d="M350.836,74.628L350.836,59.768L360.334,59.768L360.334,61.79L353.092,61.79L353.092,66.136L359.268,66.136L359.268,68.14L353.092,68.14L353.092,72.604L360.334,72.604L360.334,74.628L350.836,74.628Z" style="fill:rgb(35,31,32);fill-rule:nonzero;"/>
        </g>
        <g transform="matrix(1,0,0,1,0.69101,-0.709)">
            <path d="M370.203,62.796C369.581,62.104 368.746,61.79 367.682,61.79L364.945,61.79L364.945,72.604L367.682,72.604C368.746,72.604 369.581,72.292 370.203,71.601C370.978,70.747 370.999,69.139 370.999,67.099C370.999,65.049 370.978,63.65 370.203,62.796ZM371.75,73.229C370.812,74.168 369.456,74.628 367.908,74.628L362.692,74.628L362.692,59.768L367.908,59.768C369.456,59.768 370.812,60.226 371.75,61.166C373.356,62.775 373.252,64.947 373.252,67.099C373.252,69.241 373.356,71.624 371.75,73.229Z" style="fill:rgb(35,31,32);fill-rule:nonzero;"/>
        </g>
        <g transform="matrix(1,0,0,1,0.69101,-0.709)">
            <path d="M383.793,74.753C382.25,74.753 380.914,74.191 379.893,73.169C378.429,71.707 378.45,70.056 378.45,67.201C378.45,64.339 378.429,62.688 379.893,61.23C380.914,60.206 382.25,59.643 383.793,59.643C386.528,59.643 388.573,61.251 389.093,64.216L386.798,64.216C386.444,62.713 385.443,61.671 383.793,61.671C382.917,61.671 382.125,62.002 381.603,62.563C380.872,63.358 380.703,64.216 380.703,67.201C380.703,70.183 380.872,71.037 381.603,71.832C382.125,72.394 382.917,72.729 383.793,72.729C385.443,72.729 386.465,71.688 386.819,70.183L389.093,70.183C388.594,73.146 386.486,74.753 383.793,74.753Z" style="fill:rgb(35,31,32);fill-rule:nonzero;"/>
        </g>
        <g transform="matrix(1,0,0,1,0.69101,-0.709)">
            <path d="M398.383,62.586C397.862,62.021 397.048,61.671 396.171,61.671C395.293,61.671 394.479,62.021 393.958,62.586C393.229,63.379 393.081,64.216 393.081,67.201C393.081,70.183 393.229,71.018 393.958,71.809C394.479,72.377 395.293,72.729 396.171,72.729C397.048,72.729 397.862,72.377 398.383,71.809C399.114,71.018 399.26,70.183 399.26,67.201C399.26,64.216 399.114,63.379 398.383,62.586ZM400.095,73.169C399.072,74.191 397.758,74.753 396.171,74.753C394.587,74.753 393.29,74.191 392.267,73.169C390.807,71.707 390.828,70.056 390.828,67.201C390.828,64.339 390.807,62.692 392.267,61.23C393.29,60.206 394.587,59.643 396.171,59.643C397.758,59.643 399.072,60.206 400.095,61.23C401.555,62.692 401.515,64.339 401.515,67.201C401.515,70.056 401.555,71.707 400.095,73.169Z" style="fill:rgb(35,31,32);fill-rule:nonzero;"/>
        </g>
        <g transform="matrix(1,0,0,1,0.69101,-0.709)">
            <path d="M411.638,62.796C411.011,62.104 410.176,61.79 409.112,61.79L406.375,61.79L406.375,72.604L409.112,72.604C410.176,72.604 411.011,72.292 411.638,71.601C412.411,70.747 412.434,69.139 412.434,67.099C412.434,65.049 412.411,63.65 411.638,62.796ZM413.183,73.229C412.242,74.168 410.886,74.628 409.345,74.628L404.126,74.628L404.126,59.768L409.345,59.768C410.886,59.768 412.242,60.226 413.183,61.166C414.789,62.775 414.687,64.947 414.687,67.099C414.687,69.241 414.789,71.624 413.183,73.229Z" style="fill:rgb(35,31,32);fill-rule:nonzero;"/>
        </g>
        <g transform="matrix(1,0,0,1,0.69101,-0.709)">
            <path d="M417.294,74.628L417.294,59.768L426.79,59.768L426.79,61.79L419.547,61.79L419.547,66.136L425.726,66.136L425.726,68.14L419.547,68.14L419.547,72.604L426.79,72.604L426.79,74.628L417.294,74.628Z" style="fill:rgb(35,31,32);fill-rule:nonzero;"/>
        </g>
        <g transform="matrix(1,0,0,1,0.69101,-0.709)">
            <path d="M279.325,82.157L279.325,90.501L277.863,90.501L277.863,82.157L275.199,82.157L275.199,80.845L281.982,80.845L281.982,82.157L279.325,82.157Z" style="fill:rgb(35,31,32);fill-rule:nonzero;"/>
        </g>
        <g transform="matrix(1,0,0,1,0.69101,-0.709)">
            <path d="M287.15,82.157L284.982,82.157L284.982,85.185L287.15,85.185C288.131,85.185 288.798,84.626 288.798,83.675C288.798,82.728 288.131,82.157 287.15,82.157ZM288.85,90.501L286.811,86.432L284.982,86.432L284.982,90.501L283.515,90.501L283.515,80.845L287.259,80.845C289.096,80.845 290.26,82.023 290.26,83.665C290.26,85.047 289.42,85.934 288.337,86.226L290.56,90.501L288.85,90.501Z" style="fill:rgb(35,31,32);fill-rule:nonzero;"/>
        </g>
        <g transform="matrix(1,0,0,1,0.69101,-0.709)">
            <path d="M295.282,83.031L293.777,87.317L296.742,87.317L295.282,83.031ZM297.821,90.505L297.155,88.562L293.342,88.562L292.679,90.505L291.115,90.505L294.66,80.845L295.836,80.845L299.381,90.505L297.821,90.505Z" style="fill:rgb(35,31,32);fill-rule:nonzero;"/>
        </g>
        <g transform="matrix(1,0,0,1,0.69101,-0.709)">
            <path d="M305.499,82.811C305.089,82.361 304.549,82.157 303.856,82.157L302.084,82.157L302.084,89.187L303.856,89.187C304.549,89.187 305.089,88.985 305.499,88.535C306.003,87.981 306.013,86.934 306.013,85.603C306.013,84.277 306.003,83.369 305.499,82.811ZM306.505,89.595C305.895,90.206 305.014,90.501 304.006,90.501L300.616,90.501L300.616,80.845L304.006,80.845C305.014,80.845 305.895,81.143 306.505,81.753C307.548,82.796 307.481,84.208 307.481,85.603C307.481,87.002 307.548,88.55 306.505,89.595Z" style="fill:rgb(35,31,32);fill-rule:nonzero;"/>
        </g>
        <g transform="matrix(1,0,0,1,0.69101,-0.709)">
            <rect x="309.516" y="80.845" width="1.468" height="9.656" style="fill:rgb(35,31,32);fill-rule:nonzero;"/>
        </g>
        <g transform="matrix(1,0,0,1,0.69101,-0.709)">
            <path d="M319.302,90.501L314.837,83.702L314.837,90.501L313.371,90.501L313.371,80.845L314.712,80.845L319.179,87.627L319.179,80.845L320.641,80.845L320.641,90.501L319.302,90.501Z" style="fill:rgb(35,31,32);fill-rule:nonzero;"/>
        </g>
        <g transform="matrix(1,0,0,1,0.69101,-0.709)">
            <path d="M328.812,89.489C328.079,90.26 327.167,90.584 326.151,90.584C325.151,90.584 324.281,90.22 323.616,89.552C322.665,88.604 322.682,87.534 322.682,85.67C322.682,83.81 322.665,82.742 323.616,81.792C324.281,81.124 325.122,80.759 326.151,80.759C328.2,80.759 329.399,82.103 329.67,83.76L328.186,83.76C327.942,82.7 327.238,82.078 326.151,82.078C325.588,82.078 325.066,82.305 324.724,82.675C324.254,83.189 324.146,83.729 324.146,85.67C324.146,87.608 324.254,88.173 324.724,88.683C325.066,89.054 325.588,89.266 326.151,89.266C326.792,89.266 327.344,89.027 327.725,88.589C328.079,88.186 328.214,87.696 328.214,87.067L328.214,86.526L326.151,86.526L326.151,85.276L329.685,85.276L329.685,86.755C329.685,88.002 329.456,88.808 328.812,89.489Z" style="fill:rgb(35,31,32);fill-rule:nonzero;"/>
        </g>
        <g transform="matrix(1,0,0,1,0.69101,-0.709)">
            <path d="M334.622,90.584C333.171,90.584 332.125,90.247 331.203,89.308L332.178,88.346C332.883,89.054 333.66,89.266 334.647,89.266C335.907,89.266 336.64,88.727 336.64,87.788C336.64,87.367 336.52,87.015 336.261,86.786C336.02,86.555 335.776,86.457 335.206,86.378L334.06,86.211C333.275,86.105 332.652,85.836 332.231,85.443C331.757,84.993 331.528,84.383 331.528,83.596C331.528,81.917 332.748,80.759 334.755,80.759C336.03,80.759 336.928,81.088 337.758,81.861L336.821,82.786C336.224,82.211 335.528,82.038 334.716,82.038C333.577,82.038 332.95,82.688 332.95,83.541C332.95,83.894 333.061,84.208 333.319,84.437C333.563,84.654 333.954,84.816 334.401,84.887L335.501,85.047C336.395,85.185 336.902,85.401 337.305,85.766C337.837,86.226 338.098,86.921 338.098,87.748C338.098,89.524 336.64,90.584 334.622,90.584Z" style="fill:rgb(35,31,32);fill-rule:nonzero;"/>
        </g>
        <g transform="matrix(1,0,0,1,0.69101,-0.709)">
            <path d="M343.198,82.157L343.198,90.501L341.732,90.501L341.732,82.157L339.07,82.157L339.07,80.845L345.857,80.845L345.857,82.157L343.198,82.157Z" style="fill:rgb(35,31,32);fill-rule:nonzero;"/>
        </g>
        <g transform="matrix(1,0,0,1,0.69101,-0.709)">
            <path d="M349.587,83.031L348.079,87.317L351.055,87.317L349.587,83.031ZM352.123,90.505L351.461,88.562L347.646,88.562L346.978,90.505L345.422,90.505L348.964,80.845L350.143,80.845L353.688,90.505L352.123,90.505Z" style="fill:rgb(35,31,32);fill-rule:nonzero;"/>
        </g>
        <g transform="matrix(1,0,0,1,0.69101,-0.709)">
            <path d="M360.849,90.501L356.384,83.702L356.384,90.501L354.918,90.501L354.918,80.845L356.263,80.845L360.724,87.627L360.724,80.845L362.196,80.845L362.196,90.501L360.849,90.501Z" style="fill:rgb(35,31,32);fill-rule:nonzero;"/>
        </g>
        <g transform="matrix(1,0,0,1,0.69101,-0.709)">
            <path d="M369.468,82.811C369.058,82.361 368.517,82.157 367.827,82.157L366.047,82.157L366.047,89.187L367.827,89.187C368.517,89.187 369.058,88.985 369.468,88.535C369.968,87.981 369.982,86.934 369.982,85.603C369.982,84.277 369.968,83.369 369.468,82.811ZM370.474,89.595C369.857,90.206 368.977,90.501 367.973,90.501L364.581,90.501L364.581,80.845L367.973,80.845C368.977,80.845 369.857,81.143 370.474,81.753C371.517,82.796 371.446,84.208 371.446,85.603C371.446,87.002 371.517,88.55 370.474,89.595Z" style="fill:rgb(35,31,32);fill-rule:nonzero;"/>
        </g>
        <g transform="matrix(1,0,0,1,0.69101,-0.709)">
            <path d="M376.361,83.031L374.854,87.317L377.825,87.317L376.361,83.031ZM378.896,90.505L378.235,88.562L374.418,88.562L373.756,90.505L372.192,90.505L375.732,80.845L376.917,80.845L380.461,90.505L378.896,90.505Z" style="fill:rgb(35,31,32);fill-rule:nonzero;"/>
        </g>
        <g transform="matrix(1,0,0,1,0.69101,-0.709)">
            <path d="M385.328,82.157L383.16,82.157L383.16,85.185L385.328,85.185C386.307,85.185 386.967,84.626 386.967,83.675C386.967,82.728 386.307,82.157 385.328,82.157ZM387.027,90.501L384.989,86.432L383.16,86.432L383.16,90.501L381.694,90.501L381.694,80.845L385.44,80.845C387.271,80.845 388.438,82.023 388.438,83.665C388.438,85.047 387.596,85.934 386.511,86.226L388.737,90.501L387.027,90.501Z" style="fill:rgb(35,31,32);fill-rule:nonzero;"/>
        </g>
        <g transform="matrix(1,0,0,1,0.69101,-0.709)">
            <path d="M395.333,82.811C394.924,82.361 394.381,82.157 393.687,82.157L391.911,82.157L391.911,89.187L393.687,89.187C394.381,89.187 394.924,88.985 395.333,88.535C395.83,87.981 395.847,86.934 395.847,85.603C395.847,84.277 395.83,83.369 395.333,82.811ZM396.334,89.595C395.724,90.206 394.843,90.501 393.839,90.501L390.445,90.501L390.445,80.845L393.839,80.845C394.843,80.845 395.724,81.143 396.334,81.753C397.379,82.796 397.313,84.208 397.313,85.603C397.313,87.002 397.379,88.55 396.334,89.595Z" style="fill:rgb(35,31,32);fill-rule:nonzero;"/>
        </g>
        <g transform="matrix(1,0,0,1,0.69101,-0.709)">
            <path d="M401.913,90.584C400.459,90.584 399.416,90.247 398.496,89.308L399.466,88.346C400.174,89.054 400.951,89.266 401.938,89.266C403.202,89.266 403.933,88.727 403.933,87.788C403.933,87.367 403.812,87.015 403.554,86.786C403.313,86.555 403.066,86.457 402.494,86.378L401.357,86.211C400.568,86.105 399.943,85.836 399.524,85.443C399.052,84.993 398.82,84.383 398.82,83.596C398.82,81.917 400.037,80.759 402.046,80.759C403.325,80.759 404.218,81.088 405.047,81.861L404.11,82.786C403.512,82.211 402.817,82.038 402.011,82.038C400.87,82.038 400.243,82.688 400.243,83.541C400.243,83.894 400.353,84.208 400.609,84.437C400.855,84.654 401.247,84.816 401.694,84.887L402.792,85.047C403.687,85.185 404.191,85.401 404.602,85.766C405.128,86.226 405.384,86.921 405.384,87.748C405.384,89.524 403.933,90.584 401.913,90.584Z" style="fill:rgb(35,31,32);fill-rule:nonzero;"/>
        </g>
        <g transform="matrix(1,0,0,1,0.69101,-0.709)">
            <rect x="407.013" y="88.848" width="1.66" height="1.657" style="fill:rgb(35,31,32);fill-rule:nonzero;"/>
        </g>
        <g transform="matrix(1,0,0,1,0.69101,-0.709)">
            <path d="M351.925,42.61C385.353,42.61 416.43,49.289 442.309,60.741L351.925,0.709L261.536,60.741C287.415,49.289 318.489,42.61 351.925,42.61Z" style="fill:rgb(35,31,32);fill-rule:nonzero;"/>
        </g>
        <g transform="matrix(1,0,0,1,0.69101,-0.709)">
            <path d="M358.639,12.151C357.234,9.033 355.512,6.25 353.612,3.891C354.92,5.78 356.12,7.884 357.146,10.167C362.481,22.002 361.361,34.009 354.528,37.089C348.927,39.612 340.938,35.345 335.297,27.202C340.955,36.662 349.843,41.855 355.94,39.109C362.819,36.01 363.973,23.985 358.639,12.151Z" style="fill:white;fill-rule:nonzero;"/>
        </g>
        <g transform="matrix(1,0,0,1,0.69101,-0.709)">
            <path d="M343.285,16.356L343.385,16.356C343.302,17.336 343.267,18.294 343.229,19.25C343.5,19.25 344.401,19.231 345.299,19.191C345.28,19.329 345.28,19.467 345.28,19.606C345.28,19.743 345.28,19.876 345.299,20.015C344.616,19.976 343.695,19.976 343.229,19.976C343.188,20.17 343.09,23.243 343.09,24.943C343.09,26.412 343.129,27.899 344.674,27.899C344.889,27.899 345.299,27.841 345.553,27.761L345.553,28.233C345.105,28.39 344.537,28.525 344.047,28.525C342.425,28.525 341.64,27.604 341.64,26.078C341.64,24.653 341.757,22.891 341.778,19.976C341.39,19.976 340.957,19.976 340.447,20.015C340.468,19.859 340.486,19.72 340.486,19.565C340.486,19.428 340.468,19.311 340.447,19.173C341.036,19.213 341.465,19.231 341.74,19.231C341.719,18.724 341.701,17.884 341.659,17.041L343.285,16.356Z" style="fill:white;fill-rule:nonzero;"/>
        </g>
        <g transform="matrix(1,0,0,1,0.69101,-0.709)">
            <path d="M346.944,26.45C347.217,26.98 348.059,27.801 349.151,27.801C350.13,27.801 351.051,27.192 351.051,26.039C351.051,23.618 346.436,25.043 346.436,21.736C346.436,20.036 347.608,18.781 349.683,18.781C350.641,18.781 351.247,19.133 351.853,19.329C351.638,19.703 351.424,20.425 351.382,20.718L351.149,20.718C350.953,20.093 350.305,19.508 349.427,19.508C348.664,19.508 347.763,19.995 347.763,21.151C347.763,23.692 352.379,22.127 352.379,25.433C352.379,26.919 351.03,28.525 348.862,28.525C347.667,28.525 346.884,28.193 346.336,27.877C346.492,27.547 346.709,26.839 346.709,26.45L346.944,26.45Z" style="fill:white;fill-rule:nonzero;"/>
        </g>
        <g transform="matrix(1,0,0,1,0.69101,-0.709)">
            <path d="M353.908,22.637C353.908,21.461 353.871,20.093 353.752,18.978C354.043,19.036 354.337,19.076 354.633,19.076C354.924,19.076 355.218,19.036 355.512,18.978C355.393,20.093 355.355,21.461 355.355,22.637L355.355,24.671C355.355,25.845 355.393,27.213 355.512,28.329C355.218,28.268 354.924,28.233 354.633,28.233C354.337,28.233 354.043,28.268 353.752,28.329C353.871,27.213 353.908,25.845 353.908,24.671L353.908,22.637ZM354.633,14.575C355.178,14.575 355.628,15.026 355.628,15.574C355.628,16.122 355.178,16.572 354.633,16.572C354.083,16.572 353.635,16.122 353.635,15.574C353.635,15.026 354.083,14.575 354.633,14.575Z" style="fill:white;fill-rule:nonzero;"/>
        </g>
        <g transform="matrix(1,0,0,1,0.69101,-0.709)">
            <path d="M428.98,60.718L428.98,58.723L428.239,58.723L428.239,58.456L430.026,58.456L430.026,58.723L429.28,58.723L429.28,60.718L428.98,60.718Z" style="fill:rgb(35,31,32);fill-rule:nonzero;"/>
        </g>
        <g transform="matrix(1,0,0,1,0.69101,-0.709)">
            <path d="M430.326,60.718L430.326,58.456L430.778,58.456L431.312,60.058C431.361,60.206 431.398,60.316 431.419,60.391C431.446,60.312 431.486,60.187 431.538,60.026L432.082,58.456L432.483,58.456L432.483,60.718L432.196,60.718L432.196,58.825L431.536,60.718L431.268,60.718L430.615,58.795L430.615,60.718L430.326,60.718Z" style="fill:rgb(35,31,32);fill-rule:nonzero;"/>
        </g>
        <g transform="matrix(1,0,0,1,0.69101,-0.709)">
            <path d="M413.542,90.584C411.573,90.584 410.078,89.243 410.078,87.25L410.078,80.845L411.546,80.845L411.546,87.18C411.546,88.469 412.332,89.27 413.542,89.27C414.747,89.27 415.549,88.469 415.549,87.18L415.549,80.845L417.009,80.845L417.009,87.25C417.009,89.243 415.505,90.584 413.542,90.584Z" style="fill:rgb(35,31,32);fill-rule:nonzero;"/>
        </g>
        <g transform="matrix(1,0,0,1,0.69101,-0.709)">
            <path d="M425.058,90.505L422.344,85.739L420.716,87.696L420.716,90.505L419.249,90.505L419.249,80.845L420.716,80.845L420.716,85.701L424.664,80.845L426.455,80.845L423.323,84.626L426.782,90.505L425.058,90.505Z" style="fill:rgb(35,31,32);fill-rule:nonzero;"/>
        </g>
    </g>
</svg>
