<svg xmlns="http://www.w3.org/2000/svg" fill="#555" fill-rule="evenodd" stroke-linejoin="round" stroke-miterlimit="1.41" clip-rule="evenodd" viewBox="0 0 64 64">
    <path fill-rule="nonzero" d="M6.86 21.66c-1.42.03-2.84.17-4.22.48 0 0-1.18 2.06-1.8 4.19-4.89 16.63 12.43 37.55 29.92 33.41 7.86-13.85-3.32-36.3-21.62-37.98-.75-.07-1.51-.1-2.28-.1zm31.2 38.5c.82-.05 5.35-.38 8.61-1.79 13.41-5.79 21.9-23.52 14.7-36.21-1.5-.36-3.08-.5-4.64-.5a23 23 0 0 0-9.58 2.2c1.36 3.7 2.06 7.7 2.08 11.69a31.65 31.65 0 0 1-4.37 17.04 26.7 26.7 0 0 1-6.8 7.57zM44.3 27.2c-1.94-6.51-6.1-12.13-12.32-14.84l-.05.02a22.1 22.1 0 0 0-10.3 9.87c11.15 7.22 18.27 21.68 14.4 34.6 0 0 2.96-2.46 5.02-5.32 4.25-6.67 5.63-16.02 3.25-24.33z"/>
</svg>
