<svg viewBox="0 0 455 355" xmlns="http://www.w3.org/2000/svg" fill-rule="evenodd" clip-rule="evenodd" stroke-linecap="round" stroke-linejoin="round" stroke-miterlimit="1.414">
  <g transform="translate(0 -4.004)">
    <path fill="none" d="M0 4.004h454.725v354.329H0z"/>
    <clipPath id="a">
      <path d="M0 4.004h454.725v354.329H0z"/>
    </clipPath>
    <g clip-path="url(#a)">
      <path fill="#1f5999" fill-rule="nonzero" d="M0 4.008h454.725v354.33H0z"/>
      <path d="M159.796 256.317h2.983v18.054h9.346v2.708h-12.329v-20.762zM179.317 256.317h2.983v20.762h-2.983zM207.996 256.317h2.77v20.762h-2.983v-16.154l-6.383 8.025h-.55l-6.462-8.025v16.154h-2.984v-20.762h2.817l6.908 8.533 6.867-8.533zM219.834 256.317h2.983v20.762h-2.983zM230.213 256.317h17.354v2.65h-7.246v18.112h-2.983v-18.112h-7.125v-2.65zM254.934 256.317h11.783v2.65h-8.796v6.329h8.492v2.65h-8.492v6.483h9.07v2.65h-12.057v-20.762zM274.725 277.08v-20.763h7.013c2.829 0 5.066.425 6.716 1.27 1.646.85 2.959 2.097 3.93 3.747.975 1.645 1.458 3.441 1.458 5.387 0 1.388-.267 2.717-.804 3.988a10.045 10.045 0 0 1-2.292 3.35 10.03 10.03 0 0 1-3.53 2.245c-.782.309-1.503.517-2.157.621-.655.104-1.905.154-3.755.154h-6.579zm6.704-18.113h-3.72v15.462h3.812c1.488 0 2.646-.1 3.47-.304.826-.204 1.513-.462 2.063-.775a7.184 7.184 0 0 0 1.513-1.15c1.467-1.491 2.2-3.37 2.2-5.641 0-2.234-.754-4.055-2.263-5.463a7.101 7.101 0 0 0-1.912-1.296c-.72-.337-1.404-.562-2.05-.67-.642-.109-1.68-.163-3.113-.163zM261.759 195.658l-7.771-4.7c-4.88-2.962-8.346-5.887-10.409-8.775-2.062-2.887-3.091-6.208-3.091-9.962 0-5.638 1.95-10.213 5.854-13.733 3.904-3.517 8.975-5.275 15.217-5.275 5.966 0 11.437 1.683 16.416 5.05v11.625c-5.146-4.975-10.683-7.463-16.616-7.463-3.338 0-6.08.78-8.23 2.33-2.145 1.55-3.22 3.537-3.22 5.958 0 2.145.787 4.154 2.366 6.029 1.575 1.875 4.117 3.841 7.625 5.896l7.821 4.616c8.72 5.204 13.08 11.834 13.08 19.896 0 5.738-1.917 10.4-5.755 13.984-3.833 3.587-8.825 5.379-14.962 5.379-7.059 0-13.488-2.171-19.284-6.517v-12.988c5.521 7 11.913 10.5 19.171 10.5 3.204 0 5.87-.9 8-2.695 2.133-1.796 3.196-4.05 3.196-6.755 0-4.383-3.138-8.516-9.408-12.4zM357.542 178.658v-2.829c0-7.604 1.612-13.279 4.842-17.012 3.225-3.738 7.091-5.604 11.595-5.604 1.946 0 4.25.304 6.917.912v9.033c-1.504-.487-2.937-.733-4.304-.733-3.654 0-6.188.98-7.604 2.938-1.417 1.962-2.125 5.445-2.125 10.462v2.833h8.375v8.375h-8.375v38.642h-9.321v-38.642h-6.7v-8.375h6.7zM426.996 202.846h-33.092c.238 4.546 1.746 8.158 4.521 10.842 2.78 2.687 6.367 4.029 10.763 4.029 6.133 0 11.787-1.884 16.97-5.654v9.054c-2.866 1.9-5.703 3.254-8.516 4.07-2.813.813-6.108 1.222-9.896 1.222-5.179 0-9.37-1.075-12.579-3.23-3.204-2.154-5.767-5.05-7.696-8.687-1.925-3.642-2.887-7.85-2.887-12.638 0-7.175 2.029-13.008 6.087-17.504 4.058-4.492 9.33-6.737 15.808-6.737 6.242 0 11.221 2.179 14.938 6.537 3.717 4.358 5.58 10.2 5.58 17.521v1.175zm-32.883-5.55h23.667c-.238-3.72-1.346-6.588-3.321-8.6-1.98-2.017-4.638-3.02-7.975-3.02-3.342 0-6.075 1.003-8.205 3.02-2.129 2.012-3.52 4.88-4.166 8.6zM300.75 183.821s-11.208 0-11.208 11.208v19s0 11.209 11.208 11.209h30.63s11.208 0 11.208-11.209v-19s0-11.208-11.209-11.208H300.75z" fill="#fff" fill-rule="nonzero"/>
      <path fill="#fff" fill-rule="nonzero" d="M289.542 182.7h53.046v29.48h-53.046z"/>
      <path d="M335.7 172.73c0-10.505-8.708-19.022-19.45-19.022-10.737 0-19.446 8.517-19.446 19.021" fill="none" stroke="#fff" stroke-width="8.33334"/>
      <path fill="#fff" fill-rule="nonzero" d="M331.509 171.675h8.291v14.608h-8.291z"/>
      <path d="M315.934 200.713c2.97 0 5.379-2.4 5.379-5.355 0-2.958-2.409-5.358-5.38-5.358-2.97 0-5.379 2.4-5.379 5.358 0 2.955 2.409 5.355 5.38 5.355z" fill="#1f5999" fill-rule="nonzero"/>
      <path d="M313.746 200.204l-3.775 18.317h11.704l-3.625-19.567-4.304 1.25z" fill="#1f5999" fill-rule="nonzero"/>
      <path d="M141.47 81.763v50.754h-3.374l-38.3-44.359v44.359h-3.942V81.763h3.375l38.3 44.362V81.763h3.942zM182.404 126.788v2.983c-3.075 2.325-5.329 3.492-6.758 3.492-.82 0-1.392-.275-1.704-.825-.317-.55-.546-1.667-.692-3.35-3.517 2.783-7.008 4.175-10.479 4.175-2.52 0-4.654-.83-6.4-2.484-1.746-1.654-2.62-3.662-2.62-6.02 0-3.646 1.687-6.526 5.057-8.63 3.371-2.104 8.184-3.312 14.442-3.629v-4.283c0-4.588-2.475-6.88-7.42-6.88-3.15 0-6.559 1.413-10.217 4.242v-3.662c3.775-2.371 7.37-3.559 10.787-3.559 3.025 0 5.521.75 7.48 2.246 1.962 1.5 2.941 3.671 2.941 6.521v20.925c0 1.142.27 1.713.804 1.713.68 0 2.275-.992 4.78-2.975zm-9.154-.825v-10.488c-4.583-.17-8.383.642-11.4 2.425-3.017 1.788-4.525 4.07-4.525 6.842 0 1.554.63 2.866 1.888 3.937 1.262 1.071 2.837 1.604 4.729 1.604 3.054 0 6.158-1.437 9.308-4.32zM197.717 88.013v11.091h9.375v2.9h-9.375v19.93c0 3.204.258 5.312.783 6.32.521 1.009 1.921 1.509 4.196 1.509 1.746 0 3.783-.546 6.108-1.634v3.417c-2.35 1.146-4.654 1.717-6.912 1.717-2.204 0-4.05-.634-5.53-1.896-1.479-1.263-2.216-3.013-2.216-5.246v-24.117h-9.008v-2.9h9.008v-7.962l2.442-3.13h1.129zM221.513 81.763v6.104h-3.571v-6.104h3.57zm0 17.341v33.413h-3.571V99.104h3.57zM250.646 98.358c4.854 0 8.904 1.667 12.146 5.005 3.242 3.333 4.862 7.495 4.862 12.483 0 4.967-1.62 9.108-4.862 12.433-3.242 3.321-7.292 4.984-12.146 4.984-4.854 0-8.917-1.663-12.18-4.984-3.266-3.325-4.9-7.466-4.9-12.433 0-4.988 1.634-9.15 4.9-12.483 3.263-3.338 7.326-5.005 12.18-5.005zm0 31.405c3.763 0 6.904-1.321 9.425-3.963 2.525-2.642 3.788-5.958 3.788-9.954 0-3.967-1.271-7.292-3.805-9.97-2.537-2.68-5.67-4.018-9.408-4.018-3.783 0-6.946 1.325-9.48 3.98-2.537 2.654-3.803 5.991-3.803 10.008 0 3.996 1.266 7.312 3.804 9.954 2.533 2.642 5.696 3.963 9.479 3.963zM282.684 99.104v5.734h.145c2.788-4.321 6.459-6.48 11.017-6.48 3.78 0 6.796 1.213 9.05 3.642 2.254 2.43 3.38 5.792 3.38 10.088v20.429h-3.572v-19.08c0-7.72-3.029-11.579-9.083-11.579-4.433 0-8.08 2.384-10.937 7.159v23.5h-3.571V99.104h3.57zM346.034 126.788v2.983c-3.075 2.33-5.33 3.492-6.759 3.492-.82 0-1.391-.275-1.704-.825-.317-.55-.546-1.667-.692-3.35-3.516 2.783-7.008 4.175-10.475 4.175-2.525 0-4.658-.83-6.404-2.484-1.746-1.654-2.616-3.662-2.616-6.02 0-3.646 1.683-6.526 5.054-8.63 3.37-2.104 8.183-3.312 14.441-3.629v-4.283c0-4.588-2.47-6.88-7.416-6.88-3.154 0-6.559 1.413-10.221 4.242v-3.662c3.78-2.371 7.375-3.559 10.787-3.559 3.025 0 5.521.75 7.484 2.246 1.958 1.5 2.937 3.671 2.937 6.521v20.925c0 1.142.271 1.713.804 1.713.684 0 2.275-.992 4.78-2.975zm-9.155-.825v-10.488c-4.579-.17-8.379.642-11.4 2.425-3.016 1.788-4.525 4.07-4.525 6.842 0 1.554.63 2.866 1.892 3.937 1.258 1.071 2.833 1.609 4.725 1.609 3.054 0 6.158-1.442 9.308-4.325zM355.392 81.763h3.57v50.754h-3.57zM121.692 154.817h10.179l-28.875 71.729h-2.238l-23.391-58.083-23.588 58.083h-2.287l-28.734-71.73h10.275l19.725 49.234 19.8-49.233h9.796l19.83 49.233 19.508-49.233zM148.496 159.421c1.533 0 2.846.53 3.937 1.587 1.092 1.059 1.638 2.35 1.638 3.888 0 1.5-.546 2.796-1.638 3.887-1.091 1.088-2.404 1.634-3.937 1.634-1.433 0-2.692-.554-3.783-1.663-1.092-1.104-1.638-2.391-1.638-3.858 0-1.433.546-2.704 1.638-3.813 1.091-1.108 2.35-1.662 3.783-1.662zm-4.583 19.792h9.32v47.02h-9.32v-47.02zM172.108 154.817h9.317v71.417h-9.317zM200.3 154.817h9.321v71.417h-9.32z" fill="#fff" fill-rule="nonzero"/>
    </g>
  </g>
</svg>
