<svg xmlns="http://www.w3.org/2000/svg" fill-rule="evenodd" stroke-linejoin="round" stroke-miterlimit="1.41" clip-rule="evenodd" viewBox="0 0 512 512">
    <path d="M256 8C119 8 8 119 8 256s111 248 248 248 248-111 248-248S393 8 256 8zm142.36 175a158 158 0 0 0 36.84-37.98 147.25 147.25 0 0 1-42.3 11.37 73.25 73.25 0 0 0 32.3-40.48 144.6 144.6 0 0 1-46.63 17.74 73.28 73.28 0 0 0-53.67-23.2 73.42 73.42 0 0 0-73.45 73.46c0 5.69.68 11.37 1.82 16.83a208.8 208.8 0 0 1-151.46-76.87 72.9 72.9 0 0 0-10 37.07 73.4 73.4 0 0 0 32.74 61.18 73.98 73.98 0 0 1-33.2-9.33v.91a73.46 73.46 0 0 0 58.9 72.1 77.69 77.69 0 0 1-19.33 2.5 92.6 92.6 0 0 1-13.87-1.14 73.58 73.58 0 0 0 68.68 50.94 147.1 147.1 0 0 1-91.2 31.38c-6.13 0-11.82-.23-17.73-.91a207.58 207.58 0 0 0 112.8 32.98c135.08 0 208.99-111.9 208.99-209 0-3.18 0-6.37-.23-9.55z"/>
</svg>
