<svg xmlns="http://www.w3.org/2000/svg" width="16" height="16" viewBox="0 0 16 16">
   <g style="line-height:1.25;-inkscape-font-specification:Yesevca">
      <path d="M6.63 2.55q-.67.46-1.3 1.02-.65.56-1.16 1.23-.48.64-.8 1.38-.27.74-.27 1.54 0 .84.25 1.5.29.67.72 1.19.44.48.97.84.57.36 1.1.56 0 .47-.18.95-.15.46-.5.87-.34.41-.88.67-.54.25-1.25.25-.62 0-1.23-.23-.59-.25-1.05-.74-.46-.51-.77-1.28Q0 11.5 0 10.4q0-.94.26-2.04.28-1.13.94-2.3Q1.87 4.87 3 3.7q1.12-1.18 2.84-2.25zm9.37 0q-.7.46-1.33 1.02-.64.54-1.13 1.2-.46.64-.77 1.39-.28.74-.28 1.61 0 .92.26 1.61.28.67.72 1.15.43.47.97.77.54.31 1.1.51 0 .47-.18.95-.15.46-.51.87t-.9.67q-.54.25-1.25.25-.62 0-1.2-.23-.6-.25-1.06-.74-.46-.51-.76-1.28-.28-.8-.28-1.9 0-.94.25-2.04.26-1.13.9-2.3.66-1.18 1.76-2.36 1.13-1.18 2.85-2.25z" aria-label="“" font-family="Simonetta" font-size="40" font-weight="400" letter-spacing="0" style="-inkscape-font-specification:Simonetta" word-spacing="0"/>
   </g>
</svg>
