<svg xmlns="http://www.w3.org/2000/svg" width="16" height="16" viewBox="0 0 16 16">
    <g style="line-height:1.25">
        <path stroke-width="1.16" d="M3.71 14.26q-1.62 0-2.69-1.11Q0 11.99 0 10.09 0 5.82 2.78 3.4q1.2-1.11 2.79-1.67l.46 1.16q-.97.32-1.95 1.07Q2.04 5.5 1.62 8l.6-.32q.75-.38 1.49-.38 1.4 0 2.41 1.07Q7.2 9.4 7.2 10.78q0 1.4-1.07 2.46-1.02 1.02-2.41 1.02zm8.81 0q-1.62 0-2.69-1.11-1.02-1.16-1.02-3.06 0-4.27 2.78-6.68 1.16-1.11 2.79-1.67l.46 1.16q-.97.32-1.95 1.07Q10.85 5.5 10.43 8l.6-.32q.75-.38 1.5-.38 1.38 0 2.4 1.07Q16 9.4 16 10.78q0 1.4-1.07 2.46-1.02 1.02-2.4 1.02z" aria-label="“" font-size="46.38" font-weight="400" letter-spacing="0" word-spacing="0"/>
    </g>
</svg>
