<?xml version="1.0" encoding="iso-8859-1"?>
<!-- Generator: Adobe Illustrator 19.0.0, SVG Export Plug-In . SVG Version: 6.00 Build 0)  -->
<svg version="1.1" id="Capa_1" xmlns="http://www.w3.org/2000/svg" xmlns:xlink="http://www.w3.org/1999/xlink" x="0px" y="0px"
	 viewBox="0 0 512 512" style="enable-background:new 0 0 512 512;" xml:space="preserve">
<g>
	<g>
		<g>
			<path d="M256,0C114.615,0,0,114.615,0,256s114.615,256,256,256s256-114.615,256-256S397.385,0,256,0z M256,488.727
				C127.468,488.727,23.273,384.532,23.273,256S127.468,23.273,256,23.273S488.727,127.468,488.727,256S384.532,488.727,256,488.727
				z"/>
			<path d="M325.818,139.636H186.182c-25.706,0-46.545,20.839-46.545,46.545v139.636c0,25.706,20.839,46.545,46.545,46.545h139.636
				c25.706,0,46.545-20.839,46.545-46.545V186.182C372.364,160.475,351.525,139.636,325.818,139.636z M302.545,174.545h34.909
				v34.909h-34.909V174.545z M256,209.455c25.706,0,46.545,20.839,46.545,46.545S281.706,302.545,256,302.545
				S209.455,281.706,209.455,256S230.294,209.455,256,209.455z M349.091,325.818c0,12.853-10.42,23.273-23.273,23.273H186.182
				c-12.853,0-23.273-10.42-23.273-23.273v-81.455h24.436c-6.988,37.921,18.087,74.327,56.008,81.316s74.327-18.087,81.316-56.008
				c0.831-4.508,1.216-9.087,1.149-13.671c-0.058-3.905-0.447-7.797-1.164-11.636h24.436V325.818z"/>
		</g>
	</g>
</g>
<g>
</g>
<g>
</g>
<g>
</g>
<g>
</g>
<g>
</g>
<g>
</g>
<g>
</g>
<g>
</g>
<g>
</g>
<g>
</g>
<g>
</g>
<g>
</g>
<g>
</g>
<g>
</g>
<g>
</g>
</svg>
