<?xml version="1.0" encoding="UTF-8" standalone="no"?>
<!DOCTYPE svg PUBLIC "-//W3C//DTD SVG 1.1//EN" "http://www.w3.org/Graphics/SVG/1.1/DTD/svg11.dtd">
<svg width="100%" height="100%" viewBox="0 0 56 20" version="1.1" xmlns="http://www.w3.org/2000/svg" xmlns:xlink="http://www.w3.org/1999/xlink" xml:space="preserve" xmlns:serif="http://www.serif.com/" style="fill-rule:evenodd;clip-rule:evenodd;stroke-linejoin:round;stroke-miterlimit:1.41421;">
    <rect x="0" y="0" width="56" height="20" style="fill:none;"/>
    <g transform="matrix(0.79739,0,0,0.79739,16.557,14.0589)">
        <path d="M2.305,-4.705L1.549,-4.61L1.549,-0.314L2.513,-0.314C3.032,-0.314 3.413,-0.338 3.656,-0.387L3.883,-1.406L4.12,-1.406L4.055,0L0.216,0L0.216,-0.194L0.844,-0.292L0.844,-4.61L0.216,-4.705L0.216,-4.898L2.305,-4.898L2.305,-4.705Z" style="fill:rgb(82,15,89);fill-rule:nonzero;"/>
        <path d="M5.519,-1.728L5.519,-1.662C5.519,-1.326 5.557,-1.065 5.631,-0.879C5.705,-0.692 5.82,-0.55 5.974,-0.453C6.129,-0.356 6.332,-0.307 6.582,-0.307C6.714,-0.307 6.87,-0.318 7.05,-0.34C7.23,-0.362 7.379,-0.386 7.496,-0.413L7.496,-0.208C7.379,-0.133 7.22,-0.067 7.019,-0.011C6.818,0.045 6.613,0.073 6.403,0.073C5.87,0.073 5.48,-0.071 5.233,-0.358C4.986,-0.645 4.862,-1.107 4.862,-1.742C4.862,-2.341 4.987,-2.788 5.238,-3.083C5.489,-3.378 5.847,-3.525 6.312,-3.525C7.191,-3.525 7.631,-3.026 7.631,-2.027L7.631,-1.728L5.519,-1.728ZM6.312,-3.233C6.059,-3.233 5.865,-3.13 5.729,-2.926C5.594,-2.721 5.527,-2.419 5.527,-2.02L6.995,-2.02C6.995,-2.456 6.939,-2.767 6.827,-2.953C6.715,-3.14 6.543,-3.233 6.312,-3.233Z" style="fill:rgb(82,15,89);fill-rule:nonzero;"/>
        <path d="M11.068,-2.349C11.068,-1.954 10.95,-1.656 10.714,-1.454C10.478,-1.252 10.138,-1.151 9.695,-1.151C9.495,-1.151 9.31,-1.169 9.139,-1.205L8.909,-0.727C8.917,-0.686 8.964,-0.647 9.052,-0.61C9.139,-0.573 9.249,-0.555 9.38,-0.555L10.396,-0.555C10.766,-0.555 11.041,-0.475 11.22,-0.314C11.399,-0.153 11.488,0.068 11.488,0.351C11.488,0.606 11.417,0.829 11.274,1.019C11.132,1.209 10.923,1.356 10.648,1.459C10.373,1.563 10.039,1.615 9.647,1.615C9.18,1.615 8.823,1.543 8.579,1.399C8.334,1.255 8.212,1.051 8.212,0.785C8.212,0.656 8.255,0.529 8.343,0.404C8.431,0.278 8.591,0.132 8.825,-0.037C8.686,-0.083 8.57,-0.162 8.475,-0.274C8.38,-0.386 8.332,-0.507 8.332,-0.636L8.909,-1.286C8.524,-1.466 8.332,-1.82 8.332,-2.349C8.332,-2.724 8.451,-3.014 8.688,-3.218C8.926,-3.423 9.271,-3.525 9.724,-3.525C9.814,-3.525 9.93,-3.516 10.071,-3.498C10.212,-3.479 10.32,-3.458 10.396,-3.434L11.203,-3.839L11.331,-3.682L10.823,-3.156C10.987,-2.973 11.068,-2.704 11.068,-2.349ZM10.918,0.464C10.918,0.325 10.876,0.217 10.79,0.139C10.705,0.061 10.576,0.022 10.403,0.022L9.074,0.022C8.971,0.11 8.888,0.221 8.823,0.356C8.759,0.491 8.727,0.617 8.727,0.734C8.727,0.944 8.802,1.094 8.953,1.185C9.104,1.277 9.335,1.322 9.647,1.322C10.054,1.322 10.367,1.247 10.588,1.096C10.808,0.945 10.918,0.734 10.918,0.464ZM9.702,-1.428C9.967,-1.428 10.155,-1.504 10.266,-1.657C10.377,-1.809 10.432,-2.039 10.432,-2.349C10.432,-2.673 10.375,-2.903 10.261,-3.041C10.146,-3.179 9.962,-3.247 9.709,-3.247C9.454,-3.247 9.266,-3.178 9.147,-3.039C9.027,-2.9 8.968,-2.67 8.968,-2.349C8.968,-2.027 9.026,-1.794 9.143,-1.647C9.26,-1.501 9.446,-1.428 9.702,-1.428Z" style="fill:rgb(82,15,89);fill-rule:nonzero;"/>
        <path d="M13.329,-3.51C13.704,-3.51 13.98,-3.434 14.157,-3.28C14.333,-3.127 14.421,-2.892 14.421,-2.575L14.421,-0.256L14.849,-0.164L14.849,0L13.906,0L13.837,-0.343C13.559,-0.066 13.205,0.073 12.774,0.073C12.187,0.073 11.894,-0.268 11.894,-0.95C11.894,-1.179 11.938,-1.368 12.027,-1.518C12.116,-1.668 12.258,-1.782 12.453,-1.861C12.647,-1.94 12.93,-1.983 13.3,-1.991L13.815,-2.005L13.815,-2.542C13.815,-2.779 13.772,-2.953 13.685,-3.065C13.599,-3.177 13.466,-3.233 13.285,-3.233C13.042,-3.233 12.819,-3.176 12.617,-3.061L12.493,-2.634L12.288,-2.634L12.288,-3.383C12.683,-3.468 13.03,-3.51 13.329,-3.51ZM13.815,-1.75L13.336,-1.735C13.01,-1.723 12.789,-1.66 12.674,-1.545C12.558,-1.431 12.5,-1.24 12.5,-0.972C12.5,-0.543 12.674,-0.329 13.022,-0.329C13.188,-0.329 13.331,-0.348 13.452,-0.385C13.572,-0.423 13.693,-0.471 13.815,-0.53L13.815,-1.75Z" style="fill:rgb(82,15,89);fill-rule:nonzero;"/>
        <path d="M16.292,-0.256L16.88,-0.164L16.88,0L15.101,0L15.101,-0.164L15.685,-0.256L15.685,-4.939L15.101,-5.026L15.101,-5.191L16.292,-5.191L16.292,-0.256Z" style="fill:rgb(82,15,89);fill-rule:nonzero;"/>
        <path d="M19.407,-1.319L19.645,-1.319L19.773,-0.658C19.863,-0.543 20.018,-0.442 20.239,-0.354C20.459,-0.267 20.676,-0.223 20.891,-0.223C21.231,-0.223 21.498,-0.31 21.689,-0.484C21.88,-0.658 21.975,-0.899 21.975,-1.205C21.975,-1.381 21.938,-1.526 21.864,-1.64C21.79,-1.755 21.692,-1.851 21.572,-1.931C21.451,-2.01 21.314,-2.077 21.161,-2.131C21.007,-2.186 20.85,-2.242 20.688,-2.298C20.526,-2.354 20.368,-2.416 20.215,-2.484C20.061,-2.552 19.924,-2.639 19.804,-2.743C19.683,-2.848 19.586,-2.978 19.512,-3.132C19.437,-3.287 19.4,-3.477 19.4,-3.704C19.4,-4.094 19.546,-4.399 19.839,-4.621C20.131,-4.842 20.536,-4.953 21.055,-4.953C21.449,-4.953 21.878,-4.901 22.341,-4.796L22.341,-3.777L22.103,-3.777L21.975,-4.376C21.727,-4.556 21.42,-4.646 21.055,-4.646C20.729,-4.646 20.474,-4.58 20.29,-4.447C20.106,-4.315 20.014,-4.131 20.014,-3.898C20.014,-3.739 20.051,-3.608 20.125,-3.503C20.2,-3.398 20.297,-3.309 20.418,-3.235C20.538,-3.16 20.676,-3.096 20.83,-3.043C20.985,-2.989 21.143,-2.934 21.305,-2.877C21.467,-2.819 21.625,-2.755 21.78,-2.683C21.935,-2.611 22.072,-2.52 22.193,-2.409C22.313,-2.298 22.411,-2.163 22.485,-2.004C22.559,-1.844 22.596,-1.647 22.596,-1.414C22.596,-0.941 22.452,-0.575 22.162,-0.316C21.872,-0.057 21.454,0.073 20.909,0.073C20.646,0.073 20.382,0.05 20.116,0.004C19.851,-0.043 19.614,-0.106 19.407,-0.186L19.407,-1.319Z" style="fill:rgb(82,15,89);fill-rule:nonzero;"/>
        <path d="M24.01,-1.728L24.01,-1.662C24.01,-1.326 24.047,-1.065 24.121,-0.879C24.196,-0.692 24.31,-0.55 24.465,-0.453C24.619,-0.356 24.822,-0.307 25.073,-0.307C25.205,-0.307 25.36,-0.318 25.541,-0.34C25.721,-0.362 25.869,-0.386 25.986,-0.413L25.986,-0.208C25.869,-0.133 25.71,-0.067 25.51,-0.011C25.309,0.045 25.103,0.073 24.894,0.073C24.361,0.073 23.97,-0.071 23.723,-0.358C23.476,-0.645 23.353,-1.107 23.353,-1.742C23.353,-2.341 23.478,-2.788 23.729,-3.083C23.98,-3.378 24.338,-3.525 24.803,-3.525C25.682,-3.525 26.121,-3.026 26.121,-2.027L26.121,-1.728L24.01,-1.728ZM24.803,-3.233C24.549,-3.233 24.355,-3.13 24.22,-2.926C24.085,-2.721 24.017,-2.419 24.017,-2.02L25.486,-2.02C25.486,-2.456 25.43,-2.767 25.318,-2.953C25.206,-3.14 25.034,-3.233 24.803,-3.233Z" style="fill:rgb(82,15,89);fill-rule:nonzero;"/>
        <path d="M28.806,-3.525L28.806,-2.597L28.649,-2.597L28.437,-2.999C28.316,-2.999 28.171,-2.983 28.004,-2.95C27.838,-2.917 27.693,-2.874 27.572,-2.82L27.572,-0.256L28.16,-0.164L28.16,0L26.531,0L26.531,-0.164L26.965,-0.256L26.965,-3.178L26.531,-3.269L26.531,-3.434L27.531,-3.434L27.564,-3.006C27.71,-3.128 27.908,-3.245 28.158,-3.357C28.407,-3.469 28.605,-3.525 28.751,-3.525L28.806,-3.525Z" style="fill:rgb(82,15,89);fill-rule:nonzero;"/>
        <path d="M30.907,0.073L30.636,0.073L29.223,-3.178L28.872,-3.269L28.872,-3.434L30.472,-3.434L30.472,-3.269L29.928,-3.171L30.929,-0.8L31.886,-3.178L31.341,-3.269L31.341,-3.434L32.612,-3.434L32.612,-3.269L32.284,-3.193L30.907,0.073Z" style="fill:rgb(82,15,89);fill-rule:nonzero;"/>
        <path d="M33.997,-4.555C33.997,-4.448 33.958,-4.355 33.88,-4.277C33.802,-4.2 33.708,-4.161 33.599,-4.161C33.492,-4.161 33.399,-4.2 33.321,-4.277C33.243,-4.355 33.204,-4.448 33.204,-4.555C33.204,-4.665 33.243,-4.758 33.321,-4.836C33.399,-4.914 33.492,-4.953 33.599,-4.953C33.708,-4.953 33.802,-4.914 33.88,-4.836C33.958,-4.758 33.997,-4.665 33.997,-4.555ZM33.96,-0.256L34.548,-0.164L34.548,0L32.77,0L32.77,-0.164L33.354,-0.256L33.354,-3.178L32.868,-3.269L32.868,-3.434L33.96,-3.434L33.96,-0.256Z" style="fill:rgb(82,15,89);fill-rule:nonzero;"/>
        <path d="M37.781,-0.208C37.662,-0.121 37.498,-0.052 37.288,-0.002C37.079,0.048 36.864,0.073 36.645,0.073C35.532,0.073 34.976,-0.532 34.976,-1.742C34.976,-2.315 35.118,-2.755 35.401,-3.063C35.685,-3.371 36.091,-3.525 36.62,-3.525C36.948,-3.525 37.308,-3.487 37.697,-3.412L37.697,-2.455L37.496,-2.455L37.339,-3.061C37.137,-3.176 36.895,-3.233 36.612,-3.233C35.96,-3.233 35.633,-2.736 35.633,-1.742C35.633,-1.226 35.733,-0.858 35.931,-0.637C36.13,-0.417 36.437,-0.307 36.853,-0.307C37.209,-0.307 37.518,-0.347 37.781,-0.427L37.781,-0.208Z" style="fill:rgb(82,15,89);fill-rule:nonzero;"/>
        <path d="M38.961,-1.728L38.961,-1.662C38.961,-1.326 38.998,-1.065 39.073,-0.879C39.147,-0.692 39.261,-0.55 39.416,-0.453C39.571,-0.356 39.773,-0.307 40.024,-0.307C40.156,-0.307 40.311,-0.318 40.492,-0.34C40.672,-0.362 40.82,-0.386 40.937,-0.413L40.937,-0.208C40.82,-0.133 40.661,-0.067 40.461,-0.011C40.26,0.045 40.055,0.073 39.845,0.073C39.312,0.073 38.922,-0.071 38.674,-0.358C38.427,-0.645 38.304,-1.107 38.304,-1.742C38.304,-2.341 38.429,-2.788 38.68,-3.083C38.931,-3.378 39.289,-3.525 39.754,-3.525C40.633,-3.525 41.072,-3.026 41.072,-2.027L41.072,-1.728L38.961,-1.728ZM39.754,-3.233C39.501,-3.233 39.306,-3.13 39.171,-2.926C39.036,-2.721 38.968,-2.419 38.968,-2.02L40.437,-2.02C40.437,-2.456 40.381,-2.767 40.269,-2.953C40.157,-3.14 39.985,-3.233 39.754,-3.233Z" style="fill:rgb(82,15,89);fill-rule:nonzero;"/>
        <path d="M43.973,-0.964C43.973,-0.623 43.865,-0.365 43.65,-0.19C43.434,-0.015 43.116,0.073 42.694,0.073C42.524,0.073 42.336,0.055 42.13,0.02C41.924,-0.015 41.763,-0.055 41.646,-0.099L41.646,-0.942L41.81,-0.942L41.989,-0.464C42.172,-0.298 42.409,-0.216 42.702,-0.216C43.174,-0.216 43.41,-0.418 43.41,-0.822C43.41,-1.119 43.224,-1.331 42.851,-1.457L42.526,-1.563C42.28,-1.644 42.101,-1.725 41.989,-1.808C41.877,-1.891 41.791,-1.993 41.73,-2.113C41.669,-2.234 41.639,-2.379 41.639,-2.55C41.639,-2.852 41.742,-3.09 41.947,-3.264C42.153,-3.438 42.431,-3.525 42.782,-3.525C43.033,-3.525 43.347,-3.487 43.724,-3.412L43.724,-2.663L43.553,-2.663L43.399,-3.061C43.27,-3.176 43.067,-3.233 42.789,-3.233C42.592,-3.233 42.442,-3.184 42.338,-3.087C42.235,-2.989 42.183,-2.858 42.183,-2.692C42.183,-2.553 42.23,-2.436 42.324,-2.341C42.417,-2.246 42.559,-2.167 42.749,-2.104C43.107,-1.982 43.341,-1.893 43.45,-1.837C43.56,-1.781 43.653,-1.713 43.73,-1.631C43.807,-1.549 43.866,-1.456 43.909,-1.352C43.951,-1.247 43.973,-1.118 43.973,-0.964Z" style="fill:rgb(82,15,89);fill-rule:nonzero;"/>
    </g>
    <g transform="matrix(0.01418,0,0,0.01418,5.62277,19.2509)">
        <path d="M7.92,-40.548L23.674,-41.925C24.42,-35.612 26.157,-30.432 28.883,-26.386C31.609,-22.34 35.841,-19.069 41.581,-16.572C47.32,-14.075 53.777,-12.827 60.951,-12.827C67.321,-12.827 72.946,-13.774 77.824,-15.668C82.702,-17.562 86.332,-20.159 88.714,-23.459C91.096,-26.759 92.287,-30.361 92.287,-34.263C92.287,-38.223 91.139,-41.681 88.843,-44.637C86.548,-47.593 82.76,-50.075 77.48,-52.083C74.093,-53.403 66.604,-55.455 55.01,-58.239C43.417,-61.022 35.296,-63.648 30.647,-66.116C24.621,-69.272 20.13,-73.189 17.175,-77.867C14.219,-82.544 12.741,-87.781 12.741,-93.578C12.741,-99.949 14.549,-105.903 18.165,-111.441C21.78,-116.98 27.06,-121.184 34.005,-124.053C40.949,-126.923 48.669,-128.358 57.163,-128.358C66.518,-128.358 74.768,-126.851 81.913,-123.838C89.058,-120.825 94.554,-116.391 98.399,-110.537C102.244,-104.683 104.31,-98.055 104.597,-90.651L88.585,-89.446C87.724,-97.423 84.811,-103.45 79.847,-107.524C74.883,-111.599 67.551,-113.637 57.851,-113.637C47.75,-113.637 40.39,-111.786 35.77,-108.084C31.15,-104.382 28.84,-99.92 28.84,-94.697C28.84,-90.163 30.475,-86.433 33.747,-83.506C36.961,-80.579 45.354,-77.58 58.927,-74.509C72.501,-71.439 81.813,-68.756 86.863,-66.46C94.209,-63.074 99.633,-58.784 103.134,-53.59C106.635,-48.396 108.385,-42.413 108.385,-35.641C108.385,-28.926 106.463,-22.598 102.617,-16.658C98.772,-10.718 93.248,-6.098 86.045,-2.798C78.843,0.502 70.736,2.152 61.725,2.152C50.304,2.152 40.734,0.488 33.015,-2.841C25.296,-6.17 19.241,-11.177 14.85,-17.863C10.46,-24.55 8.15,-32.111 7.92,-40.548Z" style="fill:rgb(68,68,68);fill-rule:nonzero;"/>
        <path d="M191.805,-29.442L207.817,-27.462C205.292,-18.107 200.615,-10.847 193.785,-5.682C186.955,-0.517 178.232,2.066 167.614,2.066C154.242,2.066 143.638,-2.052 135.804,-10.288C127.97,-18.523 124.053,-30.074 124.053,-44.938C124.053,-60.319 128.013,-72.257 135.934,-80.751C143.854,-89.245 154.127,-93.492 166.753,-93.492C178.978,-93.492 188.964,-89.331 196.712,-81.009C204.46,-72.687 208.334,-60.979 208.334,-45.885C208.334,-44.967 208.305,-43.589 208.248,-41.753L140.066,-41.753C140.64,-31.709 143.481,-24.019 148.589,-18.681C153.696,-13.344 160.067,-10.675 167.7,-10.675C173.382,-10.675 178.232,-12.167 182.249,-15.152C186.267,-18.136 189.452,-22.9 191.805,-29.442ZM140.927,-54.494L191.977,-54.494C191.288,-62.185 189.337,-67.952 186.123,-71.798C181.187,-77.767 174.788,-80.751 166.925,-80.751C159.809,-80.751 153.826,-78.369 148.976,-73.606C144.126,-68.842 141.443,-62.471 140.927,-54.494Z" style="fill:rgb(68,68,68);fill-rule:nonzero;"/>
        <path d="M227.101,0L227.101,-91.426L241.047,-91.426L241.047,-77.566C244.606,-84.051 247.891,-88.327 250.905,-90.393C253.918,-92.459 257.232,-93.492 260.848,-93.492C266.07,-93.492 271.379,-91.828 276.774,-88.499L271.437,-74.122C267.649,-76.36 263.861,-77.48 260.073,-77.48C256.687,-77.48 253.645,-76.461 250.948,-74.423C248.25,-72.386 246.328,-69.559 245.18,-65.944C243.458,-60.434 242.597,-54.408 242.597,-47.865L242.597,0L227.101,0Z" style="fill:rgb(68,68,68);fill-rule:nonzero;"/>
        <path d="M311.382,0L276.602,-91.426L292.959,-91.426L312.587,-36.674C314.71,-30.762 316.662,-24.621 318.441,-18.251C319.818,-23.072 321.741,-28.868 324.209,-35.641L344.526,-91.426L360.452,-91.426L325.845,0L311.382,0Z" style="fill:rgb(68,68,68);fill-rule:nonzero;"/>
        <path d="M374.226,-108.385L374.226,-126.206L389.722,-126.206L389.722,-108.385L374.226,-108.385ZM374.226,0L374.226,-91.426L389.722,-91.426L389.722,0L374.226,0Z" style="fill:rgb(68,68,68);fill-rule:nonzero;"/>
        <path d="M413.31,0L413.31,-91.426L427.257,-91.426L427.257,-78.427C433.972,-88.47 443.671,-93.492 456.354,-93.492C461.864,-93.492 466.929,-92.502 471.549,-90.522C476.169,-88.542 479.627,-85.945 481.923,-82.731C484.218,-79.517 485.825,-75.7 486.744,-71.281C487.318,-68.412 487.605,-63.39 487.605,-56.216L487.605,0L472.109,0L472.109,-55.613C472.109,-61.926 471.506,-66.647 470.301,-69.775C469.096,-72.903 466.958,-75.399 463.887,-77.264C460.817,-79.13 457.215,-80.062 453.083,-80.062C446.483,-80.062 440.787,-77.967 435.995,-73.778C431.202,-69.588 428.806,-61.639 428.806,-49.931L428.806,0L413.31,0Z" style="fill:rgb(68,68,68);fill-rule:nonzero;"/>
        <path d="M508.524,7.576L523.59,9.814C524.221,14.463 525.971,17.849 528.841,19.973C532.686,22.842 537.938,24.277 544.595,24.277C551.769,24.277 557.307,22.842 561.21,19.973C565.113,17.103 567.753,13.085 569.13,7.92C569.934,4.764 570.307,-1.865 570.249,-11.966C563.477,-3.989 555.04,0 544.939,0C532.371,0 522.643,-4.534 515.755,-13.602C508.868,-22.67 505.425,-33.546 505.425,-46.229C505.425,-54.953 507.003,-63.002 510.16,-70.377C513.316,-77.752 517.893,-83.448 523.891,-87.466C529.888,-91.483 536.933,-93.492 545.026,-93.492C555.815,-93.492 564.711,-89.13 571.713,-80.407L571.713,-91.426L586.004,-91.426L586.004,-12.397C586.004,1.837 584.554,11.923 581.656,17.863C578.758,23.803 574.166,28.495 567.882,31.939C561.598,35.382 553.864,37.104 544.681,37.104C533.777,37.104 524.967,34.651 518.252,29.744C511.537,24.836 508.294,17.447 508.524,7.576ZM521.351,-47.349C521.351,-35.354 523.733,-26.601 528.497,-21.092C533.26,-15.582 539.229,-12.827 546.403,-12.827C553.52,-12.827 559.488,-15.568 564.309,-21.049C569.13,-26.53 571.541,-35.124 571.541,-46.832C571.541,-58.024 569.059,-66.46 564.094,-72.142C559.13,-77.824 553.147,-80.665 546.145,-80.665C539.258,-80.665 533.404,-77.867 528.583,-72.271C523.762,-66.675 521.351,-58.368 521.351,-47.349Z" style="fill:rgb(68,68,68);fill-rule:nonzero;"/>
        <path d="M675.277,0L647.299,-91.426L663.311,-91.426L677.86,-38.654L683.283,-19.026C683.513,-20.001 685.091,-26.286 688.018,-37.879L702.567,-91.426L718.494,-91.426L732.182,-38.395L736.744,-20.919L741.996,-38.568L757.664,-91.426L772.729,-91.426L744.148,0L728.049,0L713.5,-54.752L709.971,-70.334L691.462,0L675.277,0Z" style="fill:rgb(68,68,68);fill-rule:nonzero;"/>
        <path d="M785.815,-108.385L785.815,-126.206L801.311,-126.206L801.311,-108.385L785.815,-108.385ZM785.815,0L785.815,-91.426L801.311,-91.426L801.311,0L785.815,0Z" style="fill:rgb(68,68,68);fill-rule:nonzero;"/>
        <path d="M858.732,-13.86L860.97,-0.172C856.608,0.746 852.705,1.205 849.262,1.205C843.637,1.205 839.276,0.316 836.176,-1.464C833.077,-3.243 830.896,-5.581 829.634,-8.48C828.371,-11.378 827.74,-17.476 827.74,-26.773L827.74,-79.373L816.376,-79.373L816.376,-91.426L827.74,-91.426L827.74,-114.067L843.15,-123.365L843.15,-91.426L858.732,-91.426L858.732,-79.373L843.15,-79.373L843.15,-25.913C843.15,-21.493 843.422,-18.652 843.967,-17.39C844.513,-16.127 845.402,-15.123 846.636,-14.377C847.87,-13.631 849.635,-13.258 851.931,-13.258C853.652,-13.258 855.919,-13.458 858.732,-13.86Z" style="fill:rgb(68,68,68);fill-rule:nonzero;"/>
        <path d="M873.883,0L873.883,-126.206L889.379,-126.206L889.379,-80.923C896.61,-89.302 905.736,-93.492 916.755,-93.492C923.527,-93.492 929.41,-92.158 934.403,-89.489C939.396,-86.82 942.969,-83.133 945.121,-78.427C947.273,-73.72 948.35,-66.891 948.35,-57.937L948.35,0L932.854,0L932.854,-57.937C932.854,-65.685 931.175,-71.324 927.818,-74.854C924.46,-78.383 919.711,-80.148 913.57,-80.148C908.978,-80.148 904.66,-78.957 900.614,-76.576C896.567,-74.194 893.683,-70.966 891.962,-66.891C890.24,-62.816 889.379,-57.191 889.379,-50.017L889.379,0L873.883,0Z" style="fill:rgb(68,68,68);fill-rule:nonzero;"/>
        <path d="M1021.01,-108.385L1021.01,-126.206L1036.5,-126.206L1036.5,-108.385L1021.01,-108.385ZM1021.01,0L1021.01,-91.426L1036.5,-91.426L1036.5,0L1021.01,0Z" style="fill:rgb(68,68,68);fill-rule:nonzero;"/>
        <path d="M1060.09,0L1060.09,-91.426L1074.04,-91.426L1074.04,-78.427C1080.75,-88.47 1090.45,-93.492 1103.14,-93.492C1108.65,-93.492 1113.71,-92.502 1118.33,-90.522C1122.95,-88.542 1126.41,-85.945 1128.7,-82.731C1131,-79.517 1132.61,-75.7 1133.53,-71.281C1134.1,-68.412 1134.39,-63.39 1134.39,-56.216L1134.39,0L1118.89,0L1118.89,-55.613C1118.89,-61.926 1118.29,-66.647 1117.08,-69.775C1115.88,-72.903 1113.74,-75.399 1110.67,-77.264C1107.6,-79.13 1104,-80.062 1099.87,-80.062C1093.27,-80.062 1087.57,-77.967 1082.78,-73.778C1077.98,-69.588 1075.59,-61.639 1075.59,-49.931L1075.59,0L1060.09,0Z" style="fill:rgb(68,68,68);fill-rule:nonzero;"/>
        <path d="M1191.98,-13.86L1194.22,-0.172C1189.86,0.746 1185.95,1.205 1182.51,1.205C1176.89,1.205 1172.52,0.316 1169.42,-1.464C1166.33,-3.243 1164.14,-5.581 1162.88,-8.48C1161.62,-11.378 1160.99,-17.476 1160.99,-26.773L1160.99,-79.373L1149.62,-79.373L1149.62,-91.426L1160.99,-91.426L1160.99,-114.067L1176.4,-123.365L1176.4,-91.426L1191.98,-91.426L1191.98,-79.373L1176.4,-79.373L1176.4,-25.913C1176.4,-21.493 1176.67,-18.652 1177.22,-17.39C1177.76,-16.127 1178.65,-15.123 1179.88,-14.377C1181.12,-13.631 1182.88,-13.258 1185.18,-13.258C1186.9,-13.258 1189.17,-13.458 1191.98,-13.86Z" style="fill:rgb(68,68,68);fill-rule:nonzero;"/>
        <path d="M1269.72,-29.442L1285.73,-27.462C1283.2,-18.107 1278.53,-10.847 1271.7,-5.682C1264.87,-0.517 1256.14,2.066 1245.53,2.066C1232.15,2.066 1221.55,-2.052 1213.72,-10.288C1205.88,-18.523 1201.97,-30.074 1201.97,-44.938C1201.97,-60.319 1205.93,-72.257 1213.85,-80.751C1221.77,-89.245 1232.04,-93.492 1244.67,-93.492C1256.89,-93.492 1266.88,-89.331 1274.63,-81.009C1282.37,-72.687 1286.25,-60.979 1286.25,-45.885C1286.25,-44.967 1286.22,-43.589 1286.16,-41.753L1217.98,-41.753C1218.55,-31.709 1221.39,-24.019 1226.5,-18.681C1231.61,-13.344 1237.98,-10.675 1245.61,-10.675C1251.3,-10.675 1256.14,-12.167 1260.16,-15.152C1264.18,-18.136 1267.36,-22.9 1269.72,-29.442ZM1218.84,-54.494L1269.89,-54.494C1269.2,-62.185 1267.25,-67.952 1264.04,-71.798C1259.1,-77.767 1252.7,-80.751 1244.84,-80.751C1237.72,-80.751 1231.74,-78.369 1226.89,-73.606C1222.04,-68.842 1219.36,-62.471 1218.84,-54.494Z" style="fill:rgb(68,68,68);fill-rule:nonzero;"/>
        <path d="M1302.35,7.576L1317.41,9.814C1318.04,14.463 1319.79,17.849 1322.66,19.973C1326.51,22.842 1331.76,24.277 1338.42,24.277C1345.59,24.277 1351.13,22.842 1355.03,19.973C1358.93,17.103 1361.57,13.085 1362.95,7.92C1363.76,4.764 1364.13,-1.865 1364.07,-11.966C1357.3,-3.989 1348.86,0 1338.76,0C1326.19,0 1316.46,-4.534 1309.58,-13.602C1302.69,-22.67 1299.25,-33.546 1299.25,-46.229C1299.25,-54.953 1300.82,-63.002 1303.98,-70.377C1307.14,-77.752 1311.71,-83.448 1317.71,-87.466C1323.71,-91.483 1330.75,-93.492 1338.85,-93.492C1349.64,-93.492 1358.53,-89.13 1365.53,-80.407L1365.53,-91.426L1379.83,-91.426L1379.83,-12.397C1379.83,1.837 1378.38,11.923 1375.48,17.863C1372.58,23.803 1367.99,28.495 1361.7,31.939C1355.42,35.382 1347.68,37.104 1338.5,37.104C1327.6,37.104 1318.79,34.651 1312.07,29.744C1305.36,24.836 1302.12,17.447 1302.35,7.576ZM1315.17,-47.349C1315.17,-35.354 1317.55,-26.601 1322.32,-21.092C1327.08,-15.582 1333.05,-12.827 1340.22,-12.827C1347.34,-12.827 1353.31,-15.568 1358.13,-21.049C1362.95,-26.53 1365.36,-35.124 1365.36,-46.832C1365.36,-58.024 1362.88,-66.46 1357.91,-72.142C1352.95,-77.824 1346.97,-80.665 1339.97,-80.665C1333.08,-80.665 1327.23,-77.867 1322.4,-72.271C1317.58,-66.675 1315.17,-58.368 1315.17,-47.349Z" style="fill:rgb(68,68,68);fill-rule:nonzero;"/>
        <path d="M1403.07,0L1403.07,-91.426L1417.02,-91.426L1417.02,-77.566C1420.57,-84.051 1423.86,-88.327 1426.87,-90.393C1429.88,-92.459 1433.2,-93.492 1436.82,-93.492C1442.04,-93.492 1447.35,-91.828 1452.74,-88.499L1447.4,-74.122C1443.62,-76.36 1439.83,-77.48 1436.04,-77.48C1432.65,-77.48 1429.61,-76.461 1426.91,-74.423C1424.22,-72.386 1422.3,-69.559 1421.15,-65.944C1419.42,-60.434 1418.56,-54.408 1418.56,-47.865L1418.56,0L1403.07,0Z" style="fill:rgb(68,68,68);fill-rule:nonzero;"/>
        <path d="M1462.04,-108.385L1462.04,-126.206L1477.54,-126.206L1477.54,-108.385L1462.04,-108.385ZM1462.04,0L1462.04,-91.426L1477.54,-91.426L1477.54,0L1462.04,0Z" style="fill:rgb(68,68,68);fill-rule:nonzero;"/>
        <path d="M1534.96,-13.86L1537.19,-0.172C1532.83,0.746 1528.93,1.205 1525.49,1.205C1519.86,1.205 1515.5,0.316 1512.4,-1.464C1509.3,-3.243 1507.12,-5.581 1505.86,-8.48C1504.6,-11.378 1503.96,-17.476 1503.96,-26.773L1503.96,-79.373L1492.6,-79.373L1492.6,-91.426L1503.96,-91.426L1503.96,-114.067L1519.37,-123.365L1519.37,-91.426L1534.96,-91.426L1534.96,-79.373L1519.37,-79.373L1519.37,-25.913C1519.37,-21.493 1519.65,-18.652 1520.19,-17.39C1520.74,-16.127 1521.63,-15.123 1522.86,-14.377C1524.09,-13.631 1525.86,-13.258 1528.15,-13.258C1529.88,-13.258 1532.14,-13.458 1534.96,-13.86Z" style="fill:rgb(68,68,68);fill-rule:nonzero;"/>
        <path d="M1549.42,35.21L1547.7,20.661C1551.08,21.579 1554.04,22.039 1556.56,22.039C1560.01,22.039 1562.76,21.465 1564.83,20.317C1566.89,19.169 1568.59,17.562 1569.91,15.496C1570.88,13.946 1572.46,10.101 1574.64,3.96C1574.93,3.099 1575.39,1.837 1576.02,0.172L1541.33,-91.426L1558.03,-91.426L1577.05,-38.482C1579.52,-31.767 1581.73,-24.707 1583.68,-17.304C1585.46,-24.42 1587.58,-31.365 1590.05,-38.137L1609.59,-91.426L1625.09,-91.426L1590.31,1.55C1586.58,11.593 1583.68,18.509 1581.62,22.297C1578.86,27.405 1575.7,31.15 1572.15,33.531C1568.59,35.913 1564.34,37.104 1559.4,37.104C1556.42,37.104 1553.09,36.473 1549.42,35.21Z" style="fill:rgb(68,68,68);fill-rule:nonzero;"/>
    </g>
    <g transform="matrix(0.01418,0,0,0.01418,28.5087,19.2509)">
        <path d="M15.668,0L15.668,-17.648L33.316,-17.648L33.316,0C33.316,6.485 32.168,11.722 29.873,15.711C27.577,19.7 23.933,22.785 18.939,24.966L14.635,18.337C17.906,16.902 20.317,14.793 21.866,12.009C23.416,9.226 24.277,5.223 24.449,0L15.668,0Z" style="fill:rgb(68,68,68);fill-rule:nonzero;"/>
        <path d="M111.915,0L111.915,-126.206L203.169,-126.206L203.169,-111.312L128.616,-111.312L128.616,-72.659L198.434,-72.659L198.434,-57.851L128.616,-57.851L128.616,-14.893L206.096,-14.893L206.096,0L111.915,0Z" style="fill:rgb(68,68,68);fill-rule:nonzero;"/>
        <path d="M286.846,-11.278C281.107,-6.399 275.583,-2.956 270.274,-0.947C264.966,1.062 259.27,2.066 253.186,2.066C243.142,2.066 235.423,-0.387 230.028,-5.294C224.633,-10.201 221.936,-16.472 221.936,-24.105C221.936,-28.581 222.955,-32.671 224.992,-36.372C227.029,-40.074 229.698,-43.044 232.998,-45.282C236.298,-47.521 240.014,-49.214 244.147,-50.362C247.188,-51.165 251.78,-51.94 257.921,-52.686C270.432,-54.178 279.644,-55.957 285.555,-58.024C285.613,-60.147 285.641,-61.496 285.641,-62.07C285.641,-68.383 284.178,-72.831 281.251,-75.413C277.291,-78.914 271.408,-80.665 263.603,-80.665C256.314,-80.665 250.933,-79.388 247.461,-76.834C243.989,-74.28 241.421,-69.76 239.756,-63.275L224.605,-65.341C225.982,-71.826 228.249,-77.063 231.406,-81.052C234.562,-85.041 239.125,-88.111 245.094,-90.264C251.062,-92.416 257.978,-93.492 265.841,-93.492C273.646,-93.492 279.988,-92.574 284.866,-90.737C289.745,-88.901 293.332,-86.591 295.627,-83.807C297.923,-81.024 299.53,-77.508 300.448,-73.261C300.965,-70.621 301.223,-65.858 301.223,-58.971L301.223,-38.309C301.223,-23.904 301.553,-14.793 302.213,-10.976C302.873,-7.16 304.179,-3.501 306.13,0L289.946,0C288.339,-3.214 287.306,-6.973 286.846,-11.278ZM285.555,-45.885C279.931,-43.589 271.494,-41.638 260.245,-40.031C253.875,-39.113 249.369,-38.08 246.729,-36.932C244.089,-35.784 242.052,-34.105 240.617,-31.896C239.182,-29.686 238.465,-27.233 238.465,-24.535C238.465,-20.403 240.029,-16.959 243.157,-14.205C246.285,-11.45 250.862,-10.072 256.888,-10.072C262.857,-10.072 268.165,-11.378 272.814,-13.989C277.463,-16.601 280.878,-20.173 283.059,-24.707C284.723,-28.208 285.555,-33.374 285.555,-40.203L285.555,-45.885Z" style="fill:rgb(68,68,68);fill-rule:nonzero;"/>
        <path d="M319.044,-27.29L334.367,-29.7C335.228,-23.56 337.624,-18.853 341.556,-15.582C345.487,-12.311 350.982,-10.675 358.042,-10.675C365.158,-10.675 370.438,-12.124 373.882,-15.022C377.325,-17.921 379.047,-21.321 379.047,-25.224C379.047,-28.725 377.526,-31.48 374.484,-33.488C372.361,-34.866 367.081,-36.616 358.644,-38.74C347.281,-41.609 339.403,-44.092 335.013,-46.186C330.622,-48.281 327.294,-51.18 325.027,-54.881C322.76,-58.583 321.626,-62.672 321.626,-67.149C321.626,-71.224 322.559,-74.997 324.424,-78.47C326.289,-81.942 328.829,-84.826 332.043,-87.121C334.453,-88.901 337.739,-90.407 341.9,-91.641C346.061,-92.875 350.523,-93.492 355.287,-93.492C362.461,-93.492 368.76,-92.459 374.183,-90.393C379.607,-88.327 383.61,-85.529 386.192,-81.999C388.775,-78.47 390.554,-73.749 391.53,-67.838L376.378,-65.772C375.69,-70.478 373.695,-74.151 370.395,-76.791C367.095,-79.431 362.432,-80.751 356.406,-80.751C349.289,-80.751 344.21,-79.574 341.168,-77.221C338.126,-74.868 336.606,-72.113 336.606,-68.957C336.606,-66.948 337.237,-65.14 338.5,-63.533C339.762,-61.869 341.742,-60.491 344.44,-59.401C345.989,-58.827 350.552,-57.507 358.128,-55.441C369.09,-52.514 376.737,-50.118 381.07,-48.253C385.403,-46.387 388.804,-43.676 391.272,-40.117C393.74,-36.559 394.973,-32.14 394.973,-26.86C394.973,-21.694 393.467,-16.83 390.454,-12.268C387.441,-7.705 383.093,-4.175 377.411,-1.679C371.73,0.818 365.302,2.066 358.128,2.066C346.247,2.066 337.194,-0.402 330.967,-5.337C324.74,-10.273 320.765,-17.591 319.044,-27.29Z" style="fill:rgb(68,68,68);fill-rule:nonzero;"/>
        <path d="M447.229,-13.86L449.467,-0.172C445.106,0.746 441.203,1.205 437.759,1.205C432.135,1.205 427.773,0.316 424.674,-1.464C421.575,-3.243 419.394,-5.581 418.131,-8.48C416.869,-11.378 416.237,-17.476 416.237,-26.773L416.237,-79.373L404.874,-79.373L404.874,-91.426L416.237,-91.426L416.237,-114.067L431.647,-123.365L431.647,-91.426L447.229,-91.426L447.229,-79.373L431.647,-79.373L431.647,-25.913C431.647,-21.493 431.92,-18.652 432.465,-17.39C433.01,-16.127 433.9,-15.123 435.134,-14.377C436.368,-13.631 438.132,-13.258 440.428,-13.258C442.15,-13.258 444.417,-13.458 447.229,-13.86Z" style="fill:rgb(68,68,68);fill-rule:nonzero;"/>
        <path d="M476.671,0L462.295,0L462.295,-126.206L477.791,-126.206L477.791,-81.181C484.333,-89.388 492.684,-93.492 502.842,-93.492C508.467,-93.492 513.79,-92.358 518.812,-90.091C523.833,-87.824 527.966,-84.639 531.208,-80.536C534.451,-76.432 536.991,-71.482 538.827,-65.685C540.664,-59.889 541.582,-53.69 541.582,-47.09C541.582,-31.422 537.708,-19.312 529.96,-10.761C522.212,-2.21 512.915,2.066 502.067,2.066C491.278,2.066 482.812,-2.439 476.671,-11.45L476.671,0ZM476.499,-46.402C476.499,-35.44 477.991,-27.52 480.976,-22.641C485.854,-14.664 492.454,-10.675 500.776,-10.675C507.548,-10.675 513.402,-13.616 518.338,-19.499C523.274,-25.382 525.742,-34.148 525.742,-45.799C525.742,-57.737 523.374,-66.546 518.639,-72.228C513.905,-77.91 508.18,-80.751 501.465,-80.751C494.693,-80.751 488.839,-77.81 483.903,-71.927C478.967,-66.044 476.499,-57.536 476.499,-46.402Z" style="fill:rgb(68,68,68);fill-rule:nonzero;"/>
        <path d="M554.667,-45.713C554.667,-62.644 559.374,-75.184 568.786,-83.334C576.649,-90.106 586.233,-93.492 597.539,-93.492C610.108,-93.492 620.382,-89.374 628.359,-81.138C636.337,-72.903 640.325,-61.524 640.325,-47.004C640.325,-35.239 638.561,-25.984 635.031,-19.241C631.501,-12.497 626.365,-7.26 619.621,-3.53C612.878,0.201 605.517,2.066 597.539,2.066C584.741,2.066 574.396,-2.037 566.505,-10.245C558.613,-18.452 554.667,-30.274 554.667,-45.713ZM570.594,-45.713C570.594,-34.005 573.148,-25.238 578.256,-19.413C583.364,-13.588 589.791,-10.675 597.539,-10.675C605.23,-10.675 611.629,-13.602 616.737,-19.456C621.845,-25.31 624.399,-34.234 624.399,-46.229C624.399,-57.536 621.831,-66.102 616.694,-71.927C611.557,-77.752 605.173,-80.665 597.539,-80.665C589.791,-80.665 583.364,-77.767 578.256,-71.97C573.148,-66.173 570.594,-57.421 570.594,-45.713Z" style="fill:rgb(68,68,68);fill-rule:nonzero;"/>
        <path d="M718.408,0L718.408,-13.43C711.291,-3.099 701.62,2.066 689.396,2.066C684.001,2.066 678.965,1.033 674.287,-1.033C669.61,-3.099 666.138,-5.696 663.871,-8.824C661.604,-11.952 660.011,-15.783 659.093,-20.317C658.461,-23.359 658.146,-28.18 658.146,-34.78L658.146,-91.426L673.642,-91.426L673.642,-40.72C673.642,-32.627 673.957,-27.175 674.589,-24.363C675.564,-20.288 677.63,-17.089 680.787,-14.764C683.943,-12.44 687.846,-11.278 692.495,-11.278C697.144,-11.278 701.506,-12.468 705.58,-14.85C709.655,-17.232 712.539,-20.475 714.232,-24.578C715.925,-28.682 716.772,-34.636 716.772,-42.442L716.772,-91.426L732.268,-91.426L732.268,0L718.408,0Z" style="fill:rgb(68,68,68);fill-rule:nonzero;"/>
        <path d="M756.372,0L756.372,-91.426L770.319,-91.426L770.319,-77.566C773.877,-84.051 777.163,-88.327 780.176,-90.393C783.189,-92.459 786.503,-93.492 790.119,-93.492C795.342,-93.492 800.651,-91.828 806.045,-88.499L800.708,-74.122C796.92,-76.36 793.132,-77.48 789.344,-77.48C785.958,-77.48 782.916,-76.461 780.219,-74.423C777.522,-72.386 775.599,-69.559 774.451,-65.944C772.729,-60.434 771.868,-54.408 771.868,-47.865L771.868,0L756.372,0Z" style="fill:rgb(68,68,68);fill-rule:nonzero;"/>
        <path d="M815.257,0L815.257,-91.426L829.203,-91.426L829.203,-78.427C835.918,-88.47 845.617,-93.492 858.301,-93.492C863.811,-93.492 868.876,-92.502 873.496,-90.522C878.116,-88.542 881.574,-85.945 883.869,-82.731C886.165,-79.517 887.772,-75.7 888.69,-71.281C889.264,-68.412 889.551,-63.39 889.551,-56.216L889.551,0L874.055,0L874.055,-55.613C874.055,-61.926 873.453,-66.647 872.247,-69.775C871.042,-72.903 868.904,-75.399 865.834,-77.264C862.763,-79.13 859.162,-80.062 855.03,-80.062C848.43,-80.062 842.733,-77.967 837.941,-73.778C833.149,-69.588 830.753,-61.639 830.753,-49.931L830.753,0L815.257,0Z" style="fill:rgb(68,68,68);fill-rule:nonzero;"/>
        <path d="M975.898,-29.442L991.91,-27.462C989.385,-18.107 984.708,-10.847 977.878,-5.682C971.048,-0.517 962.325,2.066 951.707,2.066C938.335,2.066 927.731,-2.052 919.897,-10.288C912.063,-18.523 908.146,-30.074 908.146,-44.938C908.146,-60.319 912.106,-72.257 920.027,-80.751C927.947,-89.245 938.22,-93.492 950.846,-93.492C963.071,-93.492 973.057,-89.331 980.805,-81.009C988.553,-72.687 992.427,-60.979 992.427,-45.885C992.427,-44.967 992.398,-43.589 992.341,-41.753L924.159,-41.753C924.733,-31.709 927.574,-24.019 932.681,-18.681C937.789,-13.344 944.16,-10.675 951.793,-10.675C957.475,-10.675 962.325,-12.167 966.342,-15.152C970.36,-18.136 973.545,-22.9 975.898,-29.442ZM925.02,-54.494L976.07,-54.494C975.381,-62.185 973.43,-67.952 970.216,-71.798C965.28,-77.767 958.881,-80.751 951.018,-80.751C943.902,-80.751 937.919,-78.369 933.069,-73.606C928.219,-68.842 925.536,-62.471 925.02,-54.494Z" style="fill:rgb(68,68,68);fill-rule:nonzero;"/>
        <path d="M1132.49,-14.893C1127.38,-9.211 1121.82,-4.95 1115.79,-2.109C1109.77,0.732 1103.25,2.152 1096.25,2.152C1083.34,2.152 1073.09,-2.21 1065.52,-10.933C1059.38,-18.05 1056.3,-25.999 1056.3,-34.78C1056.3,-42.585 1058.82,-49.63 1063.84,-55.914C1068.86,-62.199 1076.36,-67.723 1086.35,-72.486C1080.67,-79.029 1076.88,-84.338 1074.99,-88.413C1073.09,-92.488 1072.14,-96.419 1072.14,-100.207C1072.14,-107.783 1075.12,-114.368 1081.06,-119.964C1087,-125.56 1094.47,-128.358 1103.48,-128.358C1112.09,-128.358 1119.13,-125.718 1124.62,-120.438C1130.1,-115.158 1132.84,-108.816 1132.84,-101.412C1132.84,-89.417 1124.89,-79.173 1108.99,-70.679L1131.63,-41.839C1134.21,-46.889 1136.22,-52.743 1137.66,-59.401L1153.76,-55.957C1151,-44.938 1147.27,-35.87 1142.57,-28.754C1148.36,-21.063 1154.93,-14.606 1162.28,-9.384L1151.86,2.927C1145.61,-1.09 1139.15,-7.031 1132.49,-14.893ZM1100.98,-80.665C1107.7,-84.625 1112.05,-88.097 1114.03,-91.082C1116.01,-94.066 1117,-97.366 1117,-100.982C1117,-105.286 1115.63,-108.801 1112.91,-111.527C1110.18,-114.254 1106.78,-115.617 1102.71,-115.617C1098.52,-115.617 1095.03,-114.268 1092.25,-111.571C1089.46,-108.873 1088.07,-105.573 1088.07,-101.67C1088.07,-99.719 1088.57,-97.667 1089.58,-95.515C1090.58,-93.363 1092.09,-91.082 1094.1,-88.671L1100.98,-80.665ZM1122.77,-27.118L1094.36,-62.328C1085.98,-57.335 1080.32,-52.7 1077.4,-48.425C1074.47,-44.149 1073.01,-39.916 1073.01,-35.727C1073.01,-30.619 1075.04,-25.31 1079.12,-19.8C1083.19,-14.291 1088.96,-11.536 1096.42,-11.536C1101.07,-11.536 1105.88,-12.985 1110.84,-15.883C1115.81,-18.782 1119.78,-22.526 1122.77,-27.118Z" style="fill:rgb(68,68,68);fill-rule:nonzero;"/>
        <path d="M1241.22,0L1226.85,0L1226.85,-126.206L1242.34,-126.206L1242.34,-81.181C1248.88,-89.388 1257.24,-93.492 1267.39,-93.492C1273.02,-93.492 1278.34,-92.358 1283.36,-90.091C1288.38,-87.824 1292.52,-84.639 1295.76,-80.536C1299,-76.432 1301.54,-71.482 1303.38,-65.685C1305.21,-59.889 1306.13,-53.69 1306.13,-47.09C1306.13,-31.422 1302.26,-19.312 1294.51,-10.761C1286.76,-2.21 1277.46,2.066 1266.62,2.066C1255.83,2.066 1247.36,-2.439 1241.22,-11.45L1241.22,0ZM1241.05,-46.402C1241.05,-35.44 1242.54,-27.52 1245.53,-22.641C1250.4,-14.664 1257.01,-10.675 1265.33,-10.675C1272.1,-10.675 1277.95,-13.616 1282.89,-19.499C1287.83,-25.382 1290.29,-34.148 1290.29,-45.799C1290.29,-57.737 1287.92,-66.546 1283.19,-72.228C1278.45,-77.91 1272.73,-80.751 1266.02,-80.751C1259.24,-80.751 1253.39,-77.81 1248.45,-71.927C1243.52,-66.044 1241.05,-57.536 1241.05,-46.402Z" style="fill:rgb(68,68,68);fill-rule:nonzero;"/>
        <path d="M1387.57,-29.442L1403.59,-27.462C1401.06,-18.107 1396.38,-10.847 1389.55,-5.682C1382.72,-0.517 1374,2.066 1363.38,2.066C1350.01,2.066 1339.41,-2.052 1331.57,-10.288C1323.74,-18.523 1319.82,-30.074 1319.82,-44.938C1319.82,-60.319 1323.78,-72.257 1331.7,-80.751C1339.62,-89.245 1349.89,-93.492 1362.52,-93.492C1374.75,-93.492 1384.73,-89.331 1392.48,-81.009C1400.23,-72.687 1404.1,-60.979 1404.1,-45.885C1404.1,-44.967 1404.07,-43.589 1404.02,-41.753L1335.83,-41.753C1336.41,-31.709 1339.25,-24.019 1344.36,-18.681C1349.46,-13.344 1355.84,-10.675 1363.47,-10.675C1369.15,-10.675 1374,-12.167 1378.02,-15.152C1382.03,-18.136 1385.22,-22.9 1387.57,-29.442ZM1336.69,-54.494L1387.75,-54.494C1387.06,-62.185 1385.11,-67.952 1381.89,-71.798C1376.95,-77.767 1370.56,-80.751 1362.69,-80.751C1355.58,-80.751 1349.59,-78.369 1344.74,-73.606C1339.89,-68.842 1337.21,-62.471 1336.69,-54.494Z" style="fill:rgb(68,68,68);fill-rule:nonzero;"/>
        <path d="M1422.35,35.21L1420.63,20.661C1424.02,21.579 1426.97,22.039 1429.5,22.039C1432.94,22.039 1435.7,21.465 1437.76,20.317C1439.83,19.169 1441.52,17.562 1442.84,15.496C1443.82,13.946 1445.39,10.101 1447.58,3.96C1447.86,3.099 1448.32,1.837 1448.95,0.172L1414.26,-91.426L1430.96,-91.426L1449.99,-38.482C1452.45,-31.767 1454.66,-24.707 1456.62,-17.304C1458.39,-24.42 1460.52,-31.365 1462.99,-38.137L1482.53,-91.426L1498.02,-91.426L1463.24,1.55C1459.51,11.593 1456.62,18.509 1454.55,22.297C1451.79,27.405 1448.64,31.15 1445.08,33.531C1441.52,35.913 1437.27,37.104 1432.34,37.104C1429.35,37.104 1426.03,36.473 1422.35,35.21Z" style="fill:rgb(68,68,68);fill-rule:nonzero;"/>
        <path d="M1505.43,-45.713C1505.43,-62.644 1510.13,-75.184 1519.55,-83.334C1527.41,-90.106 1536.99,-93.492 1548.3,-93.492C1560.87,-93.492 1571.14,-89.374 1579.12,-81.138C1587.1,-72.903 1591.09,-61.524 1591.09,-47.004C1591.09,-35.239 1589.32,-25.984 1585.79,-19.241C1582.26,-12.497 1577.13,-7.26 1570.38,-3.53C1563.64,0.201 1556.28,2.066 1548.3,2.066C1535.5,2.066 1525.16,-2.037 1517.27,-10.245C1509.37,-18.452 1505.43,-30.274 1505.43,-45.713ZM1521.35,-45.713C1521.35,-34.005 1523.91,-25.238 1529.02,-19.413C1534.12,-13.588 1540.55,-10.675 1548.3,-10.675C1555.99,-10.675 1562.39,-13.602 1567.5,-19.456C1572.61,-25.31 1575.16,-34.234 1575.16,-46.229C1575.16,-57.536 1572.59,-66.102 1567.45,-71.927C1562.32,-77.752 1555.93,-80.665 1548.3,-80.665C1540.55,-80.665 1534.12,-77.767 1529.02,-71.97C1523.91,-66.173 1521.35,-57.421 1521.35,-45.713Z" style="fill:rgb(68,68,68);fill-rule:nonzero;"/>
        <path d="M1609.25,0L1609.25,-91.426L1623.2,-91.426L1623.2,-78.427C1629.91,-88.47 1639.61,-93.492 1652.29,-93.492C1657.8,-93.492 1662.87,-92.502 1667.49,-90.522C1672.11,-88.542 1675.57,-85.945 1677.86,-82.731C1680.16,-79.517 1681.77,-75.7 1682.68,-71.281C1683.26,-68.412 1683.54,-63.39 1683.54,-56.216L1683.54,0L1668.05,0L1668.05,-55.613C1668.05,-61.926 1667.45,-66.647 1666.24,-69.775C1665.04,-72.903 1662.9,-75.399 1659.83,-77.264C1656.76,-79.13 1653.15,-80.062 1649.02,-80.062C1642.42,-80.062 1636.73,-77.967 1631.93,-73.778C1627.14,-69.588 1624.75,-61.639 1624.75,-49.931L1624.75,0L1609.25,0Z" style="fill:rgb(68,68,68);fill-rule:nonzero;"/>
        <path d="M1766.62,0L1766.62,-11.536C1760.82,-2.468 1752.3,2.066 1741.05,2.066C1733.76,2.066 1727.06,0.057 1720.95,-3.96C1714.84,-7.978 1710.1,-13.588 1706.75,-20.79C1703.39,-27.993 1701.71,-36.272 1701.71,-45.627C1701.71,-54.752 1703.23,-63.031 1706.27,-70.463C1709.31,-77.896 1713.88,-83.592 1719.96,-87.552C1726.04,-91.512 1732.84,-93.492 1740.36,-93.492C1745.87,-93.492 1750.78,-92.33 1755.08,-90.005C1759.39,-87.681 1762.89,-84.654 1765.59,-80.923L1765.59,-126.206L1781,-126.206L1781,0L1766.62,0ZM1717.63,-45.627C1717.63,-33.919 1720.1,-25.167 1725.04,-19.37C1729.98,-13.573 1735.8,-10.675 1742.52,-10.675C1749.29,-10.675 1755.04,-13.444 1759.78,-18.982C1764.51,-24.521 1766.88,-32.972 1766.88,-44.336C1766.88,-56.847 1764.47,-66.03 1759.65,-71.884C1754.83,-77.738 1748.88,-80.665 1741.83,-80.665C1734.94,-80.665 1729.19,-77.853 1724.57,-72.228C1719.94,-66.604 1717.63,-57.737 1717.63,-45.627Z" style="fill:rgb(68,68,68);fill-rule:nonzero;"/>
        <rect x="1809.75" y="-17.648" width="17.648" height="17.648" style="fill:rgb(68,68,68);fill-rule:nonzero;"/>
    </g>
    <g transform="matrix(0.85206,0,0,0.85206,16.3096,7.54389)">
        <path d="M7.523,-0.41C7.07,-0.262 6.6,-0.137 6.111,-0.035C5.623,0.066 5.098,0.117 4.535,0.117C3.262,0.117 2.27,-0.227 1.559,-0.914C0.848,-1.602 0.492,-2.576 0.492,-3.838C0.492,-5.213 0.837,-6.241 1.526,-6.923C2.216,-7.604 3.227,-7.945 4.559,-7.945C5.512,-7.945 6.432,-7.828 7.318,-7.594L7.318,-5.906L6.926,-5.906L6.768,-6.879C6.498,-7.07 6.175,-7.218 5.798,-7.321C5.421,-7.425 5.023,-7.477 4.605,-7.477C3.605,-7.477 2.874,-7.179 2.411,-6.583C1.948,-5.987 1.717,-5.076 1.717,-3.85C1.717,-2.697 1.955,-1.823 2.432,-1.228C2.908,-0.632 3.613,-0.334 4.547,-0.334C4.875,-0.334 5.219,-0.373 5.578,-0.451C5.938,-0.529 6.211,-0.623 6.398,-0.732L6.398,-2.965L5.391,-3.117L5.391,-3.434L8.291,-3.434L8.291,-3.117L7.523,-2.965L7.523,-0.41Z" style="fill:rgb(82,15,89);fill-rule:nonzero;"/>
        <path d="M14.209,-2.783C14.209,-0.85 13.35,0.117 11.631,0.117C10.803,0.117 10.178,-0.131 9.756,-0.627C9.334,-1.123 9.123,-1.842 9.123,-2.783C9.123,-3.713 9.334,-4.424 9.756,-4.916C10.178,-5.408 10.818,-5.654 11.678,-5.654C12.514,-5.654 13.145,-5.413 13.57,-4.931C13.996,-4.448 14.209,-3.732 14.209,-2.783ZM13.154,-2.783C13.154,-3.627 13.031,-4.238 12.785,-4.617C12.539,-4.996 12.154,-5.186 11.631,-5.186C11.119,-5.186 10.749,-5.004 10.521,-4.641C10.292,-4.277 10.178,-3.658 10.178,-2.783C10.178,-1.896 10.294,-1.269 10.526,-0.899C10.759,-0.53 11.127,-0.346 11.631,-0.346C12.146,-0.346 12.529,-0.537 12.779,-0.92C13.029,-1.303 13.154,-1.924 13.154,-2.783Z" style="fill:rgb(82,15,89);fill-rule:nonzero;"/>
        <path d="M16.816,-0.41L17.76,-0.264L17.76,0L14.906,0L14.906,-0.264L15.844,-0.41L15.844,-7.922L14.906,-8.063L14.906,-8.326L16.816,-8.326L16.816,-0.41Z" style="fill:rgb(82,15,89);fill-rule:nonzero;"/>
        <path d="M22.236,-0.41C21.795,-0.059 21.279,0.117 20.689,0.117C19.186,0.117 18.434,-0.822 18.434,-2.701C18.434,-3.666 18.646,-4.399 19.072,-4.901C19.498,-5.403 20.125,-5.654 20.953,-5.654C21.375,-5.654 21.803,-5.609 22.236,-5.52C22.213,-5.648 22.201,-5.973 22.201,-6.492L22.201,-7.922L21.275,-8.063L21.275,-8.326L23.174,-8.326L23.174,-0.41L23.854,-0.264L23.854,0L22.307,0L22.236,-0.41ZM19.488,-2.701C19.488,-1.959 19.613,-1.405 19.863,-1.04C20.113,-0.675 20.496,-0.492 21.012,-0.492C21.453,-0.492 21.85,-0.568 22.201,-0.721L22.201,-5.074C21.854,-5.141 21.457,-5.174 21.012,-5.174C19.996,-5.174 19.488,-4.35 19.488,-2.701Z" style="fill:rgb(82,15,89);fill-rule:nonzero;"/>
        <path d="M28.957,-0.334C28.766,-0.193 28.502,-0.083 28.166,-0.003C27.83,0.077 27.486,0.117 27.135,0.117C25.35,0.117 24.457,-0.854 24.457,-2.795C24.457,-3.713 24.685,-4.419 25.14,-4.913C25.595,-5.407 26.246,-5.654 27.094,-5.654C27.621,-5.654 28.197,-5.594 28.822,-5.473L28.822,-3.938L28.5,-3.938L28.248,-4.91C27.924,-5.094 27.535,-5.186 27.082,-5.186C26.035,-5.186 25.512,-4.389 25.512,-2.795C25.512,-1.967 25.671,-1.376 25.989,-1.022C26.308,-0.669 26.801,-0.492 27.469,-0.492C28.039,-0.492 28.535,-0.557 28.957,-0.686L28.957,-0.334Z" style="fill:rgb(82,15,89);fill-rule:nonzero;"/>
        <path d="M33.217,-5.654L33.217,-4.166L32.965,-4.166L32.625,-4.811C32.43,-4.811 32.198,-4.784 31.931,-4.731C31.663,-4.679 31.432,-4.609 31.236,-4.523L31.236,-0.41L32.18,-0.264L32.18,0L29.566,0L29.566,-0.264L30.264,-0.41L30.264,-5.098L29.566,-5.244L29.566,-5.508L31.172,-5.508L31.225,-4.822C31.459,-5.018 31.776,-5.205 32.177,-5.385C32.577,-5.564 32.895,-5.654 33.129,-5.654L33.217,-5.654Z" style="fill:rgb(82,15,89);fill-rule:nonzero;"/>
        <path d="M34.846,-2.771L34.846,-2.666C34.846,-2.127 34.905,-1.708 35.024,-1.409C35.144,-1.11 35.327,-0.883 35.575,-0.727C35.823,-0.57 36.148,-0.492 36.551,-0.492C36.762,-0.492 37.012,-0.51 37.301,-0.545C37.59,-0.58 37.828,-0.619 38.016,-0.662L38.016,-0.334C37.828,-0.213 37.573,-0.107 37.251,-0.018C36.929,0.072 36.6,0.117 36.264,0.117C35.408,0.117 34.782,-0.113 34.386,-0.574C33.989,-1.035 33.791,-1.775 33.791,-2.795C33.791,-3.756 33.992,-4.473 34.395,-4.945C34.797,-5.418 35.371,-5.654 36.117,-5.654C37.527,-5.654 38.232,-4.854 38.232,-3.252L38.232,-2.771L34.846,-2.771ZM36.117,-5.186C35.711,-5.186 35.399,-5.021 35.183,-4.693C34.966,-4.365 34.857,-3.881 34.857,-3.24L37.213,-3.24C37.213,-3.939 37.123,-4.438 36.943,-4.737C36.764,-5.036 36.488,-5.186 36.117,-5.186Z" style="fill:rgb(82,15,89);fill-rule:nonzero;"/>
        <path d="M42.885,-1.547C42.885,-1 42.712,-0.586 42.366,-0.305C42.021,-0.023 41.51,0.117 40.834,0.117C40.561,0.117 40.259,0.089 39.929,0.032C39.599,-0.024 39.34,-0.088 39.152,-0.158L39.152,-1.512L39.416,-1.512L39.703,-0.744C39.996,-0.479 40.377,-0.346 40.846,-0.346C41.604,-0.346 41.982,-0.67 41.982,-1.318C41.982,-1.795 41.684,-2.135 41.086,-2.338L40.564,-2.508C40.17,-2.637 39.883,-2.768 39.703,-2.9C39.523,-3.033 39.385,-3.196 39.287,-3.39C39.189,-3.583 39.141,-3.816 39.141,-4.09C39.141,-4.574 39.306,-4.956 39.636,-5.235C39.966,-5.515 40.412,-5.654 40.975,-5.654C41.377,-5.654 41.881,-5.594 42.486,-5.473L42.486,-4.271L42.211,-4.271L41.965,-4.91C41.758,-5.094 41.432,-5.186 40.986,-5.186C40.67,-5.186 40.429,-5.107 40.263,-4.951C40.097,-4.795 40.014,-4.584 40.014,-4.318C40.014,-4.096 40.089,-3.908 40.239,-3.756C40.39,-3.604 40.617,-3.477 40.922,-3.375C41.496,-3.18 41.871,-3.037 42.047,-2.947C42.223,-2.857 42.372,-2.747 42.495,-2.616C42.618,-2.485 42.714,-2.336 42.782,-2.168C42.851,-2 42.885,-1.793 42.885,-1.547Z" style="fill:rgb(82,15,89);fill-rule:nonzero;"/>
        <path d="M45.275,0.117C44.9,0.117 44.62,0.006 44.435,-0.217C44.249,-0.439 44.156,-0.752 44.156,-1.154L44.156,-5.016L43.436,-5.016L43.436,-5.279L44.168,-5.508L44.76,-6.756L45.129,-6.756L45.129,-5.508L46.389,-5.508L46.389,-5.016L45.129,-5.016L45.129,-1.26C45.129,-1.006 45.187,-0.814 45.302,-0.686C45.417,-0.557 45.568,-0.492 45.756,-0.492C45.982,-0.492 46.258,-0.523 46.582,-0.586L46.582,-0.205C46.445,-0.111 46.248,-0.034 45.99,0.026C45.732,0.087 45.494,0.117 45.275,0.117Z" style="fill:rgb(82,15,89);fill-rule:nonzero;"/>
    </g>
    <path d="M2.765,6.173C2.5,6.177 2.236,6.204 1.978,6.262C1.978,6.262 1.759,6.645 1.643,7.042C0.732,10.14 3.959,14.039 7.217,13.267C8.682,10.687 6.599,6.502 3.19,6.19C3.049,6.177 2.907,6.172 2.765,6.173L2.765,6.173ZM8.579,13.346C8.73,13.336 9.575,13.274 10.182,13.012C12.68,11.933 14.263,8.629 12.92,6.265C12.64,6.198 12.347,6.172 12.055,6.173C11.439,6.178 10.827,6.319 10.271,6.581C10.525,7.271 10.655,8.015 10.659,8.76C10.681,9.858 10.427,10.973 9.845,11.935C9.517,12.477 9.085,12.969 8.579,13.346L8.579,13.346ZM9.738,7.205C9.377,5.991 8.602,4.944 7.443,4.439C7.44,4.44 7.437,4.442 7.433,4.443C6.612,4.81 5.938,5.481 5.513,6.282C7.592,7.627 8.918,10.321 8.199,12.727C8.199,12.727 8.749,12.27 9.133,11.738C9.923,10.495 10.181,8.753 9.738,7.205Z" style="fill:rgb(220,201,51);fill-rule:nonzero;"/>
    <path d="M7.448,0.45C11.559,0.45 14.897,3.787 14.897,7.898C14.897,12.009 11.559,15.347 7.448,15.347C3.338,15.347 0,12.009 0,7.898C0,3.787 3.338,0.45 7.448,0.45ZM7.448,1.165C11.165,1.165 14.182,4.182 14.182,7.898C14.182,11.614 11.165,14.632 7.448,14.632C3.732,14.632 0.715,11.614 0.715,7.898C0.715,4.182 3.732,1.165 7.448,1.165Z" style="fill:rgb(181,181,181);"/>
    <g transform="matrix(0.19446,0,0,0.19446,52.788,14.052)">
        <path d="M3.697,-7.547L2.484,-7.395L2.484,-0.504L4.031,-0.504C4.863,-0.504 5.475,-0.543 5.865,-0.621L6.229,-2.256L6.609,-2.256L6.504,0L0.346,0L0.346,-0.311L1.354,-0.469L1.354,-7.395L0.346,-7.547L0.346,-7.857L3.697,-7.857L3.697,-7.547Z" style="fill:rgb(82,15,89);fill-rule:nonzero;"/>
        <path d="M9.287,0.117C8.912,0.117 8.632,0.006 8.446,-0.217C8.261,-0.439 8.168,-0.752 8.168,-1.154L8.168,-5.016L7.447,-5.016L7.447,-5.279L8.18,-5.508L8.771,-6.756L9.141,-6.756L9.141,-5.508L10.4,-5.508L10.4,-5.016L9.141,-5.016L9.141,-1.26C9.141,-1.006 9.198,-0.814 9.313,-0.686C9.429,-0.557 9.58,-0.492 9.768,-0.492C9.994,-0.492 10.27,-0.523 10.594,-0.586L10.594,-0.205C10.457,-0.111 10.26,-0.034 10.002,0.026C9.744,0.087 9.506,0.117 9.287,0.117Z" style="fill:rgb(82,15,89);fill-rule:nonzero;"/>
        <path d="M14.9,-0.41C14.459,-0.059 13.943,0.117 13.354,0.117C11.85,0.117 11.098,-0.822 11.098,-2.701C11.098,-3.666 11.311,-4.399 11.736,-4.901C12.162,-5.403 12.789,-5.654 13.617,-5.654C14.039,-5.654 14.467,-5.609 14.9,-5.52C14.877,-5.648 14.865,-5.973 14.865,-6.492L14.865,-7.922L13.939,-8.063L13.939,-8.326L15.838,-8.326L15.838,-0.41L16.518,-0.264L16.518,0L14.971,0L14.9,-0.41ZM12.152,-2.701C12.152,-1.959 12.277,-1.405 12.527,-1.04C12.777,-0.675 13.16,-0.492 13.676,-0.492C14.117,-0.492 14.514,-0.568 14.865,-0.721L14.865,-5.074C14.518,-5.141 14.121,-5.174 13.676,-5.174C12.66,-5.174 12.152,-4.35 12.152,-2.701Z" style="fill:rgb(82,15,89);fill-rule:nonzero;"/>
    </g>
</svg>
