<svg viewBox="0 0 56 20" xmlns="http://www.w3.org/2000/svg" fill-rule="evenodd" clip-rule="evenodd" stroke-linejoin="round" stroke-miterlimit="1.4142">
  <path fill="none" d="M0 0h56v20H0z"/>
  <g fill="#520f59" fill-rule="nonzero">
    <path d="M18.395 10.3072l-.6028.0757v3.4256h.7686c.4139 0 .7177-.0191.9115-.0582l.181-.8125h.189l-.0519 1.1211h-3.0612v-.1547l.5008-.0781v-3.4432l-.5008-.0757v-.154h1.6658v.154zM20.9578 12.681v.0526c0 .268.0303.476.0893.6244.059.1491.1507.2623.2735.3397.1236.0773.2855.1164.4848.1164.1053 0 .2297-.0088.3732-.0263.1435-.0176.2623-.0367.3556-.0582v.1634c-.0933.0598-.22.1125-.3803.1571a1.8203 1.8203 0 0 1-.4912.067c-.425 0-.736-.1148-.933-.3437-.197-.2288-.2958-.5972-.2958-1.1036 0-.4776.0997-.834.2998-1.0693.2002-.2352.4856-.3524.8564-.3524.701 0 1.0518.3979 1.0518 1.1945v.2384h-1.6841zm.6323-1.2c-.2017 0-.3564.082-.4649.2447-.1076.1635-.161.4043-.161.7225h1.1705c0-.3477-.0446-.5957-.134-.744-.0892-.1491-.2264-.2233-.4106-.2233zM25.3825 12.1858c0 .315-.094.5526-.2823.7137-.1881.161-.4593.2416-.8125.2416-.1595 0-.307-.0143-.4434-.043l-.1834.3811c.0064.0327.0439.0638.114.0933.0694.0295.1572.0438.2616.0438h.8102c.295 0 .5143.0638.657.1922.1427.1284.2137.3046.2137.5303 0 .2033-.0566.3811-.1706.5326-.1133.1515-.28.2688-.4992.3509-.2193.083-.4856.1244-.7982.1244-.3724 0-.657-.0574-.8516-.1723-.1954-.1148-.2926-.2774-.2926-.4895 0-.103.0343-.2042.1044-.3039.0702-.1004.1978-.2168.3844-.3516a.6106.6106 0 0 1-.2791-.189c-.0758-.0893-.114-.1858-.114-.2886l.46-.5183c-.307-.1436-.46-.4258-.46-.8477 0-.299.0948-.5302.2838-.6929.1898-.1635.4649-.2448.8261-.2448.0718 0 .1643.0072.2767.0215.1124.0152.1986.032.2592.051l.6435-.3229.102.1252-.405.4194c.1307.146.1953.3605.1953.6435zm-.1196 2.243c0-.1107-.0335-.1969-.102-.259-.0678-.0623-.1707-.0934-.3087-.0934h-1.0597c-.0821.0702-.1483.1587-.2001.2664-.051.1076-.0766.208-.0766.3014 0 .1674.0598.287.1802.3596.1204.0734.3046.1092.5534.1092.3246 0 .5741-.0598.7504-.1802.1754-.1204.2631-.2886.2631-.504zm-.9696-1.5086c.2113 0 .3612-.0606.4497-.1826.0885-.1212.1324-.3046.1324-.5518 0-.2583-.0455-.4417-.1364-.5518-.0917-.11-.2384-.1642-.4401-.1642-.2034 0-.3533.055-.4482.1658-.0957.1109-.1427.2943-.1427.5502 0 .2568.0462.4426.1395.5598.0933.1164.2416.1746.4458.1746zM27.1854 11.26c.299 0 .5191.0607.6603.1835.1403.122.2105.3093.2105.5621v1.8492l.3412.0733v.1308h-.7519l-.055-.2735c-.2217.2209-.504.3317-.8476.3317-.4681 0-.7017-.2719-.7017-.8157 0-.1826.035-.3333.106-.453.071-.1195.1842-.2104.3397-.2734.1547-.063.3804-.0973.6754-.1037l.4106-.0112v-.4282c0-.189-.0342-.3277-.1036-.417-.0686-.0893-.1746-.134-.319-.134-.1937 0-.3716.0455-.5326.1372l-.099.3405h-.1634v-.5973c.315-.0677.5917-.1012.8301-.1012zm.3875 1.4035l-.382.012c-.2599.0095-.436.0597-.5278.1514-.0925.091-.1387.2432-.1387.457 0 .342.1387.5127.4162.5127.1324 0 .2464-.0152.3429-.0447a2.167 2.167 0 0 0 .2894-.1156v-.9728zM29.548 13.8548l.469.0733v.1308h-1.4186v-.1308l.4657-.0733v-3.7342l-.4657-.0694v-.1316h.9497v3.9352zM32.032 13.0071h.1897l.102.5271c.0719.0917.1955.1723.3717.2424.1754.0694.3484.1045.5199.1045.271 0 .484-.0694.6363-.2081.1523-.1388.228-.331.228-.575 0-.1403-.0295-.256-.0885-.3468-.059-.0917-.1371-.1683-.2328-.232a1.5263 1.5263 0 0 0-.3277-.1595 38.8682 38.8682 0 0 0-.3772-.1332 4.75 4.75 0 0 1-.3772-.1483 1.2981 1.2981 0 0 1-.3277-.2065c-.0965-.0838-.1738-.1874-.2328-.3102-.0598-.1236-.0893-.2751-.0893-.4561 0-.311.1164-.5542.35-.7312.2329-.1763.5558-.2648.9696-.2648.3142 0 .6563.0415 1.0255.1252v.8126h-.1898l-.102-.4777c-.1978-.1435-.4426-.2153-.7337-.2153-.2599 0-.4632.0527-.61.1587-.1467.1053-.22.252-.22.4378 0 .1268.0295.2312.0885.315.0598.0837.1371.1546.2336.2136.0957.0598.2057.1109.3285.1531.1236.0431.2496.087.3788.1324.1292.0463.2552.0973.3788.1547.1235.0574.2328.13.3293.2185.0957.0885.1738.1961.2328.323.059.1275.0885.2846.0885.4704 0 .3772-.1148.669-.346.8755-.2313.2065-.5646.3102-.9992.3102a3.7026 3.7026 0 0 1-.6323-.055c-.2113-.0375-.4003-.0877-.5654-.1515v-.9035zM35.7023 12.681v.0526c0 .268.0295.476.0885.6244.0598.1491.1508.2623.2743.3397.1228.0773.2847.1164.4849.1164.1052 0 .2288-.0088.3731-.0263.1436-.0176.2616-.0367.3549-.0582v.1634c-.0933.0598-.2201.1125-.3796.1571a1.8246 1.8246 0 0 1-.4912.067c-.425 0-.7368-.1148-.9337-.3437-.197-.2288-.295-.5972-.295-1.1036 0-.4776.0996-.834.2998-1.0693.2001-.2352.4856-.3524.8564-.3524.7009 0 1.051.3979 1.051 1.1945v.2384h-1.6834zm.6324-1.2c-.2026 0-.3573.082-.465.2447-.1076.1635-.1618.4043-.1618.7225h1.1714c0-.3477-.0447-.5957-.134-.744-.0893-.1491-.2264-.2233-.4106-.2233zM39.5266 11.2481v.74h-.1252l-.169-.3206c-.0965 0-.2121.0128-.3453.0391-.1324.0263-.248.0606-.3445.1037v2.0445l.4689.0733v.1308h-1.299v-.1308l.3461-.0733v-2.33l-.346-.0726v-.1315h.7973l.0264.3412c.1164-.0972.2743-.1905.4736-.2798.1986-.0893.3564-.134.4729-.134h.0438zM41.202 14.1171h-.2162l-1.1267-2.5923-.2799-.0726v-.1315h1.2759v.1315l-.4338.0782.7982 1.8906.763-1.8962-.4345-.0726v-.1315h1.0135v.1315l-.2616.0606-1.098 2.6043zM43.6659 10.4268c0 .0853-.0311.1595-.0933.2217a.3084.3084 0 0 1-.224.0925c-.0854 0-.1596-.0311-.2218-.0925-.0622-.0622-.0933-.1364-.0933-.2217 0-.0877.0311-.1619.0933-.224.0622-.0623.1364-.0934.2217-.0934a.306.306 0 0 1 .224.0933c.0623.0622.0934.1364.0934.224zm-.0295 3.428l.4688.0733v.1308h-1.4177v-.1308l.4656-.0733v-2.33l-.3875-.0726v-.1315h.8708v2.534zM46.6832 13.893c-.0949.0694-.2257.1244-.3931.1643a2.1993 2.1993 0 0 1-.5127.0598c-.8875 0-1.3309-.4824-1.3309-1.4473 0-.4569.1132-.8077.3389-1.0533.2265-.2456.5502-.3684.972-.3684.2616 0 .5486.0303.8588.0901v.7631h-.1603l-.1252-.4832c-.161-.0917-.354-.1372-.5797-.1372-.5199 0-.7806.3963-.7806 1.189 0 .4114.0797.7048.2376.881.1587.1755.4035.2632.7352.2632.2839 0 .5303-.0319.74-.0957v.1746zM47.6241 12.681v.0526c0 .268.0295.476.0893.6244.059.1491.15.2623.2735.3397.1236.0773.2847.1164.4848.1164.1053 0 .2289-.0088.3732-.0263.1435-.0176.2616-.0367.3549-.0582v.1634c-.0933.0598-.2201.1125-.3796.1571a1.8203 1.8203 0 0 1-.4912.067c-.425 0-.736-.1148-.9337-.3437-.197-.2288-.295-.5972-.295-1.1036 0-.4776.0996-.834.2997-1.0693.2002-.2352.4857-.3524.8564-.3524.701 0 1.051.3979 1.051 1.1945v.2384h-1.6833zm.6323-1.2c-.2017 0-.3572.082-.4648.2447-.1077.1635-.162.4043-.162.7225h1.1715c0-.3477-.0447-.5957-.134-.744-.0893-.1491-.2265-.2233-.4107-.2233zM51.6206 13.2902c0 .272-.086.4777-.2575.6172-.1723.1395-.4258.2097-.7623.2097-.1356 0-.2855-.0143-.4498-.0423-.1642-.0279-.2926-.0598-.3859-.0948v-.6722h.1308l.1427.3811c.146.1324.335.1978.5685.1978.3764 0 .5646-.1611.5646-.4833 0-.2368-.1483-.4058-.4457-.5063l-.2592-.0845c-.1962-.0646-.3389-.1292-.4282-.1954a.6867.6867 0 0 1-.2065-.2432c-.0487-.0965-.0726-.212-.0726-.3484 0-.2409.0822-.4306.2456-.5694.1643-.1387.386-.2081.6658-.2081.2002 0 .4506.0303.7512.0901v.5973h-.1364l-.1228-.3174c-.1028-.0917-.2647-.1372-.4864-.1372-.157 0-.2767.0391-.3596.1165-.0821.0781-.1236.1826-.1236.315 0 .1108.0375.204.1124.2798.0742.0758.1874.1388.339.189.2854.0973.472.1682.5589.2129.0877.0446.1619.0989.2233.1643a.7273.7273 0 0 1 .1427.2224c.0335.0838.051.1866.051.3094z"/>
  </g>
  <g fill="#444" fill-rule="nonzero">
    <path d="M5.735 18.676l.2235-.0196c.0105.0895.0352.163.0738.2203.0387.0574.0987.1038.18.1392.0815.0354.173.0531.2748.0531.0903 0 .17-.0134.2392-.0403.0692-.0268.1207-.0637.1544-.1104a.2563.2563 0 0 0 .0507-.1532.2329.2329 0 0 0-.0488-.1472c-.0326-.0419-.0863-.077-.1612-.1055-.048-.0188-.1542-.0479-.3186-.0873-.1644-.0395-.2795-.0767-.3455-.1117-.0854-.0448-.149-.1003-.191-.1667a.4083.4083 0 0 1-.0629-.2227.4548.4548 0 0 1 .077-.2533c.0512-.0786.126-.1382.2246-.1789.0984-.0407.2079-.061.3283-.061.1327 0 .2497.0214.351.064.1013.0428.1792.1057.2338.1887.0545.083.0838.177.0879.282l-.227.017c-.0123-.113-.0536-.1985-.124-.2563-.0704-.0578-.1744-.0867-.3119-.0867-.1432 0-.2476.0263-.3131.0788-.0655.0525-.0983.1157-.0983.1898 0 .0643.0232.1172.0696.1587.0456.0415.1646.084.357.1276.1925.0435.3246.0815.3962.1141.1042.048.181.1088.2307.1825.0497.0736.0745.1585.0745.2545 0 .0952-.0273.185-.0818.2692-.0545.0842-.1329.1497-.235.1965-.1021.0468-.217.0702-.3449.0702-.162 0-.2976-.0236-.407-.0708-.1095-.0472-.1954-.1182-.2577-.213-.0622-.0948-.095-.202-.0982-.3217zM8.3426 18.8334l.227.028c-.0358.1327-.1021.2357-.199.309-.0968.0732-.2205.1098-.371.1098-.1897 0-.34-.0584-.4511-.1752-.1111-.1168-.1667-.2805-.1667-.4913 0-.2181.0562-.3874.1685-.5078.1123-.1205.258-.1807.437-.1807.1734 0 .315.059.4248.177.11.118.1648.284.1648.498 0 .013-.0004.0326-.0012.0586H7.609c.0081.1425.0484.2515.1209.3272.0724.0757.1627.1135.271.1135.0805 0 .1493-.0211.2063-.0635.057-.0423.1021-.1098.1355-.2026zm-.7215-.3552h.7239c-.0098-.109-.0374-.1909-.083-.2454-.07-.0846-.1607-.127-.2722-.127-.101 0-.1858.0338-.2546.1014-.0687.0675-.1068.1579-.114.271zM8.843 19.2509v-1.2964h.1978v.1965c.0505-.092.097-.1526.1398-.1819a.244.244 0 0 1 .141-.044c.074 0 .1493.0237.2258.0709l-.0757.2039c-.0537-.0318-.1074-.0477-.161-.0477a.2092.2092 0 0 0-.1295.0434c-.0382.0289-.0655.069-.0818.1202a.8558.8558 0 0 0-.0366.2564v.6787h-.2197zM10.0382 19.2509l-.4932-1.2964h.232l.2783.7764c.03.0838.0577.1709.083.2612a3.7395 3.7395 0 0 1 .0818-.2466l.288-.791h.2259l-.4907 1.2964h-.2051zM10.9293 17.714v-.2527h.2197v.2527h-.2197zm0 1.5369v-1.2964h.2197v1.2964h-.2197zM11.4835 19.2509v-1.2964h.1978v.1843c.0952-.1424.2327-.2136.4126-.2136.0781 0 .15.014.2154.0421.0655.028.1146.0649.1471.1105.0326.0455.0554.0997.0684.1623.0081.0407.0122.112.0122.2137v.7971h-.2197v-.7886c0-.0895-.0086-.1565-.0257-.2008a.2111.2111 0 0 0-.091-.1062c-.0434-.0265-.0945-.0397-.1531-.0397-.0936 0-.1744.0297-.2423.0891-.068.0594-.102.1722-.102.3382v.708h-.2197zM12.8336 19.3583l.2137.0318c.009.0659.0337.1139.0744.144.0546.0407.129.061.2234.061.1018 0 .1803-.0203.2356-.061.0554-.0407.0928-.0977.1123-.1709.0114-.0447.0167-.1387.0159-.282-.096.1131-.2157.1697-.3589.1697-.1782 0-.3162-.0643-.4138-.1929-.0977-.1286-.1465-.2828-.1465-.4626 0-.1237.0224-.2379.0671-.3424.0448-.1046.1097-.1854.1947-.2424.085-.057.185-.0854.2997-.0854.153 0 .2792.0618.3785.1855v-.1562h.2026v1.1206c0 .2018-.0206.3449-.0616.4291-.0411.0842-.1063.1508-.1954.1996-.089.0488-.1987.0732-.329.0732-.1546 0-.2795-.0347-.3747-.1043-.0952-.0696-.1412-.1744-.138-.3144zm.182-.7788c0 .17.0337.2942.1013.3723.0675.0781.1521.1172.2539.1172.1009 0 .1855-.0389.2539-.1166.0683-.0777.1025-.1996.1025-.3656 0-.1587-.0352-.2783-.1056-.3589-.0704-.0805-.1552-.1208-.2545-.1208-.0977 0-.1807.0396-.249.119-.0684.0793-.1026.1971-.1026.3534zM15.1982 19.2509l-.3967-1.2964h.227l.2063.7483.077.2783c.0032-.0138.0256-.103.067-.2673l.2064-.7593h.2258l.1941.752.0647.2478.0745-.2503.2221-.7495h.2137l-.4053 1.2964h-.2283l-.2063-.7764-.05-.221-.2625.9974h-.2295zM16.7656 17.714v-.2527h.2198v.2527h-.2198zm0 1.5369v-1.2964h.2198v1.2964h-.2198zM17.7996 19.0544l.0317.194a.8154.8154 0 0 1-.166.0196c-.0798 0-.1416-.0126-.1856-.0379-.0439-.0252-.0748-.0583-.0927-.0994-.018-.0411-.0269-.1276-.0269-.2594v-.746h-.1611v-.1708h.1611v-.321l.2185-.132v.453h.221v.1709h-.221v.758c0 .0627.0039.103.0116.121a.0915.0915 0 0 0 .0379.0426c.0175.0106.0425.0159.075.0159a.7142.7142 0 0 0 .0965-.0085zM18.0144 19.2509v-1.7896h.2198v.6421c.1025-.1188.232-.1782.3882-.1782.096 0 .1794.0189.2502.0567.0708.0379.1215.0902.152.157.0305.0667.0458.1635.0458.2905v.8215h-.2198v-.8215c0-.11-.0238-.1899-.0714-.24-.0476-.05-.115-.075-.202-.075a.3563.3563 0 0 0-.1837.0507c-.0574.0337-.0983.0795-.1227.1373-.0244.0578-.0366.1375-.0366.2393v.7092h-.2198zM20.1007 17.714v-.2527h.2196v.2527h-.2196zm0 1.5369v-1.2964h.2196v1.2964h-.2196zM20.6548 19.2509v-1.2964h.1979v.1843c.0951-.1424.2327-.2136.4126-.2136a.541.541 0 0 1 .2154.0421c.0655.028.1146.0649.147.1105.0327.0455.0555.0997.0685.1623.0081.0407.0122.112.0122.2137v.7971h-.2198v-.7886c0-.0895-.0085-.1565-.0256-.2008a.2108.2108 0 0 0-.091-.1062c-.0435-.0265-.0945-.0397-.153-.0397-.0937 0-.1745.0297-.2424.0891-.068.0594-.102.1722-.102.3382v.708h-.2198zM22.525 19.0544l.0318.194a.8157.8157 0 0 1-.166.0196c-.0797 0-.1417-.0126-.1857-.0379-.0438-.0252-.0748-.0583-.0927-.0994-.0179-.0411-.0268-.1276-.0268-.2594v-.746h-.1612v-.1708h.1612v-.321l.2185-.132v.453h.221v.1709h-.221v.758c0 .0627.0039.103.0116.121a.0911.0911 0 0 0 .0378.0426c.0176.0106.0425.0159.0751.0159a.7137.7137 0 0 0 .0964-.0085zM23.6274 18.8334l.227.028c-.0359.1327-.102.2357-.199.309-.0968.0732-.2206.1098-.371.1098-.1897 0-.34-.0584-.451-.1752-.1113-.1168-.1667-.2805-.1667-.4913 0-.2181.0562-.3874.1685-.5078.1123-.1205.2579-.1807.437-.1807.1733 0 .315.059.4248.177.1098.118.1648.284.1648.498 0 .013-.0004.0326-.0013.0586h-.9668c.0081.1425.0484.2515.1208.3272.0725.0757.1628.1135.271.1135.0807 0 .1493-.0211.2063-.0635.057-.0423.1021-.1098.1356-.2026zm-.7215-.3552h.724c-.0099-.109-.0375-.1909-.083-.2454-.07-.0846-.1608-.127-.2723-.127-.101 0-.1858.0338-.2545.1014-.0688.0675-.1068.1579-.1142.271zM24.09 19.3583l.2136.0318c.009.0659.0338.1139.0745.144.0546.0407.129.061.2235.061.1016 0 .1802-.0203.2355-.061.0553-.0407.0927-.0977.1123-.1709.0115-.0447.0167-.1387.0159-.282-.096.1131-.2157.1697-.359.1697-.1782 0-.3161-.0643-.4137-.1929-.0977-.1286-.1465-.2828-.1465-.4626 0-.1237.0223-.2379.0671-.3424.0448-.1046.1096-.1854.1947-.2424.085-.057.185-.0854.2998-.0854.153 0 .279.0618.3783.1855v-.1562h.2028v1.1206c0 .2018-.0206.3449-.0617.4291s-.1062.1508-.1954.1996c-.089.0488-.1988.0732-.329.0732-.1546 0-.2795-.0347-.3748-.1043-.0951-.0696-.141-.1744-.1378-.3144zm.1819-.7788c0 .17.0337.2942.1014.3723.0675.0781.1521.1172.2538.1172.101 0 .1856-.0389.254-.1166.0683-.0777.1025-.1996.1025-.3656 0-.1587-.0352-.2783-.1057-.3589-.0703-.0805-.1551-.1208-.2544-.1208-.0977 0-.1806.0396-.2491.119-.0683.0793-.1025.1971-.1025.3534zM25.5183 19.2509v-1.2964h.1978v.1965c.0504-.092.097-.1526.1397-.1819a.244.244 0 0 1 .141-.044c.0741 0 .1494.0237.2258.0709l-.0757.2039c-.0536-.0318-.1073-.0477-.161-.0477a.2094.2094 0 0 0-.1295.0434c-.0382.0289-.0654.069-.0817.1202-.0246.0781-.0367.1636-.0367.2564v.6787h-.2197zM26.3545 17.714v-.2527h.2198v.2527h-.2198zm0 1.5369v-1.2964h.2198v1.2964h-.2198zM27.3885 19.0544l.0316.194a.8144.8144 0 0 1-.1659.0196c-.0798 0-.1416-.0126-.1856-.0379-.044-.0252-.0749-.0583-.0927-.0994-.0179-.0411-.027-.1276-.027-.2594v-.746h-.161v-.1708h.161v-.321l.2185-.132v.453h.2211v.1709h-.221v.758c0 .0627.004.103.0116.121a.0922.0922 0 0 0 .0378.0426c.0175.0106.0426.0159.075.0159a.7155.7155 0 0 0 .0966-.0085zM27.5935 19.7502l-.0243-.2063c.0479.013.0899.0195.1256.0195.049 0 .088-.0081.1173-.0244a.2004.2004 0 0 0 .072-.0684c.0137-.022.0362-.0765.067-.1635a1.6906 1.6906 0 0 1 .0196-.0538l-.4919-1.2988h.2368l.2697.7507c.035.0952.0664.1954.094.3003a2.952 2.952 0 0 1 .0904-.2954l.277-.7556h.2198l-.4931 1.3184c-.053.1424-.094.2405-.1233.2942-.0391.0724-.0839.1255-.1342.1593-.0505.0337-.1108.0506-.1808.0506-.0423 0-.0895-.009-.1416-.0268z"/>
  </g>
  <g fill="#444" fill-rule="nonzero">
    <path d="M28.7309 19.2509v-.2502h.2502v.2502c0 .092-.0163.1662-.0488.2228-.0326.0565-.0842.1003-.155.1312l-.061-.094c.0463-.0203.0805-.0502.1025-.0897.022-.0395.0341-.0962.0366-.1703h-.1245zM30.0957 19.2509v-1.7896h1.294v.2112h-1.0572v.5481h.99v.21h-.99v.6091h1.0986v.2112h-1.3354zM32.5762 19.091c-.0814.0692-.1597.118-.235.1465a.6788.6788 0 0 1-.2423.0427c-.1424 0-.2519-.0348-.3284-.1044-.0765-.0696-.1147-.1585-.1147-.2667a.3548.3548 0 0 1 .0433-.174.3586.3586 0 0 1 .1135-.1263.5336.5336 0 0 1 .1581-.072c.0431-.0114.1082-.0224.1953-.033.1774-.0211.308-.0464.3919-.0757a2.8332 2.8332 0 0 0 .0012-.0574c0-.0895-.0208-.1525-.0623-.1892-.0561-.0496-.1395-.0744-.2502-.0744-.1034 0-.1797.018-.2289.0543-.0492.0362-.0857.1003-.1093.1923l-.2148-.0293c.0195-.092.0517-.1663.0964-.2228.0448-.0566.1095-.1001.1941-.1306.0847-.0306.1827-.0458.2942-.0458.1107 0 .2006.013.2698.039.0692.026.12.0588.1526.0983.0325.0395.0553.0893.0684.1496.0073.0374.011.105.011.2026v.293c0 .2042.0046.3334.014.3876a.4892.4892 0 0 0 .0555.1556h-.2295c-.0228-.0456-.0374-.0989-.044-.16zm-.0183-.4907c-.0798.0325-.1994.0602-.359.083-.0903.013-.1541.0276-.1916.0439a.1876.1876 0 0 0-.1172.1758c0 .0586.0222.1074.0666.1465.0443.039.1092.0586.1947.0586.0846 0 .1599-.0185.2258-.0556.066-.037.1144-.0877.1453-.152.0236-.0496.0354-.1228.0354-.2197v-.0805zM33.0327 18.864l.2173-.0342c.0122.087.0462.1538.102.2001.0557.0464.1336.0696.2337.0696.101 0 .1758-.0205.2246-.0616.0489-.0411.0733-.0893.0733-.1447 0-.0496-.0216-.0887-.0647-.1172-.0301-.0195-.105-.0443-.2246-.0744-.1612-.0407-.2729-.076-.3351-.1056-.0623-.0297-.1095-.0708-.1416-.1233a.3266.3266 0 0 1-.0482-.174.334.334 0 0 1 .0396-.1605.3556.3556 0 0 1 .108-.1227c.0342-.0252.0808-.0466.1398-.064a.6646.6646 0 0 1 .1899-.0263c.1017 0 .191.0146.268.044.0768.0292.1336.0689.1702.119.0366.05.0619.117.0757.2008l-.2149.0293c-.0097-.0668-.038-.1189-.0848-.1563-.0468-.0374-.113-.0561-.1984-.0561-.1009 0-.1729.0166-.216.05-.0432.0334-.0647.0724-.0647.1172 0 .0285.009.0541.0268.0769.018.0236.046.0431.0843.0586.022.0081.0866.0269.194.0561.1555.0416.264.0755.3254.102.0614.0264.1096.0649.1446.1153.035.0505.0525.1132.0525.188 0 .0733-.0213.1423-.064.207-.0428.0646-.1044.1147-.185.15-.0806.0355-.1717.0532-.2734.0532-.1685 0-.2969-.035-.3852-.105-.0883-.07-.1447-.1737-.169-.3113zM34.8504 19.0544l.0317.194a.8151.8151 0 0 1-.166.0196c-.0797 0-.1416-.0126-.1855-.0379-.044-.0252-.0749-.0583-.0928-.0994-.0179-.0411-.0269-.1276-.0269-.2594v-.746h-.161v-.1708h.161v-.321l.2186-.132v.453h.221v.1709h-.221v.758c0 .0627.0038.103.0116.121a.0915.0915 0 0 0 .0378.0426c.0175.0106.0425.0159.075.0159a.7139.7139 0 0 0 .0965-.0085zM35.2679 19.2509h-.2039v-1.7896h.2198v.6385c.0927-.1164.2112-.1746.3552-.1746a.544.544 0 0 1 .2265.0482.4625.4625 0 0 1 .1757.1355c.046.0582.082.1284.108.2106a.868.868 0 0 1 .0391.2637c0 .2221-.0549.3939-.1648.5151-.1098.1213-.2417.1819-.3955.1819-.153 0-.273-.0639-.3601-.1917v.1624zm-.0024-.658c0 .1555.0211.2678.0634.337.0692.113.1628.1696.2808.1696.096 0 .179-.0417.249-.1251.07-.0834.105-.2077.105-.373 0-.1692-.0336-.2941-.1007-.3747-.0671-.0806-.1483-.1208-.2435-.1208-.096 0-.179.0417-.249.125-.07.0835-.105.2041-.105.362zM36.3739 18.6027c0-.24.0667-.418.2002-.5335.1115-.096.2474-.144.4077-.144.1782 0 .324.0584.437.1752.1132.1167.1697.278.1697.484 0 .1668-.025.298-.075.3937a.5314.5314 0 0 1-.2186.2227.636.636 0 0 1-.3131.0794c-.1815 0-.3282-.0582-.44-.1746-.112-.1163-.168-.284-.168-.503zm.2258 0c0 .166.0362.2903.1087.373.0724.0825.1635.1238.2734.1238.109 0 .1998-.0415.2722-.1245.0725-.083.1087-.2095.1087-.3796 0-.1604-.0364-.2818-.1093-.3644-.0728-.0826-.1633-.124-.2716-.124-.1099 0-.201.0412-.2734.1234-.0725.0822-.1087.2063-.1087.3723zM38.6957 19.2509v-.1904c-.1009.1465-.238.2197-.4114.2197a.5243.5243 0 0 1-.2142-.044c-.0663-.0292-.1156-.066-.1477-.1104-.0322-.0444-.0547-.0987-.0678-.163-.009-.0431-.0134-.1115-.0134-.205v-.8033h.2197v.719c0 .1147.0045.192.0135.232.0138.0577.043.103.0879.136.0447.033.1.0495.166.0495a.3615.3615 0 0 0 .1855-.0507c.0578-.0337.0987-.0797.1227-.138.024-.0581.036-.1425.036-.2532v-.6946h.2198v1.2964h-.1966zM39.234 19.2509v-1.2964h.1978v.1965c.0505-.092.097-.1526.1398-.1819a.244.244 0 0 1 .141-.044c.074 0 .1493.0237.2258.0709l-.0757.2039c-.0537-.0318-.1074-.0477-.1611-.0477a.2092.2092 0 0 0-.1294.0434c-.0382.0289-.0655.069-.0818.1202a.8558.8558 0 0 0-.0366.2564v.6787h-.2197zM40.069 19.2509v-1.2964h.1978v.1843c.0952-.1424.2327-.2136.4126-.2136.0781 0 .15.014.2155.0421.0655.028.1145.0649.147.1105.0326.0455.0554.0997.0684.1623.0082.0407.0122.112.0122.2137v.7971h-.2197v-.7886c0-.0895-.0085-.1565-.0256-.2008a.2112.2112 0 0 0-.091-.1062c-.0435-.0265-.0946-.0397-.1532-.0397-.0936 0-.1743.0297-.2423.0891-.068.0594-.102.1722-.102.3382v.708h-.2197zM42.347 18.8334l.227.028c-.0358.1327-.1021.2357-.199.309-.0968.0732-.2205.1098-.371.1098-.1897 0-.34-.0584-.4512-.1752-.111-.1168-.1666-.2805-.1666-.4913 0-.2181.0562-.3874.1685-.5078.1123-.1205.258-.1807.437-.1807.1733 0 .315.059.4248.177.1099.118.1648.284.1648.498 0 .013-.0004.0326-.0012.0586h-.9668c.0081.1425.0484.2515.1208.3272.0724.0757.1628.1135.271.1135.0806 0 .1494-.0211.2063-.0635.057-.0423.1022-.1098.1355-.2026zm-.7215-.3552h.7239c-.0098-.109-.0375-.1909-.083-.2454-.07-.0846-.1608-.127-.2723-.127-.1009 0-.1857.0338-.2545.1014-.0688.0675-.1068.1579-.1141.271zM44.5674 19.0397c-.0725.0806-.1513.141-.2368.1813a.6413.6413 0 0 1-.277.0604c-.1831 0-.3285-.0618-.4358-.1855-.087-.101-.1308-.2137-.1308-.3382 0-.1107.0358-.2106.107-.2997.0711-.089.1775-.1674.3191-.235-.0805-.0927-.1342-.168-.161-.2258-.027-.0578-.0405-.1135-.0405-.1672 0-.1075.0423-.2008.1265-.2802.0843-.0793.1902-.119.318-.119.122 0 .2219.0374.2997.1123.0777.0749.1166.1648.1166.2698 0 .17-.1128.3153-.3382.4358l.321.409c.0366-.0717.0651-.1547.0855-.2491l.2283.0488c-.0391.1563-.092.2849-.1587.3858.0821.109.1753.2006.2795.2746l-.1477.1746c-.0887-.057-.1803-.1412-.2747-.2527zm-.4468-.9326c.0953-.0562.157-.1054.185-.1477a.2485.2485 0 0 0 .0422-.1404c0-.061-.0195-.1109-.058-.1496-.0387-.0386-.087-.058-.1447-.058-.0594 0-.1089.0192-.1483.0574a.1877.1877 0 0 0-.0593.1404c0 .0277.0071.0568.0214.0873a.4538.4538 0 0 0 .0641.097l.0976.1136zm.309.7593l-.4029-.4993c-.1188.0708-.199.1365-.2405.1971-.0415.0607-.0622.1207-.0622.18 0 .0725.0288.1478.0866.226.0577.078.1396.1171.2453.1171.066 0 .1342-.0205.2045-.0616a.497.497 0 0 0 .1692-.1593zM46.1092 19.2509h-.2038v-1.7896h.2197v.6385c.0927-.1164.2113-.1746.3552-.1746.0798 0 .1553.016.2264.0482a.4626.4626 0 0 1 .1759.1355c.046.0582.082.1284.108.2106a.871.871 0 0 1 .039.2637c0 .2221-.0549.3939-.1647.5151-.11.1213-.2418.1819-.3955.1819-.153 0-.2731-.0639-.3602-.1917v.1624zm-.0024-.658c0 .1555.0211.2678.0635.337.069.113.1628.1696.2808.1696.096 0 .179-.0417.249-.1251.07-.0834.105-.2077.105-.373 0-.1692-.0337-.2941-.1008-.3747-.0672-.0806-.1483-.1208-.2434-.1208-.0962 0-.1791.0417-.2492.125-.0699.0835-.105.2041-.105.362zM48.1844 18.8334l.2272.028c-.0359.1327-.1022.2357-.199.309-.097.0732-.2206.1098-.3712.1098-.1896 0-.3399-.0584-.451-.1752-.111-.1168-.1667-.2805-.1667-.4913 0-.2181.0562-.3874.1685-.5078.1123-.1205.258-.1807.437-.1807.1735 0 .315.059.4249.177s.1647.284.1647.498c0 .013-.0004.0326-.0011.0586h-.967c.0083.1425.0486.2515.121.3272.0723.0757.1628.1135.271.1135.0805 0 .1493-.0211.2063-.0635.0569-.0423.1021-.1098.1354-.2026zm-.7214-.3552h.724c-.0098-.109-.0374-.1909-.0831-.2454-.07-.0846-.1607-.127-.2723-.127-.1008 0-.1857.0338-.2545.1014-.0688.0675-.1068.1579-.1141.271zM48.6776 19.7502l-.0244-.2063c.0481.013.09.0195.1258.0195.0488 0 .088-.0081.1171-.0244a.1992.1992 0 0 0 .072-.0684c.014-.022.0362-.0765.0673-.1635a1.3408 1.3408 0 0 1 .0194-.0538l-.4919-1.2988h.2368l.2699.7507c.0348.0952.0662.1954.094.3003a2.9153 2.9153 0 0 1 .0903-.2954l.277-.7556h.2197l-.4932 1.3184c-.0528.1424-.0938.2405-.1232.2942-.0391.0724-.0838.1255-.1343.1593-.0504.0337-.1107.0506-.1806.0506-.0424 0-.0895-.009-.1417-.0268zM49.8557 18.6027c0-.24.0666-.418.2002-.5335.1115-.096.2473-.144.4077-.144.1782 0 .3239.0584.437.1752.1132.1167.1698.278.1698.484 0 .1668-.0251.298-.0752.3937a.5309.5309 0 0 1-.2185.2227.6358.6358 0 0 1-.3131.0794c-.1815 0-.3281-.0582-.44-.1746-.112-.1163-.1679-.284-.1679-.503zm.2257 0c0 .166.0363.2903.1088.373.0723.0825.1635.1238.2734.1238.109 0 .1998-.0415.2722-.1245.0725-.083.1087-.2095.1087-.3796 0-.1604-.0365-.2818-.1094-.3644-.0727-.0826-.1633-.124-.2715-.124-.1099 0-.201.0412-.2734.1234-.0725.0822-.1088.2063-.1088.3723zM51.3279 19.2509v-1.2964h.1978v.1843c.0951-.1424.2327-.2136.4125-.2136.0781 0 .15.014.2155.0421.0655.028.1146.0649.147.1105.0327.0455.0555.0997.0684.1623.0082.0407.0122.112.0122.2137v.7971h-.2197v-.7886c0-.0895-.0085-.1565-.0256-.2008a.2108.2108 0 0 0-.091-.1062c-.0434-.0265-.0946-.0397-.1532-.0397-.0936 0-.1743.0297-.2423.0891-.068.0594-.1018.1722-.1018.3382v.708h-.2198zM53.5594 19.2509v-.1636c-.0823.1286-.203.1929-.3626.1929a.5082.5082 0 0 1-.285-.0855c-.0867-.057-.1539-.1365-.2014-.2386-.0476-.1021-.0715-.2195-.0715-.3522 0-.1294.0216-.2468.0647-.3522.0431-.1054.108-.1861.1941-.2423.0862-.0561.1827-.0842.2893-.0842.0781 0 .1478.0165.2087.0494a.4363.4363 0 0 1 .149.1288v-.6421h.2186v1.7896h-.204zm-.6947-.647c0 .166.035.2901.105.3723.0701.0822.1526.1233.248.1233.096 0 .1775-.0392.2447-.1178.067-.0785.1007-.1983.1007-.3595 0-.1774-.0342-.3076-.1026-.3906-.0683-.083-.1527-.1245-.2527-.1245-.0977 0-.1792.0398-.2447.1196-.0657.0798-.0984.2055-.0984.3772zM54.171 19.0007h.2502v.2502h-.2502z"/>
  </g>
  <g fill="#520f59" fill-rule="nonzero">
    <path d="M22.7196 7.1945c-.386.1262-.7864.2327-1.203.3196-.4159.086-.8632.1295-1.343.1295-1.0846 0-1.9298-.2931-2.5356-.8785-.6059-.5862-.9092-1.4161-.9092-2.4914 0-1.1716.294-2.0475.881-2.6286.588-.5803 1.4494-.8708 2.5843-.8708.812 0 1.596.0997 2.3509.299v1.4383h-.334l-.1347-.829c-.23-.1628-.5052-.2889-.8265-.3766-.3212-.0887-.6603-.133-1.0165-.133-.852 0-1.4749.254-1.8694.7618-.3945.5078-.5913 1.284-.5913 2.3287 0 .9824.2028 1.727.6092 2.234.4056.5079 1.0063.7618 1.8021.7618.2795 0 .5726-.0332.8785-.0997.3067-.0664.5393-.1465.6987-.2394V5.0175l-.858-.1295v-.27h2.471v.27l-.6545.1295v2.177zM28.4165 5.1726c0 1.647-.7319 2.471-2.1966 2.471-.7055 0-1.238-.2113-1.5976-.634-.3596-.4226-.5394-1.0352-.5394-1.837 0-.7924.1798-1.3982.5394-1.8174.3596-.4193.9049-.6289 1.6377-.6289.7123 0 1.25.2054 1.612.616.363.4116.5445 1.0217.5445 1.8303zm-.8989 0c0-.7191-.1048-1.2397-.3144-1.5627-.2096-.3229-.5377-.4848-.9833-.4848-.4362 0-.7515.155-.9458.4644-.1951.3101-.2922.8376-.2922 1.5831 0 .7558.0988 1.29.2965 1.6053.1985.3144.512.4712.9415.4712.4388 0 .7652-.1628.9782-.4891.213-.3263.3195-.8555.3195-1.5874zM30.6378 7.1945l.8044.1244v.225h-2.4318v-.225l.7992-.1244V.794l-.7992-.1202v-.224h1.6274v6.7448zM35.256 7.1945c-.3758.2991-.8154.449-1.3181.449-1.2807 0-1.9214-.8-1.9214-2.401 0-.8223.1806-1.4468.5436-1.8746.363-.4277.8972-.6416 1.6027-.6416.3596 0 .7243.0384 1.0932.1142-.0196-.109-.0298-.386-.0298-.8282V.794l-.789-.1202v-.224h1.618v6.7448l.5794.1244v.225h-1.3181l-.0605-.3494zm-2.3415-1.952c0 .6322.1066 1.1042.3196 1.4152.213.311.5393.467.979.467.3757 0 .714-.0648 1.013-.1951v-3.709c-.2956-.0572-.6338-.0853-1.013-.0853-.8657 0-1.2986.7021-1.2986 2.1072zM40.9827 7.2593c-.1627.1201-.3877.2139-.674.282a3.7814 3.7814 0 0 1-.8785.1023c-1.5209 0-2.2818-.8274-2.2818-2.4812 0-.7822.1943-1.3838.582-1.8047.3877-.4209.9424-.6314 1.665-.6314.449 0 .9397.0512 1.4723.1543v1.3079h-.2744l-.2147-.8282c-.276-.1568-.6075-.2352-.9935-.2352-.8921 0-1.3377.6791-1.3377 2.0373 0 .7055.1354 1.209.4064 1.5107.2718.3008.6919.4516 1.261.4516.4857 0 .9083-.0554 1.2679-.1653v.2999zM44.6125 2.7263v1.268h-.2147l-.2897-.5497c-.1662 0-.3639.023-.5914.0682-.2283.0443-.4252.104-.5922.1772v3.5045l.8044.1244v.225h-2.2273v-.225l.5947-.1244V3.2001l-.5947-.1244v-.225H42.87l.0452.5846c.1994-.167.4695-.3264.8111-.4798.3409-.1525.6118-.2292.8112-.2292h.075zM46.0005 5.1828v.0895c0 .4593.0503.8163.1516 1.071.1023.2548.2582.4482.4695.5811.2113.1338.4883.2003.8316.2003.1798 0 .3928-.0154.639-.0452.2463-.0298.4491-.063.6093-.0997v.2795c-.1602.1031-.3774.1934-.6518.2693a3.1096 3.1096 0 0 1-.841.115c-.7294 0-1.2627-.196-1.6002-.5888-.3382-.3928-.507-1.0233-.507-1.8924 0-.8188.1713-1.4298.5147-1.832.3425-.403.8316-.604 1.4673-.604 1.2014 0 1.802.6816 1.802 2.0466v.4098h-2.885zm1.083-2.0577c-.346 0-.6118.1406-.7959.42-.1849.2795-.2777.692-.2777 1.2381h2.0074c0-.5956-.0767-1.0208-.23-1.2755-.1526-.2548-.3877-.3826-.7038-.3826zM52.8502 6.2258c0 .466-.1474.8188-.4422 1.0582-.294.2403-.7294.3596-1.3054.3596-.2326 0-.49-.0239-.7711-.0724-.2812-.0478-.5019-.1023-.662-.162V6.2557h.2249l.2445.6544c.2497.2258.5743.339.974.339.6458 0 .9679-.276.9679-.8281 0-.4065-.254-.6962-.7635-.8691l-.4447-.1449c-.3357-.1099-.5803-.2215-.7337-.334a1.1668 1.1668 0 0 1-.3544-.4175c-.0835-.1644-.1244-.363-.1244-.5964 0-.4124.1406-.738.4218-.9756.2811-.2386.6611-.357 1.1409-.357.3425 0 .772.051 1.2874.1542v1.0241h-.2343l-.2096-.5444c-.1764-.1568-.4542-.2352-.8342-.2352-.2692 0-.4746.0673-.616.2002-.1415.133-.2122.3127-.2122.5394 0 .1892.064.3493.1917.4789.1287.1295.3221.2377.582.3246.489.1661.8086.288.9586.3647.15.0767.2769.1704.3817.282.1048.1116.1866.2386.2445.3817.0588.1432.0878.3195.0878.5292zM54.8866 7.6436c-.3195 0-.558-.0946-.7157-.2846-.1585-.1892-.2377-.4559-.2377-.7984V3.27h-.6135v-.2241l.6237-.1952.5044-1.0633h.3144v1.0633h1.0736V3.27h-1.0736v3.2003c0 .2164.0494.38.1474.489.098.11.2267.1654.3869.1654.1925 0 .4277-.0264.7038-.0801v.3246c-.1168.0801-.2846.1457-.5045.1968-.2198.052-.4226.0776-.6092.0776z"/>
  </g>
  <path d="M2.765 6.173c-.265.004-.529.031-.787.089 0 0-.219.383-.335.78-.911 3.098 2.316 6.997 5.574 6.225 1.465-2.58-.618-6.765-4.027-7.077a4.3013 4.3013 0 0 0-.425-.017zm5.814 7.173c.151-.01.996-.072 1.603-.334 2.498-1.079 4.081-4.383 2.738-6.747-.28-.067-.573-.093-.865-.092-.616.005-1.228.146-1.784.408.254.69.384 1.434.388 2.179.022 1.098-.232 2.213-.814 3.175-.328.542-.76 1.034-1.266 1.411zm1.159-6.141c-.361-1.214-1.136-2.261-2.295-2.766-.003.001-.006.003-.01.004-.821.367-1.495 1.038-1.92 1.839 2.079 1.345 3.405 4.039 2.686 6.445 0 0 .55-.457.934-.989.79-1.243 1.048-2.985.605-4.533z" fill="#dcc933" fill-rule="nonzero"/>
  <path d="M7.448.45c4.111 0 7.449 3.337 7.449 7.448 0 4.111-3.338 7.449-7.449 7.449C3.338 15.347 0 12.009 0 7.898S3.338.45 7.448.45zm0 .715c3.717 0 6.734 3.017 6.734 6.733 0 3.716-3.017 6.734-6.734 6.734-3.716 0-6.733-3.018-6.733-6.734s3.017-6.733 6.733-6.733z" fill="#b5b5b5"/>
  <g fill="#520f59" fill-rule="nonzero">
    <path d="M53.507 12.5844l-.236.0296v1.34h.3009c.1618 0 .2808-.0076.3566-.0228l.0708-.3179h.0739l-.0204.4387h-1.1975v-.0605l.196-.0307V12.614l-.196-.0296v-.0603h.6516v.0603zM54.594 14.0748c-.073 0-.1274-.0216-.1636-.065-.036-.0432-.054-.104-.054-.1822v-.751h-.1403v-.0512l.1426-.0445.115-.2427h.0719v.2427h.2448v.0957h-.2448v.7304c0 .0494.011.0867.0334.1116.0226.025.052.0377.0885.0377.044 0 .0976-.006.1606-.0183v.0741c-.0266.0183-.065.0333-.1151.045a.6064.6064 0 0 1-.139.0177zM55.6855 13.9723c-.0858.0682-.1861.1025-.3007.1025-.2924 0-.4387-.1826-.4387-.548 0-.1877.0414-.3302.124-.4278.083-.0977.2048-.1465.3659-.1465.082 0 .1653.0088.2495.026-.0045-.0248-.0069-.088-.0069-.189v-.278l-.18-.0274v-.0512h.3693v1.5394l.1322.0284v.0513h-.3008l-.0138-.0797zm-.5344-.4455c0 .1443.0243.252.0729.323.0486.071.123.1065.2234.1065.0858 0 .163-.0148.2312-.0445v-.8465c-.0674-.013-.1446-.0194-.2312-.0194-.1975 0-.2963.1602-.2963.4809z"/>
  </g>
</svg>
