<?xml version="1.0" encoding="UTF-8" standalone="no"?>
<!DOCTYPE svg PUBLIC "-//W3C//DTD SVG 1.1//EN" "http://www.w3.org/Graphics/SVG/1.1/DTD/svg11.dtd">
<svg width="100%" height="100%" viewBox="0 0 56 16" version="1.1" xmlns="http://www.w3.org/2000/svg" xmlns:xlink="http://www.w3.org/1999/xlink" xml:space="preserve" xmlns:serif="http://www.serif.com/" style="fill-rule:evenodd;clip-rule:evenodd;stroke-linejoin:round;stroke-miterlimit:1.41421;">
    <g id="Artboard1" transform="matrix(1,0,0,0.787972,-4,-17.3354)">
        <rect x="4" y="22" width="56" height="20" style="fill:none;"/>
        <g transform="matrix(0.875,0,0,1.11045,4,-3.54349)">
            <g transform="matrix(0.911298,0,0,0.911298,18.9223,39.0702)">
                <text x="0px" y="0px" style="font-family:'LiberationSerif', 'Liberation Serif', serif;font-size:7.481px;fill:rgb(82,15,89);">Legal Services</text>
            </g>
            <g transform="matrix(0.973781,0,0,0.973781,18.6395,31.6245)">
                <text x="0px" y="0px" style="font-family:'LiberationSerif', 'Liberation Serif', serif;font-size:12px;fill:rgb(82,15,89);">Goldcrest</text>
            </g>
            <g transform="matrix(1.1814,0,0,1.1814,-3.41314e-15,-35.0678)">
                <g id="path1378-1-80" transform="matrix(0.153981,0,0,0.153981,-0.518944,49.5472)">
                    <path d="M20.744,36.23C19.078,36.255 17.417,36.423 15.794,36.787C15.794,36.787 14.424,39.195 13.691,41.688C7.972,61.153 28.242,85.644 48.708,80.794C57.912,64.588 44.827,38.297 23.41,36.337C22.524,36.256 21.636,36.224 20.744,36.23ZM57.265,81.291C58.214,81.233 63.522,80.841 67.336,79.194C83.029,72.417 92.975,51.658 84.54,36.805C82.778,36.389 80.937,36.225 79.105,36.228C75.232,36.26 71.393,37.149 67.896,38.794C69.492,43.125 70.308,47.801 70.335,52.48C70.475,59.377 68.879,66.385 65.219,72.429C63.157,75.834 60.448,78.923 57.265,81.291ZM64.551,42.713C62.28,35.088 57.412,28.507 50.128,25.335C50.109,25.343 50.09,25.352 50.07,25.36C44.91,27.665 40.675,31.879 38.006,36.912C51.065,45.361 59.394,62.286 54.879,77.406C54.879,77.406 58.334,74.535 60.745,71.19C65.713,63.38 67.334,52.436 64.551,42.713Z" style="fill:rgb(220,201,51);fill-rule:nonzero;"/>
                </g>
                <g transform="matrix(0.225166,0,0,0.225166,0,49.5894)">
                    <path d="M32,0C49.661,0 64,14.339 64,32C64,49.661 49.661,64 32,64C14.339,64 0,49.661 0,32C0,14.339 14.339,0 32,0ZM32,3.071C47.966,3.071 60.929,16.034 60.929,32C60.929,47.966 47.966,60.929 32,60.929C16.034,60.929 3.071,47.966 3.071,32C3.071,16.034 16.034,3.071 32,3.071Z" style="fill:rgb(181,181,181);"/>
                </g>
            </g>
            <g transform="matrix(0.222245,0,0,0.222245,60.3291,39.0623)">
                <text x="0px" y="0px" style="font-family:'LiberationSerif', 'Liberation Serif', serif;font-size:12px;fill:rgb(82,15,89);">Ltd</text>
            </g>
        </g>
    </g>
</svg>
