<svg viewBox="0 -26 512 512" xmlns="http://www.w3.org/2000/svg">
  <path d="M256 100a10 10 0 1 0 0 20 10 10 0 0 0 0-20zm0 0M90 280a10 10 0 1 0 0-20 10 10 0 0 0 0 20zm0 0"/>
  <path d="M336 0c-90.03 0-163.92 62.07-169.63 140.25C80.63 144.55 0 206.38 0 290c0 34.95 13.83 68.8 39 95.63a60.82 60.82 0 0 1-16.07 57.3A10 10 0 0 0 30 460c28.52 0 56-11.18 76.43-30.9 19.89 6.8 45.85 10.9 69.57 10.9 90.02 0 163.9-62.05 169.63-140.22 20.94-.93 42.71-4.8 59.94-10.67A110.3 110.3 0 0 0 482 320a10 10 0 0 0 7.07-17.07 60.82 60.82 0 0 1-16.07-57.3c25.17-26.83 39-60.68 39-95.63C512 63.11 425.16 0 336 0zM176 420c-23.6 0-50.5-4.63-68.51-11.8a10 10 0 0 0-11.08 2.54 90.23 90.23 0 0 1-44.88 26.63 80.87 80.87 0 0 0 6.1-59.52 9.98 9.98 0 0 0-2.45-4.23C32.5 350.26 20 320.56 20 290c0-70.47 71.44-130 156-130 79.85 0 150 55.53 150 130 0 71.68-67.29 130-150 130zm280.82-186.38c-1.16 1.2-2 2.65-2.45 4.23a80.87 80.87 0 0 0 6.1 59.52 90.2 90.2 0 0 1-44.88-26.63 10 10 0 0 0-11.08-2.54c-15.61 6.21-37.89 10.51-58.91 11.55-2.92-37.82-21.79-73.36-54.04-99.75H422a10 10 0 1 0 0-20H260.84c-22.7-11.55-48.19-18.3-74.42-19.7C192.16 73.12 257.06 20 336 20c84.56 0 156 59.53 156 130 0 30.56-12.5 60.26-35.18 83.63zm0 0"/>
  <path d="M256 260H130a10 10 0 1 0 0 20h126a10 10 0 1 0 0-20zm0 0M256 320H90a10 10 0 1 0 0 20h166a10 10 0 1 0 0-20zm0 0M422 100H296a10 10 0 1 0 0 20h126a10 10 0 1 0 0-20zm0 0"/>
</svg>
