<svg xmlns="http://www.w3.org/2000/svg" viewBox="0 0 500 500">
  <path d="M421.918 66.108h-74.24c-2.208 0-4 1.792-4 4s1.792 4 4 4h70.236v390.54H85.986V74.108h66.332c2.208 0 4-1.792 4-4s-1.792-4-4-4H81.986c-2.208 0-4 1.792-4 4v398.54c0 2.208 1.792 4 4 4h339.928c2.212 0 4-1.792 4.004-4V70.108c0-2.208-1.792-4-4-4z"/>
  <path d="M427.73 46.576h-80.052c-2.208 0-4 1.792-4 4s1.792 4 4 4h80.052c14.456 0 25.356 11.692 25.356 27.192v382.26c0 15.684-11.136 27.972-25.356 27.972H76.078c-15.264 0-29.164-13.332-29.164-27.972V81.768c0-14.484 13.628-27.192 29.164-27.192h76.24c2.208 0 4-1.792 4-4s-1.792-4-4-4h-76.24c-19.8 0-37.164 16.444-37.164 35.192v382.26c0 19.164 17.368 35.972 37.164 35.972H427.73c18.7 0 33.352-15.8 33.356-35.972V81.768c0-20.064-14.34-35.192-33.356-35.192zM251.902 15.08c-8.672 0-15.724 7.052-15.724 15.72 0 8.672 7.056 15.724 15.724 15.724s15.72-7.052 15.72-15.724c0-8.668-7.052-15.72-15.72-15.72zm0 23.444c-4.26 0-7.724-3.468-7.724-7.724s3.468-7.72 7.724-7.72c4.26 0 7.72 3.46 7.72 7.72s-3.46 7.724-7.72 7.724z"/>
  <path d="M318.01 19.224h-37.256C276.102 7.448 265.078 0 251.902 0c-13.18 0-24.2 7.452-28.856 19.224h-37.728c-20.056 0-37 15.968-37 34.868V85.74c0 2.208 1.792 4 4 4h195.36c2.208 0 4-1.792 3.996-4V54.092c0-19.876-14.472-34.868-33.664-34.868zM156.318 81.74V54.092c0-14.312 13.552-26.868 29-26.868h40.584a4.006 4.006 0 0 0 3.84-2.884C232.63 14.416 241.326 8 251.902 8s19.272 6.416 22.16 16.34a3.998 3.998 0 0 0 3.84 2.884h40.112c14.632 0 25.664 11.548 25.664 26.868V81.74h-187.36zM382.846 187.236h-160.2c-2.208 0-4 1.792-4 4s1.792 4 4 4h160.2c2.208 0 4-1.792 4-4s-1.792-4-4-4zM269.534 249.752h-46.888c-2.208 0-4 1.792-4 4s1.792 4 4 4h46.888c2.208 0 4-1.792 4-4s-1.792-4-4-4zM382.846 249.752h-78.144c-2.208 0-4 1.792-4 4s1.792 4 4 4h78.144c2.208 0 4-1.792 4-4s-1.792-4-4-4zM382.846 374.784h-46.888c-2.208 0-4 1.792-4 4s1.792 4 4 4h46.888c2.208 0 4-1.792 4-4s-1.792-4-4-4zM300.79 374.784h-78.144c-2.208 0-4 1.792-4 4s1.792 4 4 4h78.144c2.208 0 4-1.792 4-4s-1.792-4-4-4zM382.846 312.268h-160.2c-2.208 0-4 1.792-4 4s1.792 4 4 4h160.2c2.208 0 4-1.792 4-4s-1.792-4-4-4zM191.938 164.404a3.996 3.996 0 0 0-5.656 0l-32.528 32.528-16.488-16.488a3.996 3.996 0 0 0-5.656 0 3.996 3.996 0 0 0 0 5.656l19.316 19.316a3.989 3.989 0 0 0 2.828 1.172 3.989 3.989 0 0 0 2.828-1.172l35.356-35.356a3.996 3.996 0 0 0 0-5.656zM191.938 226.704a3.996 3.996 0 0 0-5.656 0l-32.528 32.528-16.488-16.488a3.996 3.996 0 0 0-5.656 0 3.996 3.996 0 0 0 0 5.656l19.316 19.316a3.989 3.989 0 0 0 2.828 1.172 3.972 3.972 0 0 0 2.828-1.172l35.356-35.356a3.996 3.996 0 0 0 0-5.656zM191.938 289.148a3.996 3.996 0 0 0-5.656 0l-32.528 32.528-16.488-16.488a3.996 3.996 0 0 0-5.656 0 3.996 3.996 0 0 0 0 5.656l19.316 19.316a3.989 3.989 0 0 0 2.828 1.172 3.989 3.989 0 0 0 2.828-1.172l35.356-35.356a3.996 3.996 0 0 0 0-5.656zM191.938 351.724a3.996 3.996 0 0 0-5.656 0l-32.528 32.528-16.488-16.488a3.996 3.996 0 0 0-5.656 0 3.996 3.996 0 0 0 0 5.656l19.316 19.316a3.989 3.989 0 0 0 2.828 1.172 3.989 3.989 0 0 0 2.828-1.172l35.356-35.356a3.996 3.996 0 0 0 0-5.656z"/>
</svg>
