<svg xmlns="http://www.w3.org/2000/svg" viewBox="0 0 512 512">
  <path d="M486.49 255.83l-23.23-2.91a159.72 159.72 0 0 0-29.82-47.09l17.08-72.35a10 10 0 0 0-9.73-12.3h-2.22c-28.35 0-53.9 17.84-63.95 44a157.27 157.27 0 0 0-21.87-6.92 10 10 0 1 0-4.6 19.47 138.47 138.47 0 0 1 66.06 36.75c.65.96 1.47 1.81 2.43 2.5a139.17 139.17 0 0 1 30.05 48.53 10 10 0 0 0 8.15 6.51l29.17 3.65c4.55.57 8 4.47 8 9.06v50.42c0 4.6-3.45 8.49-8 9.06l-27.03 3.38a10 10 0 0 0-8.3 6.94 138.75 138.75 0 0 1-44.05 65.5 10 10 0 0 0-3.62 7.7V483a9 9 0 0 1-9 9h-58a9 9 0 0 1-9-9v-21.06a10 10 0 0 0-10-10h-84.02a10 10 0 0 0-10 10V483a9 9 0 0 1-9 9h-58a9 9 0 0 1-9-9v-39.03a10 10 0 0 0-5.23-8.78A138.99 138.99 0 0 1 67 312.97C67 236.34 129.34 174 205.97 174h12.53a10 10 0 0 0 0-20h-12.53c-74.23 0-136.74 51.15-154.14 120.05H44.5c-13.51 0-24.5-11-24.5-24.5s10.99-24.5 24.5-24.5a10 10 0 0 0 0-20A44.55 44.55 0 0 0 0 249.55a44.55 44.55 0 0 0 44.5 44.5h3.63A158.96 158.96 0 0 0 125 449.8V483c0 16 13.01 29 29 29h58c16 0 29-13 29-29v-11.06h64.02V483c0 16 13 29 29 29h58c15.99 0 29-13 29-29v-50.66a158.64 158.64 0 0 0 44.7-65.68l20.78-2.6A29.18 29.18 0 0 0 512 335.14v-50.42a29.18 29.18 0 0 0-25.51-28.9zm-69.84-65.91a159.46 159.46 0 0 0-23.86-16.15 48.83 48.83 0 0 1 35.08-31.38l-11.22 47.53z"/>
  <path d="M398.07 253.93c-1.86-1.86-4.44-2.93-7.07-2.93s-5.2 1.07-7.07 2.93c-1.86 1.86-2.93 4.44-2.93 7.07s1.07 5.21 2.93 7.07c1.86 1.86 4.44 2.93 7.07 2.93s5.21-1.07 7.07-2.93c1.86-1.86 2.93-4.44 2.93-7.07s-1.07-5.21-2.93-7.07zM293.24 58.33a10 10 0 0 0-10 10V108a10 10 0 0 0 20 0V68.33a10 10 0 0 0-10-10zM300.31 24.98a10.07 10.07 0 0 0-7.07-2.93c-2.63 0-5.2 1.07-7.07 2.93a10.08 10.08 0 0 0-2.93 7.07c0 2.64 1.07 5.21 2.93 7.07a10.07 10.07 0 0 0 7.07 2.93c2.63 0 5.21-1.07 7.07-2.93 1.86-1.86 2.93-4.44 2.93-7.07s-1.07-5.2-2.93-7.07zM212 0a10 10 0 0 0-10 10v17a10 10 0 0 0 20 0V10a10 10 0 0 0-10-10zM113.94 312.97a10 10 0 0 0-20 0v.53a10 10 0 0 0 10 9.94h.06a10 10 0 0 0 9.94-10.07v-.4zM158.2 391.65A92.7 92.7 0 0 1 120 345.9a10 10 0 1 0-18.68 7.15 112.78 112.78 0 0 0 46.49 55.7 10 10 0 0 0 10.4-17.09zM212 48.05c-23.16 0-42 18.84-42 42s18.84 42 42 42 42-18.84 42-42-18.84-42-42-42zm0 64c-12.13 0-22-9.87-22-22s9.87-22 22-22 22 9.87 22 22-9.87 22-22 22zM338 212h-9a41.74 41.74 0 0 0 6.24-22c0-23.16-18.84-42-42-42s-42 18.84-42 42c0 8.06 2.29 15.6 6.24 22H208a10 10 0 0 0 0 20h130a10 10 0 0 0 0-20zm-44.76 0c-12.13 0-22-9.87-22-22s9.87-22 22-22 22 9.87 22 22-9.87 22-22 22z"/>
</svg>
