<svg id="Layer_1" data-name="Layer 1" xmlns="http://www.w3.org/2000/svg" viewBox="0 0 303.47 147.56"><defs><style>.cls-1{fill:#231f20}.cls-2{fill:#fec214}.cls-3{fill:#fedd00}</style></defs><path class="cls-1" d="M338.5 361.49a1.83 1.83 0 0 1-.83-.23 2.25 2.25 0 0 0-1.11-.25c-1.26 0-2 .81-2 3.13V366c0 2.43.72 3.08 1.9 3.08a3.17 3.17 0 0 0 1.29-.28 1.76 1.76 0 0 1 .79-.21 1.15 1.15 0 0 1 1.16 1.18 1.37 1.37 0 0 1-.56 1.08 4.82 4.82 0 0 1-2.68.8c-3.41 0-4.74-2.29-4.74-5.61v-1.93c0-3.19 1.3-5.6 4.81-5.6a4.83 4.83 0 0 1 2.61.71 1.29 1.29 0 0 1 .61 1.05 1.24 1.24 0 0 1-1.25 1.22zM348.65 371.6a1.35 1.35 0 0 1-1.37-1.13l-.36-1.53h-3.65c-.13.49-.25 1-.35 1.53a1.35 1.35 0 0 1-1.34 1.13 1.38 1.38 0 0 1-1.37-1.73 59.17 59.17 0 0 1 3.08-10c.49-1.22 1.19-1.46 1.82-1.46a1.93 1.93 0 0 1 1.88 1.46 59.13 59.13 0 0 1 3.06 10 1.39 1.39 0 0 1-1.4 1.73zm-3.55-8.72a56.72 56.72 0 0 0-1.17 3.55h2.33a49.21 49.21 0 0 0-1.16-3.55zM363 370.28a1.31 1.31 0 1 1-2.62 0v-5.59l-2 4a1.4 1.4 0 0 1-2.56 0l-1.95-4v5.61a1.3 1.3 0 0 1-2.6 0v-10.51a1.3 1.3 0 0 1 1.33-1.33 1.35 1.35 0 0 1 1.39.85l3.13 6.24 3.18-6.33a1.41 1.41 0 0 1 2.66.57zM370.25 366.85h-2v3.32a1.42 1.42 0 1 1-2.84 0v-10.12a1.43 1.43 0 0 1 1.42-1.43h3.3c3.08 0 4 1.92 4 3.69v.92c.04 2.16-1.36 3.62-3.88 3.62zm1.09-4.46c0-.57-.25-1.09-1.44-1.09h-1.62v3h1.85c1 0 1.21-.55 1.21-1.09zM382.65 371.6a1.36 1.36 0 0 1-1.37-1.13l-.35-1.53h-3.66c-.12.49-.24 1-.35 1.53a1.34 1.34 0 0 1-1.33 1.13 1.38 1.38 0 0 1-1.38-1.73 61.07 61.07 0 0 1 3.08-10c.49-1.22 1.2-1.46 1.83-1.46a1.94 1.94 0 0 1 1.88 1.46 61 61 0 0 1 3.06 10 1.39 1.39 0 0 1-1.41 1.73zm-3.55-8.72a56.67 56.67 0 0 0-1.16 3.55h2.32a49.21 49.21 0 0 0-1.16-3.55zM386.81 371.6a1.43 1.43 0 0 1-1.43-1.43v-10.28a1.43 1.43 0 1 1 2.85 0v10.28a1.42 1.42 0 0 1-1.42 1.43zM395.18 371.6c-3.41 0-4.75-2.29-4.75-5.61v-1.93c0-3.19 1.3-5.6 4.82-5.6a4.78 4.78 0 0 1 2.69.73 1.35 1.35 0 0 1 .63 1.09 1.2 1.2 0 0 1-1.28 1.23 1.9 1.9 0 0 1-.91-.25 2.63 2.63 0 0 0-1.13-.25c-1.27 0-2 .81-2 3.13V366c0 2.43.72 3.1 1.9 3.1 1.41 0 1.65-.84 1.65-1.81v-.36h-.68a1.32 1.32 0 0 1 0-2.63h2.09a1.33 1.33 0 0 1 1.35 1.42v1.48c.03 2.17-1.08 4.4-4.38 4.4zM409.46 371.6a1.49 1.49 0 0 1-1.37-.69l-3.87-6.52v5.91a1.3 1.3 0 0 1-2.6 0v-10.53a1.3 1.3 0 0 1 1.39-1.31 1.51 1.51 0 0 1 1.37.74l3.85 6.49v-5.92a1.3 1.3 0 1 1 2.6 0v10.53a1.3 1.3 0 0 1-1.37 1.3zM422.22 371.6a10 10 0 0 1-3.29-.46 1.36 1.36 0 0 1-1-1.32 1.24 1.24 0 0 1 1.21-1.32 6.31 6.31 0 0 1 1.34.36 5.17 5.17 0 0 0 1.42.17c1.6 0 2.25-.51 2.25-1.35 0-.62-.28-.93-1.74-1.3a13.57 13.57 0 0 1-2.87-.93 3.09 3.09 0 0 1-1.49-2.82c0-2.72 2.07-4.17 4.52-4.17a9.26 9.26 0 0 1 2.81.37 1.32 1.32 0 0 1 1 1.27 1.28 1.28 0 0 1-1.3 1.36 4.25 4.25 0 0 1-1.11-.29 4.63 4.63 0 0 0-1.15-.12c-1.24 0-1.92.42-1.92 1.2s.49 1 1.72 1.31a10.84 10.84 0 0 1 2.88.92 3.13 3.13 0 0 1 1.52 2.86c-.02 2.9-2.13 4.26-4.8 4.26zM433.19 371.6c-3.21 0-4.67-2-4.67-4.33v-7.38a1.42 1.42 0 1 1 2.83 0v7.24c0 .86.25 2 1.84 2s1.83-1.15 1.83-2v-7.24a1.44 1.44 0 0 1 1.43-1.43 1.43 1.43 0 0 1 1.42 1.43v7.38c0 2.38-1.47 4.33-4.68 4.33zM444.89 366.85h-2v3.32a1.43 1.43 0 1 1-2.85 0v-10.12a1.43 1.43 0 0 1 1.42-1.43h3.31c3.07 0 4 1.92 4 3.69v.92c.04 2.16-1.36 3.62-3.88 3.62zm1.09-4.46c0-.57-.24-1.09-1.44-1.09h-1.61v3h1.84c1 0 1.21-.55 1.21-1.09zM455.36 366.85h-2v3.32a1.42 1.42 0 1 1-2.84 0v-10.12a1.43 1.43 0 0 1 1.42-1.43h3.3c3.08 0 4 1.92 4 3.69v.92c.04 2.16-1.36 3.62-3.88 3.62zm1.09-4.46c0-.57-.25-1.09-1.44-1.09h-1.62v3h1.85c1 0 1.21-.55 1.21-1.09zM465.46 371.61c-3.5 0-4.68-2.35-4.68-4.76v-3.64c0-2.41 1.18-4.75 4.68-4.75s4.67 2.34 4.67 4.75v3.64c0 2.41-1.19 4.76-4.67 4.76zm1.83-8.4c0-1.3-.36-2.16-1.83-2.16s-1.83.84-1.83 2.16v3.64c0 1.34.35 2.2 1.83 2.2s1.83-.86 1.83-2.2zM479.79 371.6a1.29 1.29 0 0 1-1.25-.86 39.28 39.28 0 0 0-2.1-4.14h-1.25v3.57a1.43 1.43 0 1 1-2.85 0v-10.12a1.43 1.43 0 0 1 1.42-1.43h3.29c2.65 0 4.08 1.23 4.08 3.69v.69a3.25 3.25 0 0 1-1.74 3.06 43.16 43.16 0 0 1 1.75 3.55 1.41 1.41 0 0 1-1.35 1.99zm-1.51-9.29c0-.79-.54-1-1.28-1h-1.81V364h1.7c.63 0 1.39-.18 1.39-1zM491.09 361.38h-2.38v8.79a1.42 1.42 0 0 1-1.42 1.43 1.44 1.44 0 0 1-1.43-1.43v-8.79h-2.35a1.38 1.38 0 0 1 0-2.76h7.58a1.38 1.38 0 0 1 0 2.76zM499.77 371.44h-5.51a1.35 1.35 0 0 1-1.35-1.36V360a1.36 1.36 0 0 1 1.35-1.36h5.28a1.35 1.35 0 0 1 1.35 1.36 1.34 1.34 0 0 1-1.35 1.35h-3.78v2.39h3.41a1.33 1.33 0 0 1 1.32 1.32 1.31 1.31 0 0 1-1.32 1.3h-3.41v2.39h4a1.36 1.36 0 0 1 0 2.71zM510.25 371.6a1.29 1.29 0 0 1-1.25-.86 37.55 37.55 0 0 0-2.11-4.14h-1.25v3.57a1.42 1.42 0 1 1-2.84 0v-10.12a1.43 1.43 0 0 1 1.42-1.43h3.29c2.65 0 4.07 1.23 4.07 3.69v.69a3.23 3.23 0 0 1-1.74 3.06 43.3 43.3 0 0 1 1.76 3.55 1.41 1.41 0 0 1-1.35 1.99zm-1.51-9.29c0-.79-.55-1-1.28-1h-1.82V364h1.71c.63 0 1.39-.18 1.39-1z" transform="translate(-269.98 -224.05)"/><path class="cls-2" d="M375.33 319.42a59 59 0 0 1 0-72.81 59 59 0 0 1 0 72.81" transform="translate(-269.98 -224.05)"/><path class="cls-3" d="M329 342a59 59 0 1 1 46.38-95.37 59 59 0 0 0 0 72.81A58.85 58.85 0 0 1 329 342" transform="translate(-269.98 -224.05)"/><path class="cls-3" d="M421.72 342a58.84 58.84 0 0 1-46.39-22.56 59 59 0 0 0 0-72.81 59 59 0 0 1 92.77 0 59 59 0 0 0 0 72.81A58.84 58.84 0 0 1 421.72 342M514.49 342a58.86 58.86 0 0 1-46.39-22.56 59 59 0 0 0 0-72.81A59 59 0 1 1 514.49 342" transform="translate(-269.98 -224.05)"/><path class="cls-2" d="M468.1 319.42a59 59 0 0 1 0-72.81 59 59 0 0 1 0 72.81" transform="translate(-269.98 -224.05)"/><path class="cls-1" d="M302 259.69c0-1-.67-1.27-1.57-1.27h-2.21v3.34h2.09c.77 0 1.69-.21 1.69-1.26v-.81m1.88 11.31a1.55 1.55 0 0 1-1.52-1.05 47.73 47.73 0 0 0-2.57-5h-1.53v4.35a1.74 1.74 0 0 1-3.47 0v-12.38a1.75 1.75 0 0 1 1.74-1.74h4c3.23 0 5 1.51 5 4.51v.81a4 4 0 0 1-2.12 3.73c.79 1.44 1.5 2.87 2.14 4.33a1.73 1.73 0 0 1-1.67 2.44zM317.13 270.81h-6.71a1.64 1.64 0 0 1-1.65-1.65v-12.33a1.65 1.65 0 0 1 1.65-1.65h6.43a1.66 1.66 0 0 1 0 3.31h-4.61v2.91h4.16a1.62 1.62 0 0 1 1.6 1.6 1.6 1.6 0 0 1-1.61 1.58h-4.16v2.92h4.89a1.65 1.65 0 0 1 0 3.3M335.8 269.4a1.6 1.6 0 1 1-3.19 0v-6.82l-2.38 4.89a1.71 1.71 0 0 1-3.13 0l-2.38-4.91v6.84a1.59 1.59 0 0 1-3.18 0v-12.8a1.58 1.58 0 0 1 1.63-1.61 1.65 1.65 0 0 1 1.7 1l3.81 7.61 3.88-7.72a1.63 1.63 0 0 1 1.61-.92 1.61 1.61 0 0 1 1.63 1.61v12.8M347.87 270.81h-6.71a1.64 1.64 0 0 1-1.65-1.65v-12.33a1.65 1.65 0 0 1 1.65-1.65h6.43a1.66 1.66 0 0 1 0 3.31H343v2.91h4.16a1.62 1.62 0 0 1 1.61 1.61 1.6 1.6 0 0 1-1.61 1.58H343v2.92h4.89a1.65 1.65 0 0 1 0 3.3M366.54 269.4a1.6 1.6 0 1 1-3.19 0v-6.82l-2.35 4.89a1.75 1.75 0 0 1-1.57 1 1.72 1.72 0 0 1-1.56-1l-2.38-4.91v6.84a1.59 1.59 0 0 1-3.18 0v-12.8a1.58 1.58 0 0 1 1.63-1.61 1.65 1.65 0 0 1 1.7 1l3.81 7.61 3.88-7.72a1.63 1.63 0 0 1 1.61-.92 1.61 1.61 0 0 1 1.63 1.61v12.8M377.9 265.88a1.36 1.36 0 0 0-1.54-1.33h-2.64v3.09h2.72a1.32 1.32 0 0 0 1.46-1.35v-.41m-.58-6.24c0-.77-.56-1.24-1.43-1.24h-2.17v3.11h1.84c.88 0 1.76-.34 1.76-1.35zm-.81 11.17H372a1.72 1.72 0 0 1-1.73-1.73v-12.16a1.75 1.75 0 0 1 1.73-1.74h4c3.62 0 4.85 2 4.85 3.93v.58a3.18 3.18 0 0 1-1.85 3.08 3.53 3.53 0 0 1 2.4 3.39v.6c-.05 2.24-1.34 4.05-4.89 4.05zM393 270.81h-6.71a1.64 1.64 0 0 1-1.65-1.65v-12.33a1.65 1.65 0 0 1 1.65-1.65h6.43a1.66 1.66 0 0 1 0 3.31h-4.61v2.91h4.16a1.62 1.62 0 0 1 1.61 1.61 1.6 1.6 0 0 1-1.61 1.58h-4.16v2.92H393a1.65 1.65 0 0 1 0 3.3M404.6 259.69c0-1-.66-1.27-1.56-1.27h-2.21v3.34h2.08c.77 0 1.69-.21 1.69-1.26v-.81m1.85 11.31a1.57 1.57 0 0 1-1.53-1.05 45.9 45.9 0 0 0-2.57-5h-1.52v4.35a1.74 1.74 0 0 1-3.47 0v-12.38a1.75 1.75 0 0 1 1.73-1.74h4c3.24 0 5 1.51 5 4.51v.81a4 4 0 0 1-2.13 3.73c.8 1.44 1.5 2.87 2.15 4.33a1.73 1.73 0 0 1-1.66 2.44zM423.12 260.37c-.51 1.42-1 2.85-1.41 4.33h2.83c-.43-1.48-.9-2.91-1.42-4.33m4.33 10.63a1.64 1.64 0 0 1-1.67-1.37c-.13-.62-.28-1.26-.43-1.86h-4.45c-.16.6-.31 1.24-.43 1.86a1.64 1.64 0 0 1-1.63 1.37 1.68 1.68 0 0 1-1.68-2.1 74 74 0 0 1 3.76-12.15c.6-1.48 1.45-1.78 2.22-1.78a2.37 2.37 0 0 1 2.3 1.78 74 74 0 0 1 3.73 12.15 1.69 1.69 0 0 1-1.72 2.1zM446.72 258.68a2.28 2.28 0 0 1-1-.28 2.78 2.78 0 0 0-1.35-.3c-1.55 0-2.4 1-2.4 3.82v2.2c0 3 .87 3.75 2.31 3.75a3.61 3.61 0 0 0 1.56-.34 2.24 2.24 0 0 1 1-.26 1.41 1.41 0 0 1 1.42 1.44 1.69 1.69 0 0 1-.69 1.33 5.84 5.84 0 0 1-3.26 1c-4.16 0-5.79-2.78-5.79-6.83v-2.36c0-3.88 1.59-6.82 5.88-6.82a5.85 5.85 0 0 1 3.17.86 1.58 1.58 0 0 1 .75 1.28 1.51 1.51 0 0 1-1.56 1.55M460.72 271a1.73 1.73 0 0 1-1.74-1.73v-4.61h-4.8v4.61a1.74 1.74 0 0 1-3.47 0v-12.54a1.74 1.74 0 1 1 3.47 0v4.88H459v-4.88a1.73 1.73 0 1 1 3.46 0v12.54a1.73 1.73 0 0 1-1.72 1.73M470.67 260.37c-.52 1.42-1 2.85-1.42 4.33h2.83c-.43-1.48-.9-2.91-1.41-4.33M475 271a1.64 1.64 0 0 1-1.67-1.37c-.13-.62-.28-1.26-.43-1.86h-4.46c-.15.6-.3 1.24-.43 1.86a1.64 1.64 0 0 1-1.63 1.37 1.67 1.67 0 0 1-1.67-2.1 73.05 73.05 0 0 1 3.75-12.15c.6-1.48 1.46-1.78 2.23-1.78a2.37 2.37 0 0 1 2.29 1.78 73 73 0 0 1 3.73 12.15A1.69 1.69 0 0 1 475 271zM486.23 259.69c0-1-.66-1.27-1.56-1.27h-2.21v3.34h2.08c.77 0 1.69-.21 1.69-1.26v-.81m1.84 11.31a1.55 1.55 0 0 1-1.52-1.05 47.73 47.73 0 0 0-2.57-5h-1.52v4.35a1.74 1.74 0 0 1-3.47 0v-12.38a1.75 1.75 0 0 1 1.73-1.74h4c3.24 0 5 1.51 5 4.51v.81a4 4 0 0 1-2.12 3.73c.79 1.44 1.5 2.87 2.15 4.33a1.73 1.73 0 0 1-1.68 2.44zM494.61 271a1.73 1.73 0 0 1-1.74-1.73v-12.54a1.74 1.74 0 0 1 3.48 0v12.54a1.73 1.73 0 0 1-1.74 1.73M508.59 258.55h-2.89v10.72a1.74 1.74 0 0 1-3.47 0v-10.72h-2.88a1.69 1.69 0 0 1 0-3.37h9.24a1.69 1.69 0 0 1 0 3.37M522.44 257.35q-1.61 3.57-3.86 7.7v4.22a1.74 1.74 0 0 1-3.47 0v-4.2a120.86 120.86 0 0 1-3.82-7.66 1.74 1.74 0 0 1-.17-.75 1.76 1.76 0 0 1 1.8-1.67 1.61 1.61 0 0 1 1.48 1 92.43 92.43 0 0 0 2.51 5.17 100 100 0 0 0 2.51-5.19 1.57 1.57 0 0 1 1.46-1 1.7 1.7 0 0 1 1.73 1.63 2 2 0 0 1-.17.73M296.53 291.94a1.73 1.73 0 0 1-1.74-1.74v-12.54a1.74 1.74 0 1 1 3.47 0v12.54a1.73 1.73 0 0 1-1.73 1.74M311.56 291.94a1.82 1.82 0 0 1-1.68-.84l-4.71-8v7.2a1.59 1.59 0 0 1-3.18 0v-12.79a1.59 1.59 0 0 1 1.7-1.59 1.84 1.84 0 0 1 1.67.91l4.7 7.91v-7.23a1.59 1.59 0 1 1 3.17 0v12.84a1.59 1.59 0 0 1-1.67 1.59M333 278.28c-1.07 2.38-2.36 5-3.86 7.7v4.22a1.74 1.74 0 1 1-3.47 0V286q-2.22-4.08-3.82-7.65a1.66 1.66 0 0 1-.17-.75 1.76 1.76 0 0 1 1.8-1.68 1.63 1.63 0 0 1 1.48 1 83.1 83.1 0 0 0 2.51 5.17 96.23 96.23 0 0 0 2.51-5.19 1.55 1.55 0 0 1 1.45-1 1.71 1.71 0 0 1 1.74 1.63 1.92 1.92 0 0 1-.17.73M342 281.71c0-1.58-.43-2.63-2.23-2.63s-2.23 1-2.23 2.63v4.44c0 1.63.43 2.68 2.23 2.68s2.23-1.05 2.23-2.68v-4.44M339.73 292c-4.26 0-5.7-2.87-5.7-5.81v-4.44c0-2.93 1.44-5.79 5.7-5.79s5.7 2.86 5.7 5.79v4.44c0 2.9-1.43 5.81-5.7 5.81zM354.33 291.94c-3.92 0-5.7-2.38-5.7-5.27v-9a1.73 1.73 0 1 1 3.45 0v8.83c0 1.05.3 2.45 2.25 2.45s2.23-1.4 2.23-2.45v-8.83a1.74 1.74 0 1 1 3.47 0v9c0 2.89-1.8 5.27-5.7 5.27M370.75 280.62c0-1-.66-1.26-1.56-1.26H367v3.34h2.08c.77 0 1.69-.22 1.69-1.27v-.81m1.85 11.32a1.57 1.57 0 0 1-1.53-1.05 45.15 45.15 0 0 0-2.57-5H367v4.35a1.74 1.74 0 1 1-3.47 0v-12.39a1.74 1.74 0 0 1 1.73-1.73h4c3.24 0 5 1.5 5 4.5v.81a3.94 3.94 0 0 1-2.12 3.73 54.6 54.6 0 0 1 2.15 4.34 1.73 1.73 0 0 1-1.69 2.44zM402.23 278c-.92 4.35-1.82 8.13-2.89 12a2.28 2.28 0 0 1-4.51.06c-.6-2.21-1.22-4.78-1.82-7.31-.6 2.53-1.22 5.1-1.82 7.31a2.27 2.27 0 0 1-4.5-.06c-1.08-3.88-2-7.66-2.9-12a3.44 3.44 0 0 1 0-.43 1.66 1.66 0 0 1 1.74-1.61 1.6 1.6 0 0 1 1.6 1.35c.6 3.16 1.27 6.16 2 9.05.68-2.7 1.35-5.66 1.89-8.34.23-1.14.81-2.06 2-2.06s1.78.91 2 2c.53 2.68 1.2 5.66 1.88 8.36.73-2.89 1.4-5.89 2-9.05a1.61 1.61 0 0 1 1.61-1.35 1.66 1.66 0 0 1 1.73 1.61 3.44 3.44 0 0 1 0 .43M406.24 291.94a1.73 1.73 0 0 1-1.74-1.74v-12.54a1.74 1.74 0 1 1 3.47 0v12.54a1.73 1.73 0 0 1-1.73 1.74M420 291.75h-6.61a1.64 1.64 0 0 1-1.65-1.66v-12.43a1.74 1.74 0 1 1 3.47 0v10.78H420a1.66 1.66 0 0 1 0 3.31M431.59 291.75H425a1.64 1.64 0 0 1-1.65-1.66v-12.43a1.74 1.74 0 1 1 3.47 0v10.78h4.78a1.66 1.66 0 0 1 0 3.31M304.66 313a1.2 1.2 0 0 1-1.2-1.2v-5.44h-6.2v5.44a1.2 1.2 0 1 1-2.39 0v-13.3a1.2 1.2 0 1 1 2.39 0v5.71h6.2v-5.71a1.2 1.2 0 1 1 2.4 0v13.3a1.2 1.2 0 0 1-1.2 1.2M314.57 306c0-1.44-.55-2.28-2-2.28s-2 .86-2 2.28v.31h4V306m1.41 2.09h-5.39v.49c0 1.45.65 2.38 2.08 2.38a5.26 5.26 0 0 0 2.48-.55.86.86 0 0 1 1.18.59.92.92 0 0 1-.48 1.18 7.5 7.5 0 0 1-3.3.71c-3.15 0-4.27-2.1-4.27-4.52v-2c0-2.41 1.26-4.52 4.29-4.52s4.24 2.07 4.24 4.48v.89a.82.82 0 0 1-.81.89zM321.3 312.91a2.2 2.2 0 0 1-1.22-.44 2.76 2.76 0 0 1-1-2.23v-11.52a1.15 1.15 0 0 1 1.15-1.16 1.18 1.18 0 0 1 1.18 1.16v11.22a1.26 1.26 0 0 0 .65 1.27.81.81 0 0 1 .36.71c0 .69-.48 1-1.16 1M330.66 306.1c0-1.48-.53-2.21-2-2.21a3 3 0 0 0-1.83.71v5.51a2.79 2.79 0 0 0 1.87.8c1.41 0 2-.88 2-2.44v-2.37m-1.47 6.81a4.16 4.16 0 0 1-2.36-.72v3.28a1.17 1.17 0 0 1-1.15 1.16 1.18 1.18 0 0 1-1.18-1.16v-10.64c0-.77-.19-1-.57-1.23a.88.88 0 0 1-.38-.72c0-.69.51-1 1.18-1a2.1 2.1 0 0 1 1.22.44 3.38 3.38 0 0 1 .4.44 4.58 4.58 0 0 1 2.69-.88c2.76 0 4 1.56 4 4.37v1.81c-.08 2.94-1.08 4.85-3.89 4.85zM346.6 312.78h-.7c-3 0-3.89-1.89-3.89-4.71V304h-.48a1 1 0 1 1 0-1.94h.47v-1.81a1.17 1.17 0 1 1 2.34 0V302h1.76a1 1 0 1 1 0 1.94h-1.76V308c0 1.89.33 2.65 1.85 2.65h.4a1.06 1.06 0 0 1 1 1.05 1 1 0 0 1-1 1M356.16 312.91a1.18 1.18 0 0 1-1.18-1.18v-5.7c0-1.09-.31-1.95-1.74-1.95a2.41 2.41 0 0 0-2.14 1.11v6.54a1.18 1.18 0 1 1-2.36 0v-13a1.18 1.18 0 0 1 2.36 0v4a4.18 4.18 0 0 1 2.73-.84c2.65 0 3.49 1.62 3.49 3.91v5.93a1.18 1.18 0 0 1-1.18 1.18M366.19 306c0-1.44-.55-2.28-2-2.28s-2 .86-2 2.28v.31h3.95V306m1.41 2.09h-5.38v.49c0 1.45.65 2.38 2.08 2.38a5.32 5.32 0 0 0 2.48-.55.87.87 0 0 1 1.27.59.94.94 0 0 1-.49 1.18 7.5 7.5 0 0 1-3.3.71c-3.15 0-4.27-2.1-4.27-4.52v-2c0-2.41 1.26-4.52 4.29-4.52s4.25 2.07 4.25 4.48v.89a.83.83 0 0 1-.88.89zM387.82 311.84a1.44 1.44 0 0 1-1.47 1.07 1.41 1.41 0 0 1-1.43-1c-.65-2.1-1.24-4.19-1.81-6.29a164.5 164.5 0 0 1-1.78 6.29 1.53 1.53 0 0 1-2.9 0c-.89-2.72-1.77-5.95-2.4-8.71a1 1 0 0 1 1.07-1.24 1 1 0 0 1 1 .84c.53 2.21 1.18 4.78 1.87 7.11.7-2.38 1.29-4.5 1.83-6.87a1.23 1.23 0 0 1 1.31-1.08 1.24 1.24 0 0 1 1.28 1.08c.54 2.37 1.13 4.49 1.83 6.87.69-2.33 1.34-4.9 1.87-7.11a1 1 0 0 1 1-.84 1 1 0 0 1 1.07 1.24c-.63 2.76-1.51 6-2.4 8.71M397.84 306.31c0-1.43-.63-2.29-2-2.29s-2 .86-2 2.29v2.18c0 1.43.61 2.31 2 2.31s2-.88 2-2.31v-2.18m-2 6.6c-3.07 0-4.37-2-4.37-4.42v-2.2c0-2.42 1.3-4.4 4.37-4.4s4.37 2 4.37 4.4v2.2c-.04 2.42-1.36 4.42-4.41 4.42zM408.29 304.22a3.22 3.22 0 0 0-1-.1 1.91 1.91 0 0 0-2.06 1.56v6.05a1.18 1.18 0 0 1-1.18 1.18 1.17 1.17 0 0 1-1.15-1.18V305a1.21 1.21 0 0 0-.66-1.24.87.87 0 0 1-.37-.71c0-.68.46-1 1.17-1a1.14 1.14 0 0 1 .36 0 2 2 0 0 1 1.47 1.22 3.56 3.56 0 0 1 2.92-1.39 2.73 2.73 0 0 1 1.35.3 1.06 1.06 0 0 1 .44 1.28 1.07 1.07 0 0 1-1.3.75M418 312.91a1.08 1.08 0 0 1-1-.7 29.7 29.7 0 0 0-2.54-4.45l-1.39 1.36v2.61a1.18 1.18 0 1 1-2.35 0v-13a1.17 1.17 0 0 1 1.18-1.16 1.16 1.16 0 0 1 1.17 1.16v7.63l4.17-4.16a1 1 0 0 1 1.47 0 1.05 1.05 0 0 1 0 1.47l-2.59 2.54a33.2 33.2 0 0 1 3 5.13 1.11 1.11 0 0 1-1.07 1.56M428.93 312.91a2.2 2.2 0 0 1-1.22-.44 2.73 2.73 0 0 1-1-2.23v-11.52a1.17 1.17 0 0 1 2.33 0v11.22a1.26 1.26 0 0 0 .65 1.27.81.81 0 0 1 .36.71c0 .69-.48 1-1.15 1M433.31 312.91a1.17 1.17 0 0 1-1.17-1.18v-8.68a1.18 1.18 0 0 1 2.35 0v8.68a1.18 1.18 0 0 1-1.18 1.18m0-12.87a1.34 1.34 0 0 1-1.31-1.34 1.33 1.33 0 1 1 2.65 0 1.34 1.34 0 0 1-1.34 1.3zM441.83 311.73c-.41 1-.93 1.18-1.54 1.18s-1.16-.19-1.53-1.18a125.8 125.8 0 0 1-3-8.45 1.07 1.07 0 0 1 1.07-1.39 1 1 0 0 1 1 .76c.72 2.27 1.6 4.94 2.48 7.27.89-2.33 1.79-5 2.55-7.27a1.06 1.06 0 0 1 1-.76 1.09 1.09 0 0 1 1.09 1.43c-.93 2.8-2 5.74-3.15 8.41M452.22 306c0-1.44-.55-2.28-2-2.28s-2 .86-2 2.28v.31h4V306m1.41 2.09h-5.39v.49c0 1.45.66 2.38 2.09 2.38a5.32 5.32 0 0 0 2.48-.55.86.86 0 0 1 1.19.59.92.92 0 0 1-.48 1.18 7.5 7.5 0 0 1-3.3.71c-3.15 0-4.27-2.1-4.27-4.52v-2c0-2.41 1.26-4.52 4.29-4.52s4.25 2.07 4.25 4.48v.89a.83.83 0 0 1-.86.89zM469.12 306.31c0-1.43-.63-2.29-2-2.29s-2 .86-2 2.29v2.18c0 1.43.61 2.31 2 2.31s2-.88 2-2.31v-2.18m-2 6.6c-3.07 0-4.37-2-4.37-4.42v-2.2c0-2.42 1.3-4.4 4.37-4.4s4.37 2 4.37 4.4v2.2c-.04 2.42-1.36 4.42-4.41 4.42zM481.69 312.91a1.18 1.18 0 0 1-1.16-1.18V306c0-1.09-.31-1.95-1.74-1.95a2.44 2.44 0 0 0-2.15 1.11v6.54a1.17 1.17 0 1 1-2.33 0V305a1.21 1.21 0 0 0-.65-1.24.86.86 0 0 1-.38-.71c0-.7.51-1 1.18-1a2.05 2.05 0 0 1 1.22.44 2.12 2.12 0 0 1 .48.61 4.35 4.35 0 0 1 3.22-1.18c2.65 0 3.49 1.62 3.49 3.91v5.93a1.18 1.18 0 0 1-1.18 1.18M488.53 313.07a2.28 2.28 0 1 1 2.31-2.27 2.27 2.27 0 0 1-2.31 2.27M494.57 313.07a2.28 2.28 0 1 1 2.3-2.27 2.28 2.28 0 0 1-2.3 2.27M500.6 313.07a2.28 2.28 0 1 1 2.31-2.27 2.27 2.27 0 0 1-2.31 2.27" transform="translate(-269.98 -224.05)"/><circle class="cls-3" cx="8.87" cy="141.19" r="5.84"/><circle class="cls-3" cx="27.72" cy="141.19" r="5.84"/><circle class="cls-3" cx="46.61" cy="141.19" r="5.84"/><circle class="cls-3" cx="256.79" cy="141.19" r="5.84"/><circle class="cls-3" cx="545.72" cy="365.24" r="5.84" transform="rotate(-83.76 285.8 403.76)"/><path class="cls-3" d="M570.5 365.24a5.84 5.84 0 1 1-5.84-5.84 5.84 5.84 0 0 1 5.84 5.84z" transform="translate(-269.98 -224.05)"/></svg>