<?xml version="1.0" encoding="UTF-8" standalone="no"?>
<!-- Created with Inkscape (http://www.inkscape.org/) -->

<svg
   xmlns:dc="http://purl.org/dc/elements/1.1/"
   xmlns:cc="http://creativecommons.org/ns#"
   xmlns:rdf="http://www.w3.org/1999/02/22-rdf-syntax-ns#"
   xmlns:svg="http://www.w3.org/2000/svg"
   xmlns="http://www.w3.org/2000/svg"
   xmlns:sodipodi="http://sodipodi.sourceforge.net/DTD/sodipodi-0.dtd"
   xmlns:inkscape="http://www.inkscape.org/namespaces/inkscape"
   width="16px"
   height="16px"
   viewBox="0 0 16 16"
   version="1.1"
   id="SVGRoot"
   inkscape:version="0.92.4 (5da689c313, 2019-01-14)"
   sodipodi:docname="left-style-2.svg">
  <defs
     id="defs815" />
  <sodipodi:namedview
     id="base"
     pagecolor="#ffffff"
     bordercolor="#666666"
     borderopacity="1.0"
     inkscape:pageopacity="0.0"
     inkscape:pageshadow="2"
     inkscape:zoom="16"
     inkscape:cx="11.945531"
     inkscape:cy="4.8874246"
     inkscape:document-units="px"
     inkscape:current-layer="layer1"
     showgrid="false"
     inkscape:window-width="1920"
     inkscape:window-height="1015"
     inkscape:window-x="1920"
     inkscape:window-y="868"
     inkscape:window-maximized="1"
     inkscape:grid-bbox="true"
     inkscape:snap-bbox="true"
     inkscape:snap-page="true"
     inkscape:snap-bbox-midpoints="true"
     inkscape:bbox-paths="true"
     inkscape:bbox-nodes="false"
     inkscape:snap-bbox-edge-midpoints="false"
     inkscape:snap-object-midpoints="true"
     showguides="true"
     inkscape:guide-bbox="true">
    <sodipodi:guide
       position="8,8"
       orientation="0,1"
       id="guide821"
       inkscape:locked="false"
       inkscape:label=""
       inkscape:color="rgb(0,0,255)" />
  </sodipodi:namedview>
  <metadata
     id="metadata818">
    <rdf:RDF>
      <cc:Work
         rdf:about="">
        <dc:format>image/svg+xml</dc:format>
        <dc:type
           rdf:resource="http://purl.org/dc/dcmitype/StillImage" />
        <dc:title />
      </cc:Work>
    </rdf:RDF>
  </metadata>
  <g
     inkscape:label="Layer 1"
     inkscape:groupmode="layer"
     id="layer1">
    <g
       aria-label="“"
       style="font-style:normal;font-variant:normal;font-weight:normal;font-stretch:normal;font-size:40px;line-height:1.25;font-family:Yesevca;-inkscape-font-specification:Yesevca;letter-spacing:0px;word-spacing:0px;fill:#000000;fill-opacity:1;stroke:none"
       id="text817"
       transform="matrix(1.3107199,0,0,1.3107199,30.709809,45.397243)">
      <path
         d="m -18.371132,-32.69199 q -0.507812,0.351562 -0.996094,0.78125 -0.488281,0.429687 -0.878906,0.9375 -0.371094,0.488281 -0.605469,1.054687 -0.214843,0.566407 -0.214843,1.171875 0,0.644532 0.195312,1.152344 0.214844,0.507813 0.546875,0.898438 0.332031,0.371093 0.742188,0.644531 0.429687,0.273437 0.839843,0.429687 0,0.351563 -0.136718,0.722657 -0.117188,0.351562 -0.390625,0.664062 -0.253907,0.3125 -0.664063,0.507813 -0.410156,0.195312 -0.957031,0.195312 -0.46875,0 -0.9375,-0.175781 -0.449219,-0.195313 -0.800781,-0.566406 -0.351563,-0.390625 -0.585938,-0.976563 -0.214844,-0.605469 -0.214844,-1.445312 0,-0.722657 0.195313,-1.5625 0.214844,-0.859375 0.722656,-1.757813 0.507813,-0.898437 1.367188,-1.796875 0.859375,-0.898437 2.167968,-1.71875 z m 7.148438,0 q -0.527344,0.351562 -1.015625,0.78125 -0.488282,0.410156 -0.859375,0.917969 -0.351563,0.488281 -0.585938,1.054687 -0.214844,0.566406 -0.214844,1.230469 0,0.703125 0.195313,1.230469 0.214844,0.507812 0.546875,0.878906 0.332031,0.351562 0.742187,0.585937 0.410157,0.234375 0.839844,0.390625 0,0.351563 -0.136719,0.722657 -0.117187,0.351562 -0.390625,0.664062 -0.273437,0.3125 -0.683593,0.507813 -0.410157,0.195312 -0.957032,0.195312 -0.46875,0 -0.917968,-0.175781 -0.449219,-0.195313 -0.800782,-0.566406 -0.351562,-0.390625 -0.585937,-0.976563 -0.214844,-0.605469 -0.214844,-1.445312 0,-0.722657 0.195313,-1.5625 0.195312,-0.859375 0.683593,-1.757813 0.507813,-0.898437 1.347657,-1.796875 0.859375,-0.898437 2.167968,-1.71875 z"
         style="font-style:normal;font-variant:normal;font-weight:normal;font-stretch:normal;font-family:Simonetta;-inkscape-font-specification:Simonetta"
         id="path819"
         inkscape:connector-curvature="0" />
    </g>
  </g>
</svg>
