<svg height="512pt" viewBox="0 0 512 512" width="512pt" xmlns="http://www.w3.org/2000/svg">
  <path d="M90.74 180.73a10 10 0 1 0 0 20 10 10 0 0 0 0-20zm0 0"/>
  <path d="M370.92 300.22a10 10 0 0 0-7.07-2.93c-.1.02-3.94-.2-7.07 2.93l-7.07 7.07-22.97-22.98c50.7-71.07 42.99-169.11-19.45-231.55-70.34-70.34-184.19-70.35-254.53 0-70.34 70.33-70.35 184.19 0 254.53 62.28 62.29 160.29 70.28 231.55 19.45l22.98 22.97-7.07 7.07a10 10 0 0 0 0 14.15l126.42 126.4a49.94 49.94 0 0 0 70.7.01 49.94 49.94 0 0 0 0-70.7zm-49.5 35.35l-21.4-21.4a180.76 180.76 0 0 0 14.14-14.15l21.41 21.41zM66.9 293.15C4.38 230.63 4.37 129.43 66.9 66.9c62.52-62.53 163.72-62.53 226.25 0 62.38 62.38 62.7 163.56 0 226.25-63.4 63.41-164.58 61.67-226.25 0zm296.95 28.28l28.28 28.28-42.42 42.42-28.28-28.28zM483.2 483.2a29.95 29.95 0 0 1-42.41 0l-76.94-76.93 42.42-42.42 76.93 76.94a29.95 29.95 0 0 1 0 42.4zm0 0"/>
  <path d="M279.01 81.04c-54.68-54.68-143.27-54.71-197.98 0-54.57 54.58-54.57 143.39 0 197.98 54.72 54.7 143.26 54.71 197.97 0 54.59-54.59 54.59-143.4.01-197.98zm-14.15 183.83c-46.9 46.9-122.78 46.9-169.69 0-46.77-46.78-46.77-122.9 0-169.7 46.87-46.87 122.81-46.88 169.7.01 46.78 46.78 46.78 122.9 0 169.7zm0 0"/>
  <path d="M180.02 80.04a99.3 99.3 0 0 0-70.7 29.28 98.77 98.77 0 0 0-23.93 38.41 10 10 0 1 0 18.94 6.43 78.98 78.98 0 0 1 19.13-30.7 79.44 79.44 0 0 1 56.56-23.42 10 10 0 1 0 0-20zm0 0"/>
</svg>
