<svg viewBox="0 0 512 512" xmlns="http://www.w3.org/2000/svg">
  <path d="M256 120a10 10 0 1 0 0 20 10 10 0 0 0 0-20zm0 0"/>
  <path d="M266 40.18V10a10 10 0 1 0-20 0v30.18C123.8 44.06 17.8 118.52 2.06 238.03A36.11 36.11 0 0 0 0 250a10 10 0 0 0 10 10l.37-.02.46.02a10 10 0 0 0 9.96-9.16c.22-2.68.49-5.29.79-7.8C27.52 229.84 48.67 220 71.5 220c27.43 0 51.5 14.02 51.5 30a10 10 0 0 0 10 10c.23 0 .45-.02.68-.04l.32-.01.1-.01c4.95-.5 8.91-4.64 9-9.76l.07-2.43C145.33 232.68 168.7 220 194.5 220c27.43 0 51.5 14.02 51.5 30v102h-10a10 10 0 0 0-10 10v80a10 10 0 0 1-20 0c0-16.54-13.46-30-30-30s-30 13.46-30 30c0 38.6 31.4 70 70 70s70-31.4 70-70v-80a10 10 0 0 0-10-10h-10V250c0-15.98 24.07-30 51.5-30 25.82 0 49.2 12.7 51.33 27.71.02.82.05 1.64.06 2.47A10 10 0 0 0 379 260a10 10 0 0 0 10-10c0-15.98 24.07-30 51.5-30 22.82 0 43.96 9.82 49.92 23.04.3 2.51.57 5.12.8 7.8a10 10 0 0 0 9.95 9.16l.46-.02.37.02a10 10 0 0 0 10-10c0-4.07-.7-8.1-2.06-11.98C494.22 118.66 388.36 44.07 266 40.18zM125.16 217.01C112.04 206.59 92.86 200 71.5 200c-15.97 0-30.98 3.71-43.09 10.1 21.15-70.78 81.13-123.31 160.36-142.32-39.75 36.09-58.07 95.82-63.61 149.23zM266 442c0 27.57-22.43 50-50 50s-50-22.43-50-50a10 10 0 0 1 20 0c0 16.54 13.46 30 30 30s30-13.46 30-30v-70h20zm98.18-229.88C351.14 204.3 334.57 200 317.5 200c-20.21 0-38.48 5.9-51.5 15.37V170a10 10 0 1 0-20 0v45.37C232.98 205.9 214.71 200 194.5 200c-17.07 0-33.64 4.3-46.68 12.12-.71.43-1.41.87-2.1 1.32C156.12 128.56 195.4 67.83 246 60.7V90a10 10 0 1 0 20 0V60.7c50.6 7.12 89.9 67.86 100.28 152.74-.69-.45-1.39-.9-2.1-1.32zM440.5 200c-21.36 0-40.54 6.59-53.65 17-5.53-53.27-23.81-113.09-63.62-149.22 79.23 19 139.2 71.54 160.36 142.31-12.11-6.38-27.12-10.09-43.09-10.09zm0 0"/>
</svg>
