<svg xmlns="http://www.w3.org/2000/svg" viewBox="0 0 60 60">
  <path d="M14 36.18h14v-10H14v10zm2-2v-3h10v3H16zm10-6v1H16v-1h10zM14 40.18v12h14v-12H14zm6 2v3h-4v-3h4zm-4 5h4v3h-4v-3zm6 3v-3h4v3h-4zm4-5h-4v-3h4v3zM32 36.18h14v-10H32v10zm2-2v-1h10v1H34zm10-6v3H34v-3h10z"/>
  <path d="M59 48.18a1 1 0 0 0-1 1v1h-1v-1a1 1 0 1 0-2 0v1h-1v-20.2a3.99 3.99 0 0 0 5.61-3.96 4.02 4.02 0 0 0-1.52-2.83L32.72 3.34 30 .82l-2.66 2.47-25.43 19.9a4.01 4.01 0 0 0-.46 5.87 3.97 3.97 0 0 0 4.55.92v20.2H5v-1a1 1 0 1 0-2 0v1H2v-1a1 1 0 1 0-2 0v9a1 1 0 1 0 2 0v-1h1v1a1 1 0 1 0 2 0v-1h1v2h48v-2h1v1a1 1 0 1 0 2 0v-1h1v1a1 1 0 1 0 2 0v-9a1 1 0 0 0-1-1zM2.91 27.7a1.98 1.98 0 0 1-.53-1.52c.05-.57.32-1.07.77-1.42L28.64 4.81 30 3.55l1.43 1.32 25.43 19.9a1.98 1.98 0 0 1 .23 2.93c-.7.76-1.86.85-2.69.22l-.4-.31L30 9.1 6.39 27.3l-.8.6c-.82.64-1.97.55-2.68-.21zM2 55.17v-3h1v3H2zm3 0v-3h1v3H5zm29 2v-15h10v15H34zm18 0h-6v-17H32v17H8V28.6l22-16.96L52 28.6v28.6zm2-2v-3h1v3h-1zm3 0v-3h1v3h-1z"/>
</svg>
