<svg xmlns="http://www.w3.org/2000/svg" viewBox="0 0 512 512">
  <path d="M155.36 334.2a33.68 33.68 0 0 0 32.85-25.42l17.93 17.91a33.89 33.89 0 0 0 24.14 10c9.12 0 17.69-3.55 24.13-10a33.89 33.89 0 0 0 10-24.13 33.9 33.9 0 0 0-10-24.14l-15.4-15.4a33.81 33.81 0 0 0 25.4-32.88c0-9.11-3.55-17.69-10-24.13l-21.45-21.44a33.79 33.79 0 0 0 25.42-32.87c0-9.12-3.55-17.69-10-24.13l-60.52-60.52V8.53a8.54 8.54 0 0 0-17.07 0v45.4c-12.36-4.81-27.4-2.39-37.06 7.26a34.08 34.08 0 0 0-6.32 39.19 33.21 33.21 0 0 0-17.82 9.1 34.08 34.08 0 0 0-6.47 38.9 33.89 33.89 0 0 0-17.66 9.36 34.08 34.08 0 0 0-6.47 38.91 33.85 33.85 0 0 0-17.66 9.36 33.89 33.89 0 0 0-10 24.13 33.9 33.9 0 0 0 10 24.14l69.9 69.9a33.88 33.88 0 0 0 24.13 10.01zM145.8 73.25c3.22-3.22 7.5-5 12.06-5 4.57 0 8.85 1.78 12.08 5l3.35 3.35 63.02 63.03c3.23 3.23 5 7.5 5 12.07 0 4.55-1.77 8.84-5 12.06-6.45 6.45-17.69 6.45-24.13 0L145.8 97.4a17.1 17.1 0 0 1 0-24.14zm-24.15 48.28c3.23-3.23 7.52-5 12.08-5s8.84 1.77 12.07 5l96.54 96.54c3.23 3.22 5 7.5 5 12.06 0 4.57-1.77 8.85-5 12.08-6.44 6.44-17.69 6.44-24.13 0l-37.55-37.55-46.93-46.93-.02-.02-12.06-12.05a17.1 17.1 0 0 1 0-24.13zm-24.13 48.27c3.23-3.22 7.51-5 12.08-5 4.55 0 8.83 1.77 12.05 4.98l46.95 46.95 73.74 73.75c3.23 3.22 5 7.5 5 12.07 0 4.55-1.77 8.84-5 12.06-6.44 6.45-17.69 6.45-24.13 0l-38.69-38.68s0-.02-.02-.02l-34.95-34.96-47.02-47.02a17.1 17.1 0 0 1 0-24.13zM68.4 230.13c0-4.55 1.77-8.84 5-12.06 3.23-3.22 7.51-5 12.07-5 4.56 0 8.85 1.78 12.06 5l4.93 4.92 65.01 65.02a17.09 17.09 0 0 1-.02 24.1c-6.45 6.45-17.7 6.46-24.14 0l-69.9-69.9c-3.23-3.23-5.01-7.51-5.01-12.08zM426.54 213.33a8.53 8.53 0 1 0 17.07 0c0-61.68-25.75-98.03-41.13-119.75-4.49-6.33-10.07-14.22-10.07-16.78V8.53a8.54 8.54 0 0 0-17.07 0V76.8c0 7.99 5.54 15.82 13.22 26.65 15.12 21.36 37.98 53.63 37.98 109.88zM179.32 477.87a8.54 8.54 0 0 0-8.53 8.53v17.07a8.54 8.54 0 0 0 17.07 0V486.4a8.54 8.54 0 0 0-8.54-8.53z"/>
  <path d="M405.67 223.3c-20.07-13.38-83.1-49.94-86.25-51.74-5.7-2.84-12.03-2.45-17.81 1.14-12.48 7.7-20.13 28.86-20.13 40.63 0 16.4 11.5 26.36 23.69 36.91 4.22 3.65 8.58 7.44 12.94 11.8l42.67 42.66c2.82 2.83 5.5 5.5 5.86 6.3.15.48.17 2.3.17 4.09-2.01 5.39-17.77 23.41-31.34 37l-94.13 85.58c-2.49 2.45-7.73 6.06-11.06 6.06h-76.8c-9.41 0-17.07-7.65-17.07-17.06s7.65-17.07 17.07-17.07h59.73c11.73 0 21.97-9.9 23.1-11.03l59.73-59.74a8.54 8.54 0 0 0-12.06-12.06l-59.71 59.7c-2.48 2.45-7.72 6.06-11.06 6.06h-85.33a17.08 17.08 0 0 1-17.07-17.06c0-9.42 7.65-17.07 17.07-17.07h68.26a8.54 8.54 0 0 0 0-17.07H102.28a17.08 17.08 0 0 1-12.73-28.44 8.54 8.54 0 0 0-12.7-11.4 34.05 34.05 0 0 0-8.7 22.78c0 17.6 13.42 31.95 30.53 33.77a33.72 33.72 0 0 0-4.94 17.43c0 17.6 13.43 31.94 30.54 33.77a33.72 33.72 0 0 0-4.94 17.43 34.17 34.17 0 0 0 34.14 34.13h76.8c11.72 0 21.96-9.9 22.8-10.75l94.16-85.62c36.64-36.63 36.64-45.71 36.64-48.7 0-11.32-1.4-13.46-11.04-23.1l-42.66-42.67c-4.8-4.8-9.6-8.95-13.84-12.62-11.7-10.13-17.8-15.8-17.8-24 0-10.78 9.18-26.52 12.79-26.76.64.37 65.24 37.83 84.88 50.92 22.06 14.7 47.4 37.87 47.4 86.76 0 36.63-28.8 86.29-47.85 119.14-13.62 23.47-20.17 35.1-20.17 43v17.07a8.54 8.54 0 0 0 17.07 0v-16.98c.35-4.33 9.65-20.38 17.86-34.52 21.16-36.5 50.16-86.48 50.16-127.7 0-57.64-31.4-85.23-55.01-100.97z"/>
</svg>
