<svg xmlns="http://www.w3.org/2000/svg" viewBox="-26 0 512 512">
  <path d="M290 380a10 10 0 1 0 0-20 10 10 0 0 0 0 20zm0 0M170 380a10 10 0 1 0 0-20 10 10 0 0 0 0 20zm0 0"/>
  <path d="M130 512h200a10 10 0 0 0 10-10v-44.49c0-2.42.88-4.76 2.48-6.59l.07-.08L452.62 322.2a30.02 30.02 0 0 0 7.38-19.71V160c0-22.05-17.95-40-40-40s-40 17.95-40 40l-.03 86.39a39.38 39.38 0 0 0-3.67-4.23c-16.16-16.16-41.98-13.93-54.12-1.43l-87.97 90.63a50.73 50.73 0 0 0-4.21 4.93 50.3 50.3 0 0 0-4.2-4.9l-87.98-90.66c-11.9-12.26-37.75-14.95-54.12 1.43a40.1 40.1 0 0 0-3.68 4.24C80 245.98 80 160 80 160c0-22.05-17.95-40-40-40S0 137.95 0 160v142.49a30 30 0 0 0 7.38 19.7l110.14 128.73a10.02 10.02 0 0 1 2.48 6.6V502a10 10 0 0 0 10 10zm118.55-166.69l87.63-90.28a19.46 19.46 0 0 1 25.98 1.27 19.36 19.36 0 0 1-.01 27.4l-50.95 50.96a10 10 0 0 0 14.14 14.14l54.16-54.16a69.53 69.53 0 0 0 20.5-49.5V160c0-11.03 8.97-20 20-20s20 8.97 20 20v142.49c0 2.42-.88 4.76-2.48 6.59l-.07.08-110.07 128.65a30 30 0 0 0-7.38 19.7V492h-80V366.28c0-7.87 3.03-15.31 8.55-20.97zm-226-36.15l-.07-.08a10.02 10.02 0 0 1-2.48-6.6V160c0-11.03 8.97-20 20-20s20 8.97 20 20v85.15c0 18.7 7.28 36.27 20.5 49.5l54.16 54.15a10 10 0 1 0 14.14-14.14L97.84 283.7a19.36 19.36 0 0 1 25.98-28.67l87.65 90.3a29.82 29.82 0 0 1 8.53 20.95V492h-80v-34.49a30 30 0 0 0-7.38-19.7zm0 0"/>
  <path d="M140 190v20a10 10 0 0 0 10 10h160a10 10 0 0 0 10-10v-20c0-49.53-40.07-90-90-90-49.63 0-90 40.38-90 90zm90-70c38.61 0 70 31.25 70 70v10H160v-10c0-38.6 31.4-70 70-70zm0 0M280 50c0-27.57-22.43-50-50-50s-50 22.43-50 50 22.43 50 50 50 50-22.43 50-50zm-50 30c-16.54 0-30-13.46-30-30s13.46-30 30-30 30 13.46 30 30-13.46 30-30 30zm0 0"/>
</svg>
