<?xml version="1.0" encoding="iso-8859-1"?>
<!-- Generator: Adobe Illustrator 19.0.0, SVG Export Plug-In . SVG Version: 6.00 Build 0)  -->
<svg version="1.1" id="Capa_1" xmlns="http://www.w3.org/2000/svg" xmlns:xlink="http://www.w3.org/1999/xlink" x="0px" y="0px"
	 viewBox="0 0 512 512" style="enable-background:new 0 0 512 512;" xml:space="preserve">
<g>
	<g>
		<g>
			<path d="M377.6,166.4c-9.394,5.566-19.663,9.5-30.371,11.636c-9.1-9.544-21.722-14.93-34.909-14.895
				c-25.977-0.195-47.263,20.571-47.709,46.545c0.011,3.606,0.44,7.199,1.28,10.706c-38.258-1.806-73.989-19.629-98.444-49.105
				c-4.183,7.049-6.431,15.077-6.516,23.273c0.001,15.803,8.02,30.525,21.295,39.098c-7.581-0.247-14.997-2.28-21.644-5.935
				c0,0,0,0,0,0.582c-0.076,22.697,15.998,42.241,38.284,46.545c-7.025,1.873-14.381,2.151-21.527,0.815
				c6.425,19.226,24.298,32.292,44.567,32.582c-16.874,13.122-37.621,20.283-58.996,20.364c-3.889-0.004-7.775-0.237-11.636-0.698
				c21.898,13.852,47.281,21.197,73.193,21.178c73.893,1.35,134.89-57.459,136.24-131.352c0.014-0.783,0.022-1.566,0.022-2.35
				c0-2.017,0-4.034,0-6.051c9.12-6.684,16.997-14.915,23.273-24.32c-8.736,3.825-17.99,6.334-27.462,7.447
				C366.501,186.634,373.991,177.365,377.6,166.4z"/>
			<path d="M256,0C114.615,0,0,114.615,0,256s114.615,256,256,256s256-114.615,256-256S397.385,0,256,0z M256,488.727
				C127.468,488.727,23.273,384.532,23.273,256S127.468,23.273,256,23.273S488.727,127.468,488.727,256S384.532,488.727,256,488.727
				z"/>
		</g>
	</g>
</g>
<g>
</g>
<g>
</g>
<g>
</g>
<g>
</g>
<g>
</g>
<g>
</g>
<g>
</g>
<g>
</g>
<g>
</g>
<g>
</g>
<g>
</g>
<g>
</g>
<g>
</g>
<g>
</g>
<g>
</g>
</svg>
