<svg xmlns="http://www.w3.org/2000/svg" fill-rule="evenodd" stroke-linejoin="round" stroke-miterlimit="1.41" clip-rule="evenodd" viewBox="0 0 512 512">
    <path d="M256 8C119 8 8 119 8 256s111 248 248 248 248-111 248-248S393 8 256 8zm164.56 179.68c-1.26-26.55-7.32-50.06-26.77-69.43-19.37-19.37-42.89-25.44-69.43-26.77-27.36-1.55-109.36-1.55-136.72 0-26.47 1.26-49.98 7.32-69.43 26.7-19.44 19.37-25.43 42.88-26.77 69.42-1.55 27.36-1.55 109.36 0 136.72 1.26 26.55 7.33 50.06 26.77 69.43 19.45 19.37 42.89 25.44 69.43 26.77 27.36 1.55 109.36 1.55 136.72 0 26.54-1.26 50.06-7.32 69.43-26.77 19.37-19.37 25.43-42.88 26.76-69.43 1.56-27.33 1.56-109.11 0-136.64zm-35.35 166a55.92 55.92 0 0 1-31.5 31.5c-21.81 8.64-73.57 6.65-97.67 6.65-24.1 0-75.94 1.92-97.68-6.66a55.92 55.92 0 0 1-31.5-31.5c-8.65-21.8-6.65-73.56-6.65-97.67 0-24.1-1.92-75.94 6.65-97.68a55.92 55.92 0 0 1 31.5-31.5c21.81-8.64 73.57-6.65 97.68-6.65 24.1 0 75.93-1.92 97.67 6.66a55.92 55.92 0 0 1 31.5 31.5c8.65 21.8 6.66 73.56 6.66 97.67 0 24.1 2 75.94-6.66 97.68zM256.04 171.04A84.82 84.82 0 0 0 171.08 256a84.82 84.82 0 0 0 84.96 84.96A84.82 84.82 0 0 0 340.99 256a84.82 84.82 0 0 0-84.95-84.96zm0 140.2A55.33 55.33 0 0 1 200.8 256a55.29 55.29 0 0 1 55.24-55.23A55.29 55.29 0 0 1 311.27 256a55.33 55.33 0 0 1-55.23 55.23zm108.25-143.67a19.77 19.77 0 0 1-19.82 19.81 19.82 19.82 0 1 1 19.82-19.82z"/>
</svg>
